SplineFontDB: 3.2
FontName: AnonymousProLHQwattash-Italic
FullName: Anonymous Pro Italic qwattash line height patch
FamilyName: AnonymousProLHQwattash
Weight: Book
Copyright: Copyright (c) Mark Simonson 2009-2010. All rights reserved.
Version: 1.002
ItalicAngle: -12
UnderlinePosition: -248
UnderlineWidth: 123
Ascent: 1675
Descent: 473
InvalidEm: 0
sfntRevision: 0x00010083
LayerCount: 2
Layer: 0 1 "Back" 1
Layer: 1 1 "Fore" 0
XUID: [1021 424 447614775 832131]
StyleMap: 0x0001
FSType: 0
OS2Version: 3
OS2_WeightWidthSlopeOnly: 0
OS2_UseTypoMetrics: 0
CreationTime: 1255118160
ModificationTime: 1573042402
PfmFamily: 17
TTFWeight: 400
TTFWidth: 5
LineGap: 0
VLineGap: 0
Panose: 2 6 6 9 3 2 2 0 5 4
OS2TypoAscent: 1675
OS2TypoAOffset: 0
OS2TypoDescent: -473
OS2TypoDOffset: 0
OS2TypoLinegap: 0
OS2WinAscent: 1675
OS2WinAOffset: 0
OS2WinDescent: 473
OS2WinDOffset: 0
HheadAscent: 1675
HheadAOffset: 0
HheadDescent: -473
HheadDOffset: 0
OS2SubXSize: 1434
OS2SubYSize: 1331
OS2SubXOff: 0
OS2SubYOff: 293
OS2SupXSize: 1434
OS2SupYSize: 1331
OS2SupXOff: 0
OS2SupYOff: 928
OS2StrikeYSize: 123
OS2StrikeYPos: 465
OS2CapHeight: 1305
OS2XHeight: 932
OS2FamilyClass: 1281
OS2Vendor: 'mlss'
OS2CodePages: 2000009f.00000000
OS2UnicodeRanges: a00002af.7000a9ca.00000000.00000000
MarkAttachClasses: 1
DEI: 91125
TtTable: prep
PUSHB_1
 0
CALL
SVTCA[y-axis]
PUSHB_3
 1
 7
 2
CALL
SVTCA[x-axis]
PUSHB_3
 8
 7
 2
CALL
SVTCA[x-axis]
PUSHB_8
 8
 66
 63
 48
 37
 24
 0
 8
CALL
PUSHB_8
 9
 83
 63
 61
 37
 24
 0
 8
CALL
PUSHB_8
 10
 103
 82
 61
 47
 24
 0
 8
CALL
PUSHB_8
 11
 76
 63
 48
 37
 24
 0
 8
CALL
PUSHB_8
 12
 83
 63
 48
 37
 24
 0
 8
CALL
PUSHB_8
 13
 97
 82
 61
 37
 24
 0
 8
CALL
PUSHB_8
 14
 33
 27
 21
 15
 9
 0
 8
CALL
SVTCA[y-axis]
PUSHB_8
 1
 83
 63
 61
 37
 24
 0
 8
CALL
PUSHB_8
 2
 103
 82
 61
 47
 24
 0
 8
CALL
PUSHB_8
 3
 77
 63
 48
 37
 24
 0
 8
CALL
PUSHB_8
 4
 76
 63
 48
 37
 24
 0
 8
CALL
PUSHB_8
 5
 66
 63
 48
 37
 24
 0
 8
CALL
PUSHB_8
 6
 97
 82
 61
 37
 24
 0
 8
CALL
PUSHB_8
 7
 83
 63

StartChar: .notdef
Encoding: 65536 -1 0
Width: 1118
VWidth: 2048
Flags: W
LayerCount: 2
Fore
SplineSet
784 0 m 1,0,-1
 -49 0 l 1,1,-1
 227 1305 l 1,2,-1
 1061 1305 l 1,3,-1
 784 0 l 1,0,-1
113 117 m 1,4,-1
 672 117 l 1,5,-1
 899 1188 l 1,6,-1
 340 1188 l 1,7,-1
 113 117 l 1,4,-1
EndSplineSet
EndChar

StartChar: numbersign
Encoding: 35 35 4
Width: 1118
VWidth: 2048
Flags: W
LayerCount: 2
Fore
SplineSet
880 222 m 1,0,-1
 659 222 l 1,1,-1
 612 1 l 1,2,-1
 495 1 l 1,3,-1
 543 222 l 1,4,-1
 287 222 l 1,5,-1
 239 1 l 1,6,-1
 123 1 l 1,7,-1
 170 222 l 1,8,-1
 -51 222 l 1,9,-1
 -28 332 l 1,10,-1
 193 332 l 1,11,-1
 251 596 l 1,12,-1
 30 596 l 1,13,-1
 51 705 l 1,14,-1
 272 705 l 1,15,-1
 321 933 l 1,16,-1
 438 933 l 1,17,-1
 389 705 l 1,18,-1
 645 705 l 1,19,-1
 694 933 l 1,20,-1
 811 933 l 1,21,-1
 762 705 l 1,22,-1
 983 705 l 1,23,-1
 961 596 l 1,24,-1
 740 596 l 1,25,-1
 683 332 l 1,26,-1
 904 332 l 1,27,-1
 880 222 l 1,0,-1
566 332 m 1,28,-1
 623 596 l 1,29,-1
 367 596 l 1,30,-1
 310 332 l 1,31,-1
 566 332 l 1,28,-1
EndSplineSet
EndChar

StartChar: dollar
Encoding: 36 36 5
Width: 1118
VWidth: 2048
Flags: W
LayerCount: 2
Fore
SplineSet
295 -16 m 1,0,1
 213 -6 213 -6 150.5 25.5 c 128,-1,2
 88 57 88 57 48 104.5 c 128,-1,3
 8 152 8 152 -10.5 213 c 128,-1,4
 -29 274 -29 274 -27 342 c 1,5,-1
 109 375 l 1,6,7
 111 274 111 274 159 199.5 c 128,-1,8
 207 125 207 125 319 104 c 1,9,-1
 432 631 l 1,10,11
 354 662 354 662 296 694.5 c 128,-1,12
 238 727 238 727 201 769 c 128,-1,13
 164 811 164 811 151.5 865.5 c 128,-1,14
 139 920 139 920 156 993 c 0,15,16
 168 1057 168 1057 205 1113 c 128,-1,17
 242 1169 242 1169 296 1214.5 c 128,-1,18
 350 1260 350 1260 422 1288.5 c 128,-1,19
 494 1317 494 1317 580 1327 c 1,20,-1
 614 1491 l 1,21,-1
 752 1491 l 1,22,-1
 717 1327 l 1,23,24
 791 1317 791 1317 847 1283 c 128,-1,25
 903 1249 903 1249 939 1200 c 128,-1,26
 975 1151 975 1151 990.5 1091.5 c 128,-1,27
 1006 1032 1006 1032 997 971 c 1,28,-1
 850 946 l 1,29,30
 856 1034 856 1034 819 1107 c 128,-1,31
 782 1180 782 1180 690 1200 c 1,32,-1
 590 729 l 1,33,34
 758 662 758 662 830.5 574.5 c 128,-1,35
 903 487 903 487 872 340 c 0,36,37
 858 272 858 272 820 212 c 128,-1,38
 782 152 782 152 725 104.5 c 128,-1,39
 668 57 668 57 594 24.5 c 128,-1,40
 520 -8 520 -8 432 -16 c 1,41,-1
 395 -186 l 1,42,-1
 258 -186 l 1,43,-1
 295 -16 l 1,0,1
721 328 m 1,44,45
 737 414 737 414 696 474.5 c 128,-1,46
 655 535 655 535 559 582 c 1,47,-1
 457 104 l 1,48,49
 578 121 578 121 639 183.5 c 128,-1,50
 700 246 700 246 721 328 c 1,44,45
297 995 m 0,51,52
 281 918 281 918 327 866.5 c 128,-1,53
 373 815 373 815 463 776 c 1,54,-1
 553 1202 l 1,55,56
 496 1194 496 1194 451 1172.5 c 128,-1,57
 406 1151 406 1151 374 1122.5 c 128,-1,58
 342 1094 342 1094 322.5 1061 c 128,-1,59
 303 1028 303 1028 297 995 c 0,51,52
EndSplineSet
EndChar

StartChar: percent
Encoding: 37 37 6
Width: 1118
VWidth: 2048
Flags: W
LayerCount: 2
Fore
SplineSet
610 1073 m 0,0,1
 600 1022 600 1022 570.5 976 c 128,-1,2
 541 930 541 930 499 896 c 128,-1,3
 457 862 457 862 406.5 841.5 c 128,-1,4
 356 821 356 821 305 821 c 256,5,6
 254 821 254 821 212 841.5 c 128,-1,7
 170 862 170 862 143.5 896 c 128,-1,8
 117 930 117 930 107.5 976 c 128,-1,9
 98 1022 98 1022 109 1073 c 0,10,11
 119 1124 119 1124 148.5 1171.5 c 128,-1,12
 178 1219 178 1219 219 1252.5 c 128,-1,13
 260 1286 260 1286 310 1306.5 c 128,-1,14
 360 1327 360 1327 412 1327 c 0,15,16
 463 1327 463 1327 505 1306.5 c 128,-1,17
 547 1286 547 1286 574.5 1252.5 c 128,-1,18
 602 1219 602 1219 611.5 1171.5 c 128,-1,19
 621 1124 621 1124 610 1073 c 0,0,1
1102 1272 m 1,20,-1
 -8 -27 l 1,21,-1
 -90 33 l 1,22,-1
 1024 1335 l 1,23,-1
 1102 1272 l 1,20,-1
909 229 m 0,24,25
 899 176 899 176 868.5 131 c 128,-1,26
 838 86 838 86 797 51 c 128,-1,27
 756 16 756 16 704.5 -3.5 c 128,-1,28
 653 -23 653 -23 602 -23 c 256,29,30
 551 -23 551 -23 509 -3.5 c 128,-1,31
 467 16 467 16 440.5 50 c 128,-1,32
 414 84 414 84 403.5 130 c 128,-1,33
 393 176 393 176 403 229 c 0,34,35
 416 281 416 281 445.5 327 c 128,-1,36
 475 373 475 373 516 406.5 c 128,-1,37
 557 440 557 440 607 459.5 c 128,-1,38
 657 479 657 479 709 479 c 0,39,40
 760 479 760 479 802 459.5 c 128,-1,41
 844 440 844 440 871.5 406.5 c 128,-1,42
 899 373 899 373 910.5 327 c 128,-1,43
 922 281 922 281 909 229 c 0,24,25
508 1073 m 0,44,45
 520 1137 520 1137 487.5 1181 c 128,-1,46
 455 1225 455 1225 391 1225 c 0,47,48
 328 1225 328 1225 274.5 1181 c 128,-1,49
 221 1137 221 1137 209 1073 c 0,50,51
 195 1010 195 1010 228.5 966 c 128,-1,52
 262 922 262 922 326 922 c 0,53,54
 389 922 389 922 441.5 966 c 128,-1,55
 494 1010 494 1010 508 1073 c 0,44,45
807 229 m 0,56,57
 821 293 821 293 786.5 336 c 128,-1,58
 752 379 752 379 688 379 c 0,59,60
 625 379 625 379 572.5 336 c 128,-1,61
 520 293 520 293 506 229 c 0,62,63
 494 166 494 166 527.5 122 c 128,-1,64
 561 78 561 78 625 78 c 0,65,66
 688 78 688 78 741.5 122 c 128,-1,67
 795 166 795 166 807 229 c 0,56,57
EndSplineSet
EndChar

StartChar: ampersand
Encoding: 38 38 7
Width: 1118
VWidth: 2048
Flags: W
LayerCount: 2
Fore
SplineSet
977 565 m 1,0,1
 940 479 940 479 881.5 392 c 128,-1,2
 823 305 823 305 748 227 c 1,3,-1
 874 80 l 1,4,-1
 758 -27 l 1,5,-1
 633 127 l 1,6,7
 545 61 545 61 445.5 19 c 128,-1,8
 346 -23 346 -23 242 -23 c 0,9,10
 166 -23 166 -23 104.5 5 c 128,-1,11
 43 33 43 33 3 81 c 128,-1,12
 -37 129 -37 129 -53.5 193.5 c 128,-1,13
 -70 258 -70 258 -53 334 c 0,14,15
 -39 397 -39 397 -14.5 449.5 c 128,-1,16
 10 502 10 502 42 544 c 128,-1,17
 74 586 74 586 113 619.5 c 128,-1,18
 152 653 152 653 195 682 c 1,19,20
 150 760 150 760 132.5 836.5 c 128,-1,21
 115 913 115 913 131 991 c 0,22,23
 164 1145 164 1145 272.5 1236 c 128,-1,24
 381 1327 381 1327 530 1327 c 0,25,26
 598 1327 598 1327 653.5 1306.5 c 128,-1,27
 709 1286 709 1286 744.5 1248 c 128,-1,28
 780 1210 780 1210 793.5 1156 c 128,-1,29
 807 1102 807 1102 793 1032 c 0,30,31
 776 954 776 954 733 899 c 128,-1,32
 690 844 690 844 634 802 c 128,-1,33
 578 760 578 760 511 726 c 128,-1,34
 444 692 444 692 381 655 c 1,35,-1
 668 317 l 1,36,37
 729 383 729 383 775 455.5 c 128,-1,38
 821 528 821 528 854 598 c 1,39,-1
 977 565 l 1,0,1
270 109 m 0,40,41
 348 109 348 109 422 138.5 c 128,-1,42
 496 168 496 168 559 217 c 1,43,-1
 287 553 l 1,44,-1
 262 582 l 1,45,46
 201 537 201 537 157 478.5 c 128,-1,47
 113 420 113 420 94 334 c 0,48,49
 74 238 74 238 123 173.5 c 128,-1,50
 172 109 172 109 270 109 c 0,40,41
272 991 m 0,51,52
 262 944 262 944 267 884.5 c 128,-1,53
 272 825 272 825 313 750 c 1,54,55
 371 780 371 780 427 809 c 128,-1,56
 483 838 483 838 529 870.5 c 128,-1,57
 575 903 575 903 608 943 c 128,-1,58
 641 983 641 983 651 1036 c 0,59,60
 668 1114 668 1114 625 1159 c 128,-1,61
 582 1204 582 1204 504 1204 c 0,62,63
 461 1204 461 1204 423 1186.5 c 128,-1,64
 385 1169 385 1169 354.5 1139.5 c 128,-1,65
 324 1110 324 1110 303.5 1071 c 128,-1,66
 283 1032 283 1032 272 991 c 0,51,52
EndSplineSet
EndChar

StartChar: quotesingle
Encoding: 39 39 8
Width: 1118
VWidth: 2048
Flags: W
LayerCount: 2
Fore
SplineSet
737 1305 m 1,0,-1
 594 836 l 1,1,-1
 492 836 l 1,2,-1
 551 1305 l 1,3,-1
 737 1305 l 1,0,-1
EndSplineSet
EndChar

StartChar: parenleft
Encoding: 40 40 9
Width: 1118
VWidth: 2048
Flags: W
LayerCount: 2
Fore
SplineSet
455 -371 m 1,0,1
 367 -287 367 -287 306.5 -180.5 c 128,-1,2
 246 -74 246 -74 215 47 c 128,-1,3
 184 168 184 168 182 300 c 128,-1,4
 180 432 180 432 209 567 c 256,5,6
 238 702 238 702 296 833.5 c 128,-1,7
 354 965 354 965 436 1085.5 c 128,-1,8
 518 1206 518 1206 623.5 1312.5 c 128,-1,9
 729 1419 729 1419 854 1503 c 1,10,-1
 905 1413 l 1,11,12
 795 1337 795 1337 699.5 1241 c 128,-1,13
 604 1145 604 1145 530.5 1035.5 c 128,-1,14
 457 926 457 926 404.5 807 c 128,-1,15
 352 688 352 688 326 567 c 0,16,17
 301 444 301 444 302 325.5 c 128,-1,18
 303 207 303 207 330.5 98.5 c 128,-1,19
 358 -10 358 -10 411.5 -107.5 c 128,-1,20
 465 -205 465 -205 545 -281 c 1,21,-1
 455 -371 l 1,0,1
EndSplineSet
EndChar

StartChar: parenright
Encoding: 41 41 10
Width: 1118
VWidth: 2048
Flags: W
LayerCount: 2
Fore
SplineSet
768 565 m 256,0,1
 739 430 739 430 682 299 c 128,-1,2
 625 168 625 168 542 47 c 128,-1,3
 459 -74 459 -74 353.5 -180.5 c 128,-1,4
 248 -287 248 -287 123 -371 c 1,5,-1
 70 -281 l 1,6,7
 180 -205 180 -205 275.5 -108.5 c 128,-1,8
 371 -12 371 -12 446.5 97.5 c 128,-1,9
 522 207 522 207 574.5 325.5 c 128,-1,10
 627 444 627 444 651 565 c 0,11,12
 678 686 678 686 677 806 c 128,-1,13
 676 926 676 926 646 1035.5 c 128,-1,14
 616 1145 616 1145 562 1241 c 128,-1,15
 508 1337 508 1337 430 1413 c 1,16,-1
 522 1503 l 1,17,18
 610 1419 610 1419 670.5 1312.5 c 128,-1,19
 731 1206 731 1206 763 1085.5 c 128,-1,20
 795 965 795 965 796 832.5 c 128,-1,21
 797 700 797 700 768 565 c 256,0,1
EndSplineSet
EndChar

StartChar: asterisk
Encoding: 42 42 11
Width: 1118
VWidth: 2048
Flags: W
LayerCount: 2
Fore
SplineSet
938 652 m 1,0,-1
 557 468 l 1,1,-1
 858 279 l 1,2,-1
 782 185 l 1,3,-1
 493 388 l 1,4,-1
 426 1 l 1,5,-1
 309 1 l 1,6,-1
 405 388 l 1,7,-1
 31 185 l 1,8,-1
 -4 279 l 1,9,-1
 379 468 l 1,10,-1
 76 652 l 1,11,-1
 151 748 l 1,12,-1
 440 543 l 1,13,-1
 508 933 l 1,14,-1
 624 933 l 1,15,-1
 528 543 l 1,16,-1
 903 748 l 1,17,-1
 938 652 l 1,0,-1
EndSplineSet
EndChar

StartChar: plus
Encoding: 43 43 12
Width: 1118
VWidth: 2048
Flags: W
LayerCount: 2
Fore
SplineSet
922 420 m 1,0,-1
 514 420 l 1,1,-1
 428 13 l 1,2,-1
 311 13 l 1,3,-1
 397 420 l 1,4,-1
 -10 420 l 1,5,-1
 16 537 l 1,6,-1
 424 537 l 1,7,-1
 510 944 l 1,8,-1
 627 944 l 1,9,-1
 541 537 l 1,10,-1
 948 537 l 1,11,-1
 922 420 l 1,0,-1
EndSplineSet
EndChar

StartChar: comma
Encoding: 44 44 13
Width: 1118
VWidth: 2048
Flags: W
LayerCount: 2
Fore
SplineSet
512 186 m 1,0,-1
 119 -373 l 1,1,-1
 22 -373 l 1,2,-1
 328 186 l 1,3,-1
 512 186 l 1,0,-1
EndSplineSet
EndChar

StartChar: hyphen
Encoding: 45 45 14
Width: 1118
VWidth: 2048
Flags: W
LayerCount: 2
Fore
SplineSet
922 420 m 1,0,-1
 -10 420 l 1,1,-1
 16 537 l 1,2,-1
 948 537 l 1,3,-1
 922 420 l 1,0,-1
EndSplineSet
EndChar

StartChar: period
Encoding: 46 46 15
Width: 1118
VWidth: 2048
Flags: W
LayerCount: 2
Fore
SplineSet
461 0 m 1,0,-1
 274 0 l 1,1,-1
 313 186 l 1,2,-1
 500 186 l 1,3,-1
 461 0 l 1,0,-1
EndSplineSet
EndChar

StartChar: slash
Encoding: 47 47 16
Width: 1118
VWidth: 2048
Flags: W
LayerCount: 2
Fore
SplineSet
1083 1303 m 1,0,-1
 -10 -240 l 1,1,-1
 -98 -188 l 1,2,-1
 995 1354 l 1,3,-1
 1083 1303 l 1,0,-1
EndSplineSet
EndChar

StartChar: zero
Encoding: 48 48 17
Width: 1118
VWidth: 2048
Flags: W
LayerCount: 2
Fore
SplineSet
143 651 m 0,0,1
 113 506 113 506 121 379 c 1,2,-1
 868 1024 l 1,3,4
 840 1114 840 1114 779.5 1162 c 128,-1,5
 719 1210 719 1210 625 1210 c 0,6,7
 449 1210 449 1210 324 1060.5 c 128,-1,8
 199 911 199 911 143 651 c 0,0,1
143 268 m 1,9,10
 205 92 205 92 387 92 c 0,11,12
 559 92 559 92 686 241.5 c 128,-1,13
 813 391 813 391 868 651 c 0,14,15
 885 723 885 723 889 787.5 c 128,-1,16
 893 852 893 852 889 911 c 1,17,-1
 143 268 l 1,9,10
6 651 m 256,18,19
 35 782 35 782 88 904 c 128,-1,20
 141 1026 141 1026 221 1120 c 128,-1,21
 301 1214 301 1214 407.5 1270.5 c 128,-1,22
 514 1327 514 1327 649 1327 c 256,23,24
 784 1327 784 1327 868 1270.5 c 128,-1,25
 952 1214 952 1214 992 1120 c 128,-1,26
 1032 1026 1032 1026 1033 904 c 128,-1,27
 1034 782 1034 782 1006 651 c 0,28,29
 977 520 977 520 924.5 398 c 128,-1,30
 872 276 872 276 793.5 183 c 128,-1,31
 715 90 715 90 607.5 33.5 c 128,-1,32
 500 -23 500 -23 362 -23 c 0,33,34
 225 -23 225 -23 142 33.5 c 128,-1,35
 59 90 59 90 19.5 183 c 128,-1,36
 -20 276 -20 276 -21.5 398 c 128,-1,37
 -23 520 -23 520 6 651 c 256,18,19
EndSplineSet
EndChar

StartChar: one
Encoding: 49 49 18
Width: 1118
VWidth: 2048
Flags: W
LayerCount: 2
Fore
SplineSet
647 0 m 1,0,-1
 88 0 l 1,1,-1
 113 117 l 1,2,-1
 324 117 l 1,3,-1
 512 1008 l 1,4,5
 485 967 485 967 436 920.5 c 128,-1,6
 387 874 387 874 325.5 835.5 c 128,-1,7
 264 797 264 797 195.5 771 c 128,-1,8
 127 745 127 745 59 745 c 1,9,-1
 90 887 l 1,10,11
 152 887 152 887 228.5 925 c 128,-1,12
 305 963 305 963 378 1022 c 128,-1,13
 451 1081 451 1081 505 1156 c 128,-1,14
 559 1231 559 1231 575 1305 c 1,15,-1
 713 1305 l 1,16,-1
 461 117 l 1,17,-1
 672 117 l 1,18,-1
 647 0 l 1,0,-1
EndSplineSet
EndChar

StartChar: two
Encoding: 50 50 19
Width: 1118
VWidth: 2048
Flags: W
LayerCount: 2
Fore
SplineSet
989 967 m 0,0,1
 977 913 977 913 958.5 870 c 128,-1,2
 940 827 940 827 906 783 c 128,-1,3
 872 739 872 739 822 690 c 128,-1,4
 772 641 772 641 696 578 c 2,5,-1
 145 117 l 1,6,-1
 696 117 l 1,7,-1
 750 373 l 1,8,-1
 866 373 l 1,9,-1
 788 0 l 1,10,-1
 -59 0 l 1,11,-1
 -35 121 l 1,12,-1
 584 637 l 2,13,14
 631 676 631 676 675 715 c 128,-1,15
 719 754 719 754 755 794 c 128,-1,16
 791 834 791 834 816.5 877 c 128,-1,17
 842 920 842 920 852 967 c 0,18,19
 877 1087 877 1087 810 1148.5 c 128,-1,20
 743 1210 743 1210 627 1210 c 0,21,22
 463 1210 463 1210 359.5 1119 c 128,-1,23
 256 1028 256 1028 219 856 c 1,24,-1
 92 856 l 1,25,26
 139 1077 139 1077 283.5 1202 c 128,-1,27
 428 1327 428 1327 651 1327 c 0,28,29
 735 1327 735 1327 804.5 1302.5 c 128,-1,30
 874 1278 874 1278 922.5 1232 c 128,-1,31
 971 1186 971 1186 989.5 1119.5 c 128,-1,32
 1008 1053 1008 1053 989 967 c 0,0,1
EndSplineSet
EndChar

StartChar: three
Encoding: 51 51 20
Width: 1118
VWidth: 2048
Flags: W
LayerCount: 2
Fore
SplineSet
897 360 m 0,0,1
 879 274 879 274 828.5 203.5 c 128,-1,2
 778 133 778 133 709.5 83 c 128,-1,3
 641 33 641 33 558 5 c 128,-1,4
 475 -23 475 -23 391 -23 c 0,5,6
 297 -23 297 -23 220 3 c 128,-1,7
 143 29 143 29 92 79 c 128,-1,8
 41 129 41 129 18.5 205 c 128,-1,9
 -4 281 -4 281 8 379 c 1,10,-1
 145 397 l 1,11,12
 125 246 125 246 202 170 c 128,-1,13
 279 94 279 94 416 94 c 0,14,15
 475 94 475 94 531.5 113.5 c 128,-1,16
 588 133 588 133 635 169 c 128,-1,17
 682 205 682 205 715 253 c 128,-1,18
 748 301 748 301 760 360 c 0,19,20
 776 440 776 440 762 490.5 c 128,-1,21
 748 541 748 541 706 569.5 c 128,-1,22
 664 598 664 598 595 608 c 128,-1,23
 526 618 526 618 434 618 c 1,24,-1
 459 735 l 1,25,26
 526 735 526 735 591.5 746.5 c 128,-1,27
 657 758 657 758 713.5 784.5 c 128,-1,28
 770 811 770 811 810 855 c 128,-1,29
 850 899 850 899 864 967 c 0,30,31
 887 1077 887 1077 828.5 1143.5 c 128,-1,32
 770 1210 770 1210 653 1210 c 0,33,34
 508 1210 508 1210 403.5 1133.5 c 128,-1,35
 299 1057 299 1057 264 893 c 1,36,-1
 135 893 l 1,37,38
 158 995 158 995 208 1076 c 128,-1,39
 258 1157 258 1157 328.5 1212.5 c 128,-1,40
 399 1268 399 1268 488.5 1297.5 c 128,-1,41
 578 1327 578 1327 678 1327 c 0,42,43
 762 1327 762 1327 829.5 1302.5 c 128,-1,44
 897 1278 897 1278 942 1232 c 128,-1,45
 987 1186 987 1186 1003.5 1119.5 c 128,-1,46
 1020 1053 1020 1053 1001 967 c 0,47,48
 977 856 977 856 895 782.5 c 128,-1,49
 813 709 813 709 686 690 c 1,50,51
 754 680 754 680 800 650.5 c 128,-1,52
 846 621 846 621 871.5 575.5 c 128,-1,53
 897 530 897 530 903 475 c 128,-1,54
 909 420 909 420 897 360 c 0,0,1
EndSplineSet
EndChar

StartChar: four
Encoding: 52 52 21
Width: 1118
VWidth: 2048
Flags: W
LayerCount: 2
Fore
SplineSet
834 0 m 1,0,-1
 274 0 l 1,1,-1
 299 117 l 1,2,-1
 510 117 l 1,3,-1
 563 373 l 1,4,-1
 -20 373 l 1,5,-1
 6 492 l 1,6,-1
 725 1305 l 1,7,-1
 899 1305 l 1,8,-1
 727 492 l 1,9,-1
 938 492 l 1,10,-1
 911 373 l 1,11,-1
 700 373 l 1,12,-1
 647 117 l 1,13,-1
 858 117 l 1,14,-1
 834 0 l 1,0,-1
590 492 m 1,15,-1
 727 1143 l 1,16,-1
 152 492 l 1,17,-1
 590 492 l 1,15,-1
EndSplineSet
EndChar

StartChar: five
Encoding: 53 53 22
Width: 1118
VWidth: 2048
Flags: W
LayerCount: 2
Fore
SplineSet
932 438 m 0,0,1
 911 342 911 342 858 258 c 128,-1,2
 805 174 805 174 729 111.5 c 128,-1,3
 653 49 653 49 557 13 c 128,-1,4
 461 -23 461 -23 356 -23 c 0,5,6
 262 -23 262 -23 188.5 5 c 128,-1,7
 115 33 115 33 65.5 85 c 128,-1,8
 16 137 16 137 -5.5 213 c 128,-1,9
 -27 289 -27 289 -12 387 c 1,10,-1
 125 408 l 1,11,12
 117 340 117 340 130 281.5 c 128,-1,13
 143 223 143 223 176 182 c 128,-1,14
 209 141 209 141 261 117.5 c 128,-1,15
 313 94 313 94 381 94 c 0,16,17
 461 94 461 94 529.5 120.5 c 128,-1,18
 598 147 598 147 652.5 194.5 c 128,-1,19
 707 242 707 242 743.5 304.5 c 128,-1,20
 780 367 780 367 795 438 c 0,21,22
 811 512 811 512 801 575.5 c 128,-1,23
 791 639 791 639 757 685 c 128,-1,24
 723 731 723 731 666.5 757.5 c 128,-1,25
 610 784 610 784 535 784 c 0,26,27
 455 784 455 784 374 750.5 c 128,-1,28
 293 717 293 717 225 653 c 1,29,-1
 88 653 l 1,30,-1
 227 1305 l 1,31,-1
 1044 1305 l 1,32,-1
 1020 1188 l 1,33,-1
 340 1188 l 1,34,-1
 252 780 l 1,35,36
 324 838 324 838 408 869.5 c 128,-1,37
 492 901 492 901 571 901 c 0,38,39
 672 901 672 901 748.5 868.5 c 128,-1,40
 825 836 825 836 874.5 776.5 c 128,-1,41
 924 717 924 717 939 631 c 128,-1,42
 954 545 954 545 932 438 c 0,0,1
EndSplineSet
EndChar

StartChar: six
Encoding: 54 54 23
Width: 1118
VWidth: 2048
Flags: W
LayerCount: 2
Fore
SplineSet
954 444 m 0,0,1
 930 336 930 336 876.5 250 c 128,-1,2
 823 164 823 164 746.5 103.5 c 128,-1,3
 670 43 670 43 575.5 10 c 128,-1,4
 481 -23 481 -23 381 -23 c 0,5,6
 242 -23 242 -23 160 33.5 c 128,-1,7
 78 90 78 90 40 183 c 128,-1,8
 2 276 2 276 2 398 c 128,-1,9
 2 520 2 520 31 651 c 0,10,11
 59 784 59 784 119.5 906 c 128,-1,12
 180 1028 180 1028 269 1122.5 c 128,-1,13
 358 1217 358 1217 473 1272 c 128,-1,14
 588 1327 588 1327 727 1327 c 0,15,16
 922 1327 922 1327 1022 1192 c 1,17,-1
 915 1112 l 1,18,19
 846 1210 846 1210 702 1210 c 0,20,21
 598 1210 598 1210 509 1170 c 128,-1,22
 420 1130 420 1130 351.5 1058.5 c 128,-1,23
 283 987 283 987 234.5 886.5 c 128,-1,24
 186 786 186 786 162 666 c 1,25,26
 186 717 186 717 234.5 762 c 128,-1,27
 283 807 283 807 341 839.5 c 128,-1,28
 399 872 399 872 462.5 891.5 c 128,-1,29
 526 911 526 911 586 911 c 0,30,31
 688 911 688 911 767 876.5 c 128,-1,32
 846 842 846 842 894 780.5 c 128,-1,33
 942 719 942 719 958.5 633 c 128,-1,34
 975 547 975 547 954 444 c 0,0,1
817 444 m 0,35,36
 831 518 831 518 823 582.5 c 128,-1,37
 815 647 815 647 782.5 694 c 128,-1,38
 750 741 750 741 694.5 768 c 128,-1,39
 639 795 639 795 561 795 c 0,40,41
 485 795 485 795 416.5 770 c 128,-1,42
 348 745 348 745 294 700 c 128,-1,43
 240 655 240 655 202 593.5 c 128,-1,44
 164 532 164 532 147 457 c 0,45,46
 131 383 131 383 138 317.5 c 128,-1,47
 145 252 145 252 176 202 c 128,-1,48
 207 152 207 152 263 123 c 128,-1,49
 319 94 319 94 406 94 c 0,50,51
 479 94 479 94 545.5 118.5 c 128,-1,52
 612 143 612 143 667.5 188 c 128,-1,53
 723 233 723 233 761 299 c 128,-1,54
 799 365 799 365 817 444 c 0,35,36
EndSplineSet
EndChar

StartChar: seven
Encoding: 55 55 24
Width: 1118
VWidth: 2048
Flags: W
LayerCount: 2
Fore
SplineSet
1071 1184 m 1,0,1
 922 1051 922 1051 820.5 922 c 128,-1,2
 719 793 719 793 649.5 652.5 c 128,-1,3
 580 512 580 512 530.5 352.5 c 128,-1,4
 481 193 481 193 440 0 c 1,5,-1
 297 0 l 1,6,7
 336 182 336 182 388 343 c 128,-1,8
 440 504 440 504 515 650.5 c 128,-1,9
 590 797 590 797 694.5 930 c 128,-1,10
 799 1063 799 1063 942 1188 c 1,11,-1
 319 1188 l 1,12,-1
 264 932 l 1,13,-1
 147 932 l 1,14,-1
 227 1305 l 1,15,-1
 1098 1305 l 1,16,-1
 1071 1184 l 1,0,1
EndSplineSet
EndChar

StartChar: eight
Encoding: 56 56 25
Width: 1118
VWidth: 2048
Flags: W
LayerCount: 2
Fore
SplineSet
922 367 m 0,0,1
 899 264 899 264 847 191.5 c 128,-1,2
 795 119 795 119 720 71 c 128,-1,3
 645 23 645 23 553 0 c 128,-1,4
 461 -23 461 -23 362 -23 c 0,5,6
 262 -23 262 -23 181 0 c 128,-1,7
 100 23 100 23 46 71 c 128,-1,8
 -8 119 -8 119 -29.5 191.5 c 128,-1,9
 -51 264 -51 264 -29 367 c 0,10,11
 -18 420 -18 420 12.5 474 c 128,-1,12
 43 528 43 528 90 574.5 c 128,-1,13
 137 621 137 621 195.5 651.5 c 128,-1,14
 254 682 254 682 319 690 c 1,15,16
 266 696 266 696 229.5 726 c 128,-1,17
 193 756 193 756 171.5 796 c 128,-1,18
 150 836 150 836 143.5 883 c 128,-1,19
 137 930 137 930 145 973 c 0,20,21
 166 1061 166 1061 214 1127.5 c 128,-1,22
 262 1194 262 1194 331.5 1238 c 128,-1,23
 401 1282 401 1282 483 1304.5 c 128,-1,24
 565 1327 565 1327 649 1327 c 256,25,26
 733 1327 733 1327 807 1304.5 c 128,-1,27
 881 1282 881 1282 930 1238 c 128,-1,28
 979 1194 979 1194 1000.5 1127.5 c 128,-1,29
 1022 1061 1022 1061 1001 973 c 0,30,31
 993 930 993 930 966.5 883 c 128,-1,32
 940 836 940 836 902 796 c 128,-1,33
 864 756 864 756 814 726 c 128,-1,34
 764 696 764 696 707 690 c 1,35,36
 768 682 768 682 814 651.5 c 128,-1,37
 860 621 860 621 886.5 574.5 c 128,-1,38
 913 528 913 528 922.5 474 c 128,-1,39
 932 420 932 420 922 367 c 0,0,1
864 973 m 0,40,41
 889 1083 889 1083 824.5 1146.5 c 128,-1,42
 760 1210 760 1210 625 1210 c 0,43,44
 489 1210 489 1210 398 1146.5 c 128,-1,45
 307 1083 307 1083 283 973 c 0,46,47
 262 870 262 870 322.5 809 c 128,-1,48
 383 748 383 748 526 748 c 0,49,50
 670 748 670 748 757 809 c 128,-1,51
 844 870 844 870 864 973 c 0,40,41
784 367 m 0,52,53
 799 438 799 438 781.5 488.5 c 128,-1,54
 764 539 764 539 724 570.5 c 128,-1,55
 684 602 684 602 626.5 616.5 c 128,-1,56
 569 631 569 631 502 631 c 0,57,58
 434 631 434 631 370.5 616.5 c 128,-1,59
 307 602 307 602 253 570.5 c 128,-1,60
 199 539 199 539 161 488.5 c 128,-1,61
 123 438 123 438 109 367 c 0,62,63
 92 297 92 297 109.5 246 c 128,-1,64
 127 195 127 195 167 161 c 128,-1,65
 207 127 207 127 263 110.5 c 128,-1,66
 319 94 319 94 387 94 c 256,67,68
 455 94 455 94 519.5 110.5 c 128,-1,69
 584 127 584 127 638 161 c 128,-1,70
 692 195 692 195 730 246 c 128,-1,71
 768 297 768 297 784 367 c 0,52,53
EndSplineSet
EndChar

StartChar: nine
Encoding: 57 57 26
Width: 1118
VWidth: 2048
Flags: W
LayerCount: 2
Fore
SplineSet
61 860 m 0,0,1
 84 969 84 969 138.5 1055 c 128,-1,2
 193 1141 193 1141 268.5 1201.5 c 128,-1,3
 344 1262 344 1262 438 1294.5 c 128,-1,4
 532 1327 532 1327 633 1327 c 0,5,6
 770 1327 770 1327 854 1270.5 c 128,-1,7
 938 1214 938 1214 975 1120 c 128,-1,8
 1012 1026 1012 1026 1012 905 c 128,-1,9
 1012 784 1012 784 983 653 c 0,10,11
 954 520 954 520 894 398 c 128,-1,12
 834 276 834 276 745.5 182 c 128,-1,13
 657 88 657 88 540.5 32.5 c 128,-1,14
 424 -23 424 -23 287 -23 c 0,15,16
 92 -23 92 -23 -8 113 c 1,17,-1
 98 193 l 1,18,19
 133 143 133 143 187.5 118.5 c 128,-1,20
 242 94 242 94 311 94 c 0,21,22
 416 94 416 94 505 134 c 128,-1,23
 594 174 594 174 662.5 245.5 c 128,-1,24
 731 317 731 317 779 417.5 c 128,-1,25
 827 518 827 518 854 639 c 1,26,27
 827 588 827 588 779 543 c 128,-1,28
 731 498 731 498 672.5 465 c 128,-1,29
 614 432 614 432 549.5 412.5 c 128,-1,30
 485 393 485 393 428 393 c 0,31,32
 326 393 326 393 248 428 c 128,-1,33
 170 463 170 463 121 524.5 c 128,-1,34
 72 586 72 586 55.5 672 c 128,-1,35
 39 758 39 758 61 860 c 0,0,1
199 860 m 0,36,37
 182 786 182 786 191.5 721.5 c 128,-1,38
 201 657 201 657 232.5 610 c 128,-1,39
 264 563 264 563 319.5 536.5 c 128,-1,40
 375 510 375 510 453 510 c 0,41,42
 528 510 528 510 598 534.5 c 128,-1,43
 668 559 668 559 722 603 c 128,-1,44
 776 647 776 647 814 709.5 c 128,-1,45
 852 772 852 772 866 848 c 0,46,47
 883 922 883 922 876.5 987.5 c 128,-1,48
 870 1053 870 1053 838.5 1103 c 128,-1,49
 807 1153 807 1153 750.5 1181.5 c 128,-1,50
 694 1210 694 1210 608 1210 c 0,51,52
 535 1210 535 1210 468 1185.5 c 128,-1,53
 401 1161 401 1161 347 1116 c 128,-1,54
 293 1071 293 1071 254 1005.5 c 128,-1,55
 215 940 215 940 199 860 c 0,36,37
EndSplineSet
EndChar

StartChar: colon
Encoding: 58 58 27
Width: 1118
VWidth: 2048
Flags: W
LayerCount: 2
Fore
SplineSet
618 745 m 1,0,-1
 432 745 l 1,1,-1
 471 932 l 1,2,-1
 657 932 l 1,3,-1
 618 745 l 1,0,-1
461 0 m 1,4,-1
 274 0 l 1,5,-1
 313 186 l 1,6,-1
 500 186 l 1,7,-1
 461 0 l 1,4,-1
EndSplineSet
EndChar

StartChar: semicolon
Encoding: 59 59 28
Width: 1118
VWidth: 2048
Flags: W
LayerCount: 2
Fore
SplineSet
618 745 m 1,0,-1
 432 745 l 1,1,-1
 471 932 l 1,2,-1
 657 932 l 1,3,-1
 618 745 l 1,0,-1
551 186 m 1,4,-1
 158 -373 l 1,5,-1
 61 -373 l 1,6,-1
 367 186 l 1,7,-1
 551 186 l 1,4,-1
EndSplineSet
EndChar

StartChar: less
Encoding: 60 60 29
Width: 1118
VWidth: 2048
Flags: W
LayerCount: 2
Fore
SplineSet
700 45 m 1,0,-1
 604 -34 l 1,1,-1
 201 478 l 1,2,-1
 823 990 l 1,3,-1
 883 910 l 1,4,-1
 358 478 l 1,5,-1
 700 45 l 1,0,-1
EndSplineSet
EndChar

StartChar: equal
Encoding: 61 61 30
Width: 1118
VWidth: 2048
Flags: W
LayerCount: 2
Fore
SplineSet
969 641 m 1,0,-1
 37 641 l 1,1,-1
 61 758 l 1,2,-1
 993 758 l 1,3,-1
 969 641 l 1,0,-1
874 199 m 1,4,-1
 -57 199 l 1,5,-1
 -31 316 l 1,6,-1
 901 316 l 1,7,-1
 874 199 l 1,4,-1
EndSplineSet
EndChar

StartChar: greater
Encoding: 62 62 31
Width: 1118
VWidth: 2048
Flags: W
LayerCount: 2
Fore
SplineSet
735 478 m 1,0,-1
 115 -34 l 1,1,-1
 55 45 l 1,2,-1
 577 478 l 1,3,-1
 237 910 l 1,4,-1
 334 990 l 1,5,-1
 735 478 l 1,0,-1
EndSplineSet
EndChar

StartChar: question
Encoding: 63 63 32
Width: 1118
VWidth: 2048
Flags: W
LayerCount: 2
Fore
SplineSet
461 0 m 1,0,-1
 274 0 l 1,1,-1
 313 186 l 1,2,-1
 500 186 l 1,3,-1
 461 0 l 1,0,-1
1028 1022 m 0,4,5
 1010 944 1010 944 969 885.5 c 128,-1,6
 928 827 928 827 874.5 778 c 128,-1,7
 821 729 821 729 760.5 686 c 128,-1,8
 700 643 700 643 648 597 c 128,-1,9
 596 551 596 551 555 496.5 c 128,-1,10
 514 442 514 442 500 373 c 1,11,-1
 354 373 l 1,12,13
 371 451 371 451 414 512 c 128,-1,14
 457 573 457 573 511 626.5 c 128,-1,15
 565 680 565 680 627.5 727 c 128,-1,16
 690 774 690 774 742.5 820 c 128,-1,17
 795 866 795 866 836 915.5 c 128,-1,18
 877 965 877 965 889 1022 c 0,19,20
 907 1110 907 1110 863 1160 c 128,-1,21
 819 1210 819 1210 717 1210 c 0,22,23
 653 1210 653 1210 602 1189.5 c 128,-1,24
 551 1169 551 1169 511 1134.5 c 128,-1,25
 471 1100 471 1100 441.5 1052 c 128,-1,26
 412 1004 412 1004 393 946 c 1,27,-1
 274 965 l 1,28,29
 328 1133 328 1133 445.5 1230 c 128,-1,30
 563 1327 563 1327 739 1327 c 0,31,32
 905 1327 905 1327 981 1242 c 128,-1,33
 1057 1157 1057 1157 1028 1022 c 0,4,5
EndSplineSet
EndChar

StartChar: at
Encoding: 64 64 33
Width: 1118
VWidth: 2048
Flags: W
LayerCount: 2
Fore
SplineSet
1013 684 m 0,0,1
 998 616 998 616 972.5 546 c 128,-1,2
 947 476 947 476 908 419.5 c 128,-1,3
 869 363 869 363 816 327 c 128,-1,4
 763 291 763 291 696 291 c 0,5,6
 667 291 667 291 642.5 301 c 128,-1,7
 618 311 618 311 601 330 c 128,-1,8
 584 349 584 349 577 374.5 c 128,-1,9
 570 400 570 400 576 432 c 2,10,-1
 582 460 l 1,11,12
 544 385 544 385 487 338 c 128,-1,13
 430 291 430 291 368 291 c 0,14,15
 302 291 302 291 264.5 320 c 128,-1,16
 227 349 227 349 210.5 397 c 128,-1,17
 194 445 194 445 196 506 c 128,-1,18
 198 567 198 567 212 631 c 0,19,20
 227 705 227 705 258.5 772.5 c 128,-1,21
 290 840 290 840 335 891.5 c 128,-1,22
 380 943 380 943 437 973.5 c 128,-1,23
 494 1004 494 1004 561 1004 c 0,24,25
 596 1004 596 1004 631 986.5 c 128,-1,26
 666 969 666 969 683 932 c 1,27,-1
 694 985 l 1,28,-1
 825 985 l 1,29,-1
 713 460 l 2,30,31
 706 428 706 428 715.5 414 c 128,-1,32
 725 400 725 400 748 400 c 0,33,34
 776 400 776 400 801.5 427 c 128,-1,35
 827 454 827 454 848 495.5 c 128,-1,36
 869 537 869 537 885 587 c 128,-1,37
 901 637 901 637 911 684 c 0,38,39
 926 753 926 753 932 821.5 c 128,-1,40
 938 890 938 890 931.5 951.5 c 128,-1,41
 925 1013 925 1013 905 1065.5 c 128,-1,42
 885 1118 885 1118 849 1156.5 c 128,-1,43
 813 1195 813 1195 759 1216.5 c 128,-1,44
 705 1238 705 1238 631 1238 c 0,45,46
 518 1238 518 1238 431.5 1190 c 128,-1,47
 345 1142 345 1142 281.5 1061 c 128,-1,48
 218 980 218 980 175.5 874 c 128,-1,49
 133 768 133 768 108 651 c 0,50,51
 83 536 83 536 81 430.5 c 128,-1,52
 79 325 79 325 108 244 c 128,-1,53
 137 163 137 163 203.5 115 c 128,-1,54
 270 67 270 67 382 67 c 0,55,56
 464 67 464 67 535 96 c 128,-1,57
 606 125 606 125 669 174 c 1,58,-1
 714 106 l 1,59,60
 559 -23 559 -23 363 -23 c 0,61,62
 271 -23 271 -23 203.5 2.5 c 128,-1,63
 136 28 136 28 90.5 74 c 128,-1,64
 45 120 45 120 19 183 c 128,-1,65
 -7 246 -7 246 -16 321 c 128,-1,66
 -25 396 -25 396 -19 480 c 128,-1,67
 -13 564 -13 564 6 651 c 0,68,69
 25 740 25 740 55 824.5 c 128,-1,70
 85 909 85 909 126 984 c 128,-1,71
 167 1059 167 1059 219.5 1122 c 128,-1,72
 272 1185 272 1185 338 1230.5 c 128,-1,73
 404 1276 404 1276 481.5 1301.5 c 128,-1,74
 559 1327 559 1327 650 1327 c 0,75,76
 785 1327 785 1327 868.5 1271.5 c 128,-1,77
 952 1216 952 1216 992.5 1125 c 128,-1,78
 1033 1034 1033 1034 1035.5 919 c 128,-1,79
 1038 804 1038 804 1013 684 c 0,0,1
656 808 m 1,80,81
 644 857 644 857 616.5 876.5 c 128,-1,82
 589 896 589 896 551 896 c 256,83,84
 513 896 513 896 480.5 873.5 c 128,-1,85
 448 851 448 851 422 813.5 c 128,-1,86
 396 776 396 776 377.5 728.5 c 128,-1,87
 359 681 359 681 349 632 c 0,88,89
 326 523 326 523 342.5 468 c 128,-1,90
 359 413 359 413 411 413 c 0,91,92
 448 413 448 413 483 435.5 c 128,-1,93
 518 458 518 458 546.5 494.5 c 128,-1,94
 575 531 575 531 596 576.5 c 128,-1,95
 617 622 617 622 626 667 c 2,96,-1
 656 808 l 1,80,81
EndSplineSet
EndChar

StartChar: A
Encoding: 65 65 34
Width: 1118
VWidth: 2048
Flags: W
LayerCount: 2
Fore
SplineSet
897 0 m 1,0,-1
 750 0 l 1,1,-1
 705 373 l 1,2,-1
 188 373 l 1,3,-1
 -10 0 l 1,4,-1
 -158 0 l 1,5,-1
 553 1305 l 1,6,-1
 739 1305 l 1,7,-1
 897 0 l 1,0,-1
692 494 m 1,8,-1
 616 1167 l 1,9,-1
 254 494 l 1,10,-1
 692 494 l 1,8,-1
EndSplineSet
EndChar

StartChar: B
Encoding: 66 66 35
Width: 1118
VWidth: 2048
Flags: W
LayerCount: 2
Fore
SplineSet
909 373 m 0,0,1
 870 186 870 186 730 93 c 128,-1,2
 590 0 590 0 367 0 c 2,3,-1
 -49 0 l 1,4,-1
 227 1305 l 1,5,-1
 621 1305 l 2,6,7
 702 1305 702 1305 778 1291.5 c 128,-1,8
 854 1278 854 1278 908.5 1241 c 128,-1,9
 963 1204 963 1204 988.5 1138.5 c 128,-1,10
 1014 1073 1014 1073 991 967 c 0,11,12
 948 764 948 764 729 690 c 1,13,14
 961 614 961 614 909 373 c 0,0,1
854 967 m 0,15,16
 868 1036 868 1036 848.5 1080 c 128,-1,17
 829 1124 829 1124 789.5 1147.5 c 128,-1,18
 750 1171 750 1171 697.5 1179.5 c 128,-1,19
 645 1188 645 1188 596 1188 c 2,20,-1
 340 1188 l 1,21,-1
 246 745 l 1,22,-1
 502 745 l 2,23,24
 557 745 557 745 613.5 753.5 c 128,-1,25
 670 762 670 762 718 786.5 c 128,-1,26
 766 811 766 811 803 854 c 128,-1,27
 840 897 840 897 854 967 c 0,15,16
772 373 m 0,28,29
 801 508 801 508 727 569.5 c 128,-1,30
 653 631 653 631 500 631 c 2,31,-1
 221 631 l 1,32,-1
 113 117 l 1,33,-1
 391 117 l 2,34,35
 545 117 545 117 645 181.5 c 128,-1,36
 745 246 745 246 772 373 c 0,28,29
EndSplineSet
EndChar

StartChar: C
Encoding: 67 67 36
Width: 1118
VWidth: 2048
Flags: W
LayerCount: 2
Fore
SplineSet
913 342 m 1,0,1
 827 174 827 174 690 75.5 c 128,-1,2
 553 -23 553 -23 377 -23 c 0,3,4
 240 -23 240 -23 157 33.5 c 128,-1,5
 74 90 74 90 33 183 c 128,-1,6
 -8 276 -8 276 -9 398 c 128,-1,7
 -10 520 -10 520 18 651 c 0,8,9
 47 782 47 782 99.5 904 c 128,-1,10
 152 1026 152 1026 232.5 1120 c 128,-1,11
 313 1214 313 1214 419.5 1270.5 c 128,-1,12
 526 1327 526 1327 664 1327 c 0,13,14
 784 1327 784 1327 861 1284 c 128,-1,15
 938 1241 938 1241 961 1153 c 1,16,-1
 993 1305 l 1,17,-1
 1110 1305 l 1,18,-1
 1018 877 l 1,19,-1
 901 877 l 1,20,21
 918 946 918 946 903.5 1007.5 c 128,-1,22
 889 1069 889 1069 854 1114 c 128,-1,23
 819 1159 819 1159 763 1184.5 c 128,-1,24
 707 1210 707 1210 639 1210 c 0,25,26
 532 1210 532 1210 452.5 1160 c 128,-1,27
 373 1110 373 1110 313.5 1029 c 128,-1,28
 254 948 254 948 215 849 c 128,-1,29
 176 750 176 750 156 651 c 0,30,31
 135 553 135 553 131 453.5 c 128,-1,32
 127 354 127 354 152.5 274.5 c 128,-1,33
 178 195 178 195 236.5 144.5 c 128,-1,34
 295 94 295 94 401 94 c 0,35,36
 645 94 645 94 805 389 c 1,37,-1
 913 342 l 1,0,1
EndSplineSet
EndChar

StartChar: D
Encoding: 68 68 37
Width: 1118
VWidth: 2048
Flags: W
LayerCount: 2
Fore
SplineSet
1014 651 m 0,0,1
 985 520 985 520 933 401.5 c 128,-1,2
 881 283 881 283 801 193.5 c 128,-1,3
 721 104 721 104 615.5 52 c 128,-1,4
 510 0 510 0 375 0 c 2,5,-1
 -49 0 l 1,6,-1
 227 1305 l 1,7,-1
 651 1305 l 2,8,9
 784 1305 784 1305 868 1251.5 c 128,-1,10
 952 1198 952 1198 993 1108 c 128,-1,11
 1034 1018 1034 1018 1038 900 c 128,-1,12
 1042 782 1042 782 1014 651 c 0,0,1
877 651 m 0,13,14
 932 907 932 907 865.5 1047.5 c 128,-1,15
 799 1188 799 1188 627 1188 c 2,16,-1
 340 1188 l 1,17,-1
 113 117 l 1,18,-1
 399 117 l 2,19,20
 571 117 571 117 697 256 c 128,-1,21
 823 395 823 395 877 651 c 0,13,14
EndSplineSet
EndChar

StartChar: E
Encoding: 69 69 38
Width: 1118
VWidth: 2048
Flags: W
LayerCount: 2
Fore
SplineSet
784 0 m 1,0,-1
 -49 0 l 1,1,-1
 227 1305 l 1,2,-1
 1061 1305 l 1,3,-1
 1036 1188 l 1,4,-1
 340 1188 l 1,5,-1
 240 721 l 1,6,-1
 754 721 l 1,7,-1
 729 604 l 1,8,-1
 215 604 l 1,9,-1
 113 117 l 1,10,-1
 809 117 l 1,11,-1
 784 0 l 1,0,-1
EndSplineSet
EndChar

StartChar: F
Encoding: 70 70 39
Width: 1118
VWidth: 2048
Flags: W
LayerCount: 2
Fore
SplineSet
1036 1188 m 1,0,-1
 340 1188 l 1,1,-1
 240 721 l 1,2,-1
 754 721 l 1,3,-1
 729 604 l 1,4,-1
 215 604 l 1,5,-1
 88 0 l 1,6,-1
 -49 0 l 1,7,-1
 227 1305 l 1,8,-1
 1061 1305 l 1,9,-1
 1036 1188 l 1,0,-1
EndSplineSet
EndChar

StartChar: G
Encoding: 71 71 40
Width: 1118
VWidth: 2048
Flags: W
LayerCount: 2
Fore
SplineSet
1022 649 m 2,0,1
 993 516 993 516 940 395 c 128,-1,2
 887 274 887 274 807 181 c 128,-1,3
 727 88 727 88 619.5 32.5 c 128,-1,4
 512 -23 512 -23 377 -23 c 0,5,6
 240 -23 240 -23 157 33.5 c 128,-1,7
 74 90 74 90 33 183 c 128,-1,8
 -8 276 -8 276 -9 398 c 128,-1,9
 -10 520 -10 520 18 651 c 0,10,11
 47 782 47 782 99.5 904 c 128,-1,12
 152 1026 152 1026 232.5 1120 c 128,-1,13
 313 1214 313 1214 419.5 1270.5 c 128,-1,14
 526 1327 526 1327 664 1327 c 0,15,16
 784 1327 784 1327 861 1284 c 128,-1,17
 938 1241 938 1241 961 1153 c 1,18,-1
 993 1305 l 1,19,-1
 1110 1305 l 1,20,-1
 1018 877 l 1,21,-1
 901 877 l 1,22,23
 918 948 918 948 904.5 1009.5 c 128,-1,24
 891 1071 891 1071 855 1115 c 128,-1,25
 819 1159 819 1159 763 1184.5 c 128,-1,26
 707 1210 707 1210 639 1210 c 0,27,28
 532 1210 532 1210 452.5 1160 c 128,-1,29
 373 1110 373 1110 313.5 1029 c 128,-1,30
 254 948 254 948 215 849 c 128,-1,31
 176 750 176 750 156 651 c 0,32,33
 135 553 135 553 131 453.5 c 128,-1,34
 127 354 127 354 152.5 274.5 c 128,-1,35
 178 195 178 195 236.5 144.5 c 128,-1,36
 295 94 295 94 401 94 c 0,37,38
 559 94 559 94 677 216 c 128,-1,39
 795 338 795 338 858 559 c 1,40,-1
 569 559 l 1,41,-1
 594 676 l 1,42,-1
 1028 676 l 1,43,-1
 1022 649 l 2,0,1
EndSplineSet
EndChar

StartChar: H
Encoding: 72 72 41
Width: 1118
VWidth: 2048
Flags: W
LayerCount: 2
Fore
SplineSet
784 0 m 1,0,-1
 647 0 l 1,1,-1
 774 604 l 1,2,-1
 215 604 l 1,3,-1
 88 0 l 1,4,-1
 -49 0 l 1,5,-1
 227 1305 l 1,6,-1
 365 1305 l 1,7,-1
 240 721 l 1,8,-1
 799 721 l 1,9,-1
 924 1305 l 1,10,-1
 1061 1305 l 1,11,-1
 784 0 l 1,0,-1
EndSplineSet
EndChar

StartChar: I
Encoding: 73 73 42
Width: 1118
VWidth: 2048
Flags: W
LayerCount: 2
Fore
SplineSet
647 0 m 1,0,-1
 88 0 l 1,1,-1
 113 117 l 1,2,-1
 324 117 l 1,3,-1
 551 1188 l 1,4,-1
 340 1188 l 1,5,-1
 365 1305 l 1,6,-1
 924 1305 l 1,7,-1
 899 1188 l 1,8,-1
 688 1188 l 1,9,-1
 461 117 l 1,10,-1
 672 117 l 1,11,-1
 647 0 l 1,0,-1
EndSplineSet
EndChar

StartChar: J
Encoding: 74 74 43
Width: 1118
VWidth: 2048
Flags: W
LayerCount: 2
Fore
SplineSet
889 498 m 2,0,1
 836 250 836 250 701.5 113.5 c 128,-1,2
 567 -23 567 -23 350 -23 c 0,3,4
 176 -23 176 -23 78 68.5 c 128,-1,5
 -20 160 -20 160 -29 342 c 1,6,-1
 100 387 l 1,7,8
 109 225 109 225 179.5 159.5 c 128,-1,9
 250 94 250 94 375 94 c 0,10,11
 467 94 467 94 532.5 131 c 128,-1,12
 598 168 598 168 641 225.5 c 128,-1,13
 684 283 684 283 710.5 354.5 c 128,-1,14
 737 426 737 426 752 498 c 2,15,-1
 924 1305 l 1,16,-1
 1061 1305 l 1,17,-1
 889 498 l 2,0,1
EndSplineSet
EndChar

StartChar: K
Encoding: 75 75 44
Width: 1118
VWidth: 2048
Flags: W
LayerCount: 2
Fore
SplineSet
827 0 m 1,0,-1
 659 0 l 1,1,-1
 360 639 l 1,2,-1
 190 485 l 1,3,-1
 88 0 l 1,4,-1
 -49 0 l 1,5,-1
 227 1305 l 1,6,-1
 365 1305 l 1,7,-1
 229 670 l 1,8,-1
 924 1305 l 1,9,-1
 1104 1305 l 1,10,-1
 471 735 l 1,11,-1
 827 0 l 1,0,-1
EndSplineSet
EndChar

StartChar: L
Encoding: 76 76 45
Width: 1118
VWidth: 2048
Flags: W
LayerCount: 2
Fore
SplineSet
784 0 m 1,0,-1
 -49 0 l 1,1,-1
 227 1305 l 1,2,-1
 365 1305 l 1,3,-1
 113 117 l 1,4,-1
 809 117 l 1,5,-1
 784 0 l 1,0,-1
EndSplineSet
EndChar

StartChar: M
Encoding: 77 77 46
Width: 1118
VWidth: 2048
Flags: W
LayerCount: 2
Fore
SplineSet
784 0 m 1,0,-1
 647 0 l 1,1,-1
 877 1087 l 1,2,-1
 502 414 l 1,3,-1
 403 414 l 1,4,-1
 317 1087 l 1,5,-1
 88 0 l 1,6,-1
 -49 0 l 1,7,-1
 227 1305 l 1,8,-1
 406 1305 l 1,9,-1
 498 623 l 1,10,-1
 883 1305 l 1,11,-1
 1061 1305 l 1,12,-1
 784 0 l 1,0,-1
EndSplineSet
EndChar

StartChar: N
Encoding: 78 78 47
Width: 1118
VWidth: 2048
Flags: W
LayerCount: 2
Fore
SplineSet
784 0 m 1,0,-1
 614 0 l 1,1,-1
 322 1104 l 1,2,-1
 88 0 l 1,3,-1
 -49 0 l 1,4,-1
 227 1305 l 1,5,-1
 420 1305 l 1,6,-1
 700 252 l 1,7,-1
 924 1305 l 1,8,-1
 1061 1305 l 1,9,-1
 784 0 l 1,0,-1
EndSplineSet
EndChar

StartChar: O
Encoding: 79 79 48
Width: 1118
VWidth: 2048
Flags: W
LayerCount: 2
Fore
SplineSet
1006 651 m 0,0,1
 977 520 977 520 924.5 398 c 128,-1,2
 872 276 872 276 793.5 183 c 128,-1,3
 715 90 715 90 607.5 33.5 c 128,-1,4
 500 -23 500 -23 362 -23 c 0,5,6
 225 -23 225 -23 142 33.5 c 128,-1,7
 59 90 59 90 19.5 183 c 128,-1,8
 -20 276 -20 276 -21.5 398 c 128,-1,9
 -23 520 -23 520 6 651 c 256,10,11
 35 782 35 782 87 904 c 128,-1,12
 139 1026 139 1026 220 1120 c 128,-1,13
 301 1214 301 1214 407.5 1270.5 c 128,-1,14
 514 1327 514 1327 649 1327 c 256,15,16
 784 1327 784 1327 868 1270.5 c 128,-1,17
 952 1214 952 1214 991 1120 c 128,-1,18
 1030 1026 1030 1026 1032 904 c 128,-1,19
 1034 782 1034 782 1006 651 c 0,0,1
868 651 m 0,20,21
 895 780 895 780 893 883.5 c 128,-1,22
 891 987 891 987 860 1060 c 128,-1,23
 829 1133 829 1133 770 1171.5 c 128,-1,24
 711 1210 711 1210 625 1210 c 0,25,26
 518 1210 518 1210 438 1160 c 128,-1,27
 358 1110 358 1110 299 1029 c 128,-1,28
 240 948 240 948 202 849 c 128,-1,29
 164 750 164 750 143 651 c 0,30,31
 123 553 123 553 118 453.5 c 128,-1,32
 113 354 113 354 138.5 274.5 c 128,-1,33
 164 195 164 195 222.5 144.5 c 128,-1,34
 281 94 281 94 387 94 c 0,35,36
 494 94 494 94 574.5 144.5 c 128,-1,37
 655 195 655 195 713.5 274.5 c 128,-1,38
 772 354 772 354 810 453.5 c 128,-1,39
 848 553 848 553 868 651 c 0,20,21
EndSplineSet
EndChar

StartChar: P
Encoding: 80 80 49
Width: 1118
VWidth: 2048
Flags: W
LayerCount: 2
Fore
SplineSet
1028 932 m 0,0,1
 989 743 989 743 852 651 c 128,-1,2
 715 559 715 559 502 559 c 2,3,-1
 207 559 l 1,4,-1
 88 0 l 1,5,-1
 -49 0 l 1,6,-1
 227 1305 l 1,7,-1
 657 1305 l 2,8,9
 872 1305 872 1305 970.5 1211.5 c 128,-1,10
 1069 1118 1069 1118 1028 932 c 0,0,1
891 932 m 256,11,12
 920 1067 920 1067 848 1127.5 c 128,-1,13
 776 1188 776 1188 635 1188 c 2,14,-1
 340 1188 l 1,15,-1
 231 676 l 1,16,-1
 526 676 l 2,17,18
 668 676 668 676 765 736.5 c 128,-1,19
 862 797 862 797 891 932 c 256,11,12
EndSplineSet
EndChar

StartChar: Q
Encoding: 81 81 50
Width: 1118
VWidth: 2048
Flags: W
LayerCount: 2
Fore
SplineSet
1006 651 m 0,0,1
 979 526 979 526 931 410.5 c 128,-1,2
 883 295 883 295 811 204 c 128,-1,3
 739 113 739 113 643 53.5 c 128,-1,4
 547 -6 547 -6 426 -18 c 1,5,6
 420 -152 420 -152 478.5 -203 c 128,-1,7
 537 -254 537 -254 672 -254 c 0,8,9
 707 -254 707 -254 731.5 -253 c 128,-1,10
 756 -252 756 -252 780 -250 c 1,11,-1
 754 -367 l 1,12,13
 725 -369 725 -369 698.5 -370 c 128,-1,14
 672 -371 672 -371 647 -371 c 0,15,16
 442 -371 442 -371 357 -284 c 128,-1,17
 272 -197 272 -197 289 -16 c 1,18,19
 180 -2 180 -2 111.5 55.5 c 128,-1,20
 43 113 43 113 11.5 202 c 128,-1,21
 -20 291 -20 291 -20 406.5 c 128,-1,22
 -20 522 -20 522 6 651 c 0,23,24
 35 782 35 782 87 904 c 128,-1,25
 139 1026 139 1026 220 1120 c 128,-1,26
 301 1214 301 1214 407.5 1270.5 c 128,-1,27
 514 1327 514 1327 649 1327 c 256,28,29
 784 1327 784 1327 868 1270.5 c 128,-1,30
 952 1214 952 1214 991 1120 c 128,-1,31
 1030 1026 1030 1026 1032 904 c 128,-1,32
 1034 782 1034 782 1006 651 c 0,0,1
868 651 m 0,33,34
 889 750 889 750 893 849 c 128,-1,35
 897 948 897 948 873.5 1029 c 128,-1,36
 850 1110 850 1110 789.5 1160 c 128,-1,37
 729 1210 729 1210 625 1210 c 0,38,39
 518 1210 518 1210 438 1160 c 128,-1,40
 358 1110 358 1110 299 1029 c 128,-1,41
 240 948 240 948 202 849 c 128,-1,42
 164 750 164 750 143 651 c 0,43,44
 88 391 88 391 150.5 242.5 c 128,-1,45
 213 94 213 94 387 94 c 0,46,47
 559 94 559 94 686 242.5 c 128,-1,48
 813 391 813 391 868 651 c 0,33,34
EndSplineSet
EndChar

StartChar: R
Encoding: 82 82 51
Width: 1118
VWidth: 2048
Flags: W
LayerCount: 2
Fore
SplineSet
846 0 m 1,0,-1
 672 0 l 1,1,-1
 410 559 l 1,2,-1
 207 559 l 1,3,-1
 88 0 l 1,4,-1
 -49 0 l 1,5,-1
 227 1305 l 1,6,-1
 657 1305 l 2,7,8
 872 1305 872 1305 970.5 1211.5 c 128,-1,9
 1069 1118 1069 1118 1028 932 c 0,10,11
 1012 850 1012 850 969 784.5 c 128,-1,12
 926 719 926 719 866.5 673 c 128,-1,13
 807 627 807 627 731 599 c 128,-1,14
 655 571 655 571 571 565 c 1,15,-1
 846 0 l 1,0,-1
887 932 m 0,16,17
 915 1065 915 1065 845.5 1126.5 c 128,-1,18
 776 1188 776 1188 633 1188 c 2,19,-1
 340 1188 l 1,20,-1
 231 676 l 1,21,-1
 524 676 l 2,22,23
 668 676 668 676 763 736.5 c 128,-1,24
 858 797 858 797 887 932 c 0,16,17
EndSplineSet
EndChar

StartChar: S
Encoding: 83 83 52
Width: 1118
VWidth: 2048
Flags: W
LayerCount: 2
Fore
SplineSet
872 340 m 0,0,1
 854 258 854 258 806 191.5 c 128,-1,2
 758 125 758 125 690.5 77 c 128,-1,3
 623 29 623 29 544 3 c 128,-1,4
 465 -23 465 -23 385 -23 c 0,5,6
 274 -23 274 -23 191.5 18 c 128,-1,7
 109 59 109 59 72 139 c 1,8,-1
 43 0 l 1,9,-1
 -74 0 l 1,10,-1
 10 397 l 1,11,-1
 127 397 l 1,12,13
 113 330 113 330 131.5 274.5 c 128,-1,14
 150 219 150 219 189.5 179 c 128,-1,15
 229 139 229 139 286.5 116.5 c 128,-1,16
 344 94 344 94 410 94 c 0,17,18
 467 94 467 94 520 110.5 c 128,-1,19
 573 127 573 127 616 157.5 c 128,-1,20
 659 188 659 188 690 232 c 128,-1,21
 721 276 721 276 733 332 c 0,22,23
 748 395 748 395 729.5 440 c 128,-1,24
 711 485 711 485 671 517 c 128,-1,25
 631 549 631 549 577.5 571.5 c 128,-1,26
 524 594 524 594 469 616 c 0,27,28
 403 641 403 641 338.5 668.5 c 128,-1,29
 274 696 274 696 226 738 c 128,-1,30
 178 780 178 780 156.5 840.5 c 128,-1,31
 135 901 135 901 154 991 c 0,32,33
 172 1071 172 1071 219 1133.5 c 128,-1,34
 266 1196 266 1196 330.5 1239 c 128,-1,35
 395 1282 395 1282 472 1304.5 c 128,-1,36
 549 1327 549 1327 627 1327 c 0,37,38
 721 1327 721 1327 793.5 1288 c 128,-1,39
 866 1249 866 1249 895 1169 c 1,40,-1
 924 1305 l 1,41,-1
 1044 1305 l 1,42,-1
 965 932 l 1,43,-1
 844 932 l 1,44,45
 856 991 856 991 842.5 1042.5 c 128,-1,46
 829 1094 829 1094 795.5 1130.5 c 128,-1,47
 762 1167 762 1167 712 1188.5 c 128,-1,48
 662 1210 662 1210 602 1210 c 0,49,50
 549 1210 549 1210 499 1198 c 128,-1,51
 449 1186 449 1186 407 1159.5 c 128,-1,52
 365 1133 365 1133 334 1091 c 128,-1,53
 303 1049 303 1049 291 991 c 0,54,55
 281 940 281 940 299 904 c 128,-1,56
 317 868 317 868 354 840.5 c 128,-1,57
 391 813 391 813 442.5 790.5 c 128,-1,58
 494 768 494 768 549 745 c 0,59,60
 616 719 616 719 683 687 c 128,-1,61
 750 655 750 655 798 610 c 128,-1,62
 846 565 846 565 869.5 499.5 c 128,-1,63
 893 434 893 434 872 340 c 0,0,1
EndSplineSet
EndChar

StartChar: T
Encoding: 84 84 53
Width: 1118
VWidth: 2048
Flags: W
LayerCount: 2
Fore
SplineSet
1016 864 m 1,0,-1
 899 864 l 1,1,-1
 969 1188 l 1,2,-1
 688 1188 l 1,3,-1
 461 117 l 1,4,-1
 672 117 l 1,5,-1
 647 0 l 1,6,-1
 88 0 l 1,7,-1
 113 117 l 1,8,-1
 324 117 l 1,9,-1
 551 1188 l 1,10,-1
 270 1188 l 1,11,-1
 201 864 l 1,12,-1
 84 864 l 1,13,-1
 178 1305 l 1,14,-1
 1110 1305 l 1,15,-1
 1016 864 l 1,0,-1
EndSplineSet
EndChar

StartChar: U
Encoding: 85 85 54
Width: 1118
VWidth: 2048
Flags: W
LayerCount: 2
Fore
SplineSet
883 465 m 2,0,1
 858 354 858 354 815 264 c 128,-1,2
 772 174 772 174 706.5 110.5 c 128,-1,3
 641 47 641 47 555 12 c 128,-1,4
 469 -23 469 -23 360 -23 c 0,5,6
 252 -23 252 -23 180.5 12 c 128,-1,7
 109 47 109 47 73 110.5 c 128,-1,8
 37 174 37 174 31 265 c 128,-1,9
 25 356 25 356 49 467 c 2,10,-1
 227 1305 l 1,11,-1
 365 1305 l 1,12,-1
 186 465 l 2,13,14
 174 406 174 406 170 340 c 128,-1,15
 166 274 166 274 185.5 220 c 128,-1,16
 205 166 205 166 251 130 c 128,-1,17
 297 94 297 94 385 94 c 256,18,19
 473 94 473 94 536.5 130 c 128,-1,20
 600 166 600 166 642 220 c 128,-1,21
 684 274 684 274 708.5 340 c 128,-1,22
 733 406 733 406 745 465 c 2,23,-1
 924 1305 l 1,24,-1
 1061 1305 l 1,25,-1
 883 465 l 2,0,1
EndSplineSet
EndChar

StartChar: V
Encoding: 86 86 55
Width: 1118
VWidth: 2048
Flags: W
LayerCount: 2
Fore
SplineSet
1174 1305 m 1,0,-1
 461 0 l 1,1,-1
 274 0 l 1,2,-1
 119 1305 l 1,3,-1
 264 1305 l 1,4,-1
 397 139 l 1,5,-1
 1024 1305 l 1,6,-1
 1174 1305 l 1,0,-1
EndSplineSet
EndChar

StartChar: W
Encoding: 87 87 56
Width: 1118
VWidth: 2048
Flags: W
LayerCount: 2
Fore
SplineSet
1174 1305 m 1,0,-1
 662 0 l 1,1,-1
 500 0 l 1,2,-1
 502 637 l 1,3,-1
 231 0 l 1,4,-1
 72 0 l 1,5,-1
 115 1305 l 1,6,-1
 260 1305 l 1,7,-1
 217 231 l 1,8,-1
 496 932 l 1,9,-1
 631 932 l 1,10,-1
 614 231 l 1,11,-1
 1026 1305 l 1,12,-1
 1174 1305 l 1,0,-1
EndSplineSet
EndChar

StartChar: X
Encoding: 88 88 57
Width: 1118
VWidth: 2048
Flags: W
LayerCount: 2
Fore
SplineSet
856 0 m 1,0,-1
 485 0 l 1,1,-1
 510 117 l 1,2,-1
 598 117 l 1,3,-1
 483 545 l 1,4,-1
 186 117 l 1,5,-1
 274 117 l 1,6,-1
 250 0 l 1,7,-1
 -121 0 l 1,8,-1
 -96 117 l 1,9,-1
 31 117 l 1,10,-1
 428 657 l 1,11,-1
 262 1188 l 1,12,-1
 154 1188 l 1,13,-1
 178 1305 l 1,14,-1
 551 1305 l 1,15,-1
 526 1188 l 1,16,-1
 418 1188 l 1,17,-1
 530 770 l 1,18,-1
 817 1188 l 1,19,-1
 713 1188 l 1,20,-1
 737 1305 l 1,21,-1
 1110 1305 l 1,22,-1
 1085 1188 l 1,23,-1
 973 1188 l 1,24,-1
 588 657 l 1,25,-1
 754 117 l 1,26,-1
 881 117 l 1,27,-1
 856 0 l 1,0,-1
EndSplineSet
EndChar

StartChar: Y
Encoding: 89 89 58
Width: 1118
VWidth: 2048
Flags: W
LayerCount: 2
Fore
SplineSet
1106 1188 m 1,0,-1
 999 1188 l 1,1,-1
 555 563 l 1,2,-1
 461 117 l 1,3,-1
 672 117 l 1,4,-1
 647 0 l 1,5,-1
 88 0 l 1,6,-1
 113 117 l 1,7,-1
 324 117 l 1,8,-1
 418 563 l 1,9,-1
 240 1188 l 1,10,-1
 133 1188 l 1,11,-1
 158 1305 l 1,12,-1
 526 1305 l 1,13,-1
 502 1188 l 1,14,-1
 393 1188 l 1,15,-1
 516 696 l 1,16,-1
 846 1188 l 1,17,-1
 737 1188 l 1,18,-1
 762 1305 l 1,19,-1
 1130 1305 l 1,20,-1
 1106 1188 l 1,0,-1
EndSplineSet
EndChar

StartChar: Z
Encoding: 90 90 59
Width: 1118
VWidth: 2048
Flags: W
LayerCount: 2
Fore
SplineSet
788 0 m 1,0,-1
 -49 0 l 1,1,-1
 -25 117 l 1,2,-1
 858 1188 l 1,3,-1
 319 1188 l 1,4,-1
 252 868 l 1,5,-1
 135 868 l 1,6,-1
 227 1305 l 1,7,-1
 1044 1305 l 1,8,-1
 1020 1188 l 1,9,-1
 143 117 l 1,10,-1
 696 117 l 1,11,-1
 764 442 l 1,12,-1
 881 442 l 1,13,-1
 788 0 l 1,0,-1
EndSplineSet
EndChar

StartChar: bracketleft
Encoding: 91 91 60
Width: 1118
VWidth: 2048
Flags: W
LayerCount: 2
Fore
SplineSet
567 -373 m 1,0,-1
 195 -373 l 1,1,-1
 590 1491 l 1,2,-1
 963 1491 l 1,3,-1
 940 1380 l 1,4,-1
 678 1380 l 1,5,-1
 330 -260 l 1,6,-1
 592 -260 l 1,7,-1
 567 -373 l 1,0,-1
EndSplineSet
EndChar

StartChar: backslash
Encoding: 92 92 61
Width: 1118
VWidth: 2048
Flags: W
LayerCount: 2
Fore
SplineSet
858 -188 m 1,0,-1
 750 -240 l 1,1,-1
 311 1303 l 1,2,-1
 420 1354 l 1,3,-1
 858 -188 l 1,0,-1
EndSplineSet
EndChar

StartChar: bracketright
Encoding: 93 93 62
Width: 1118
VWidth: 2048
Flags: W
LayerCount: 2
Fore
SplineSet
381 -373 m 1,0,-1
 8 -373 l 1,1,-1
 33 -260 l 1,2,-1
 295 -260 l 1,3,-1
 643 1380 l 1,4,-1
 381 1380 l 1,5,-1
 403 1491 l 1,6,-1
 776 1491 l 1,7,-1
 381 -373 l 1,0,-1
EndSplineSet
EndChar

StartChar: asciicircum
Encoding: 94 94 63
Width: 1118
VWidth: 2048
Flags: W
LayerCount: 2
Fore
SplineSet
955 559 m 1,0,-1
 803 559 l 1,1,-1
 619 1172 l 1,2,-1
 175 559 l 1,3,-1
 23 559 l 1,4,-1
 555 1305 l 1,5,-1
 739 1305 l 1,6,-1
 955 559 l 1,0,-1
EndSplineSet
EndChar

StartChar: underscore
Encoding: 95 95 64
Width: 1118
VWidth: 2048
Flags: W
LayerCount: 2
Fore
SplineSet
795 -186 m 1,0,-1
 -137 -186 l 1,1,-1
 -113 -76 l 1,2,-1
 819 -76 l 1,3,-1
 795 -186 l 1,0,-1
EndSplineSet
EndChar

StartChar: grave
Encoding: 96 96 65
Width: 1118
VWidth: 2048
Flags: W
LayerCount: 2
Fore
SplineSet
829 1077 m 1,0,-1
 776 1012 l 1,1,-1
 397 1255 l 1,2,-1
 485 1364 l 1,3,-1
 829 1077 l 1,0,-1
EndSplineSet
EndChar

StartChar: a
Encoding: 97 97 66
Width: 1118
VWidth: 2048
Flags: W
LayerCount: 2
Fore
SplineSet
-47 252 m 0,0,1
 -29 340 -29 340 27.5 399.5 c 128,-1,2
 84 459 84 459 163 493.5 c 128,-1,3
 242 528 242 528 338 543.5 c 128,-1,4
 434 559 434 559 530 559 c 0,5,6
 567 559 567 559 596 558 c 128,-1,7
 625 557 625 557 651.5 555 c 128,-1,8
 678 553 678 553 703.5 550 c 128,-1,9
 729 547 729 547 762 543 c 1,10,-1
 776 610 l 2,11,12
 791 678 791 678 770.5 722 c 128,-1,13
 750 766 750 766 712 791.5 c 128,-1,14
 674 817 674 817 629 827.5 c 128,-1,15
 584 838 584 838 551 838 c 0,16,17
 446 838 446 838 353 810 c 128,-1,18
 260 782 260 782 174 735 c 1,19,-1
 133 838 l 1,20,21
 229 889 229 889 341 921.5 c 128,-1,22
 453 954 453 954 578 954 c 0,23,24
 653 954 653 954 723 934.5 c 128,-1,25
 793 915 793 915 842 874.5 c 128,-1,26
 891 834 891 834 911.5 768 c 128,-1,27
 932 702 932 702 913 610 c 2,28,-1
 784 0 l 1,29,-1
 647 0 l 1,30,-1
 680 156 l 1,31,32
 633 111 633 111 580.5 77 c 128,-1,33
 528 43 528 43 474 21.5 c 128,-1,34
 420 0 420 0 366.5 -11.5 c 128,-1,35
 313 -23 313 -23 268 -23 c 0,36,37
 84 -23 84 -23 4 48 c 128,-1,38
 -76 119 -76 119 -47 252 c 0,0,1
293 94 m 0,39,40
 379 94 379 94 453.5 119.5 c 128,-1,41
 528 145 528 145 583.5 183 c 128,-1,42
 639 221 639 221 675 264 c 128,-1,43
 711 307 711 307 719 342 c 2,44,-1
 737 430 l 1,45,46
 672 440 672 440 610.5 441 c 128,-1,47
 549 442 549 442 504 442 c 0,48,49
 430 442 430 442 359.5 432 c 128,-1,50
 289 422 289 422 233.5 399.5 c 128,-1,51
 178 377 178 377 139 341 c 128,-1,52
 100 305 100 305 90 252 c 0,53,54
 76 193 76 193 123 143.5 c 128,-1,55
 170 94 170 94 293 94 c 0,39,40
EndSplineSet
EndChar

StartChar: b
Encoding: 98 98 67
Width: 1118
VWidth: 2048
Flags: W
LayerCount: 2
Fore
SplineSet
932 465 m 0,0,1
 909 358 909 358 857 268 c 128,-1,2
 805 178 805 178 730 113.5 c 128,-1,3
 655 49 655 49 560 13 c 128,-1,4
 465 -23 465 -23 356 -23 c 0,5,6
 281 -23 281 -23 217.5 4 c 128,-1,7
 154 31 154 31 104 84 c 1,8,-1
 88 0 l 1,9,-1
 -49 0 l 1,10,-1
 227 1305 l 1,11,-1
 365 1305 l 1,12,-1
 266 846 l 1,13,14
 338 897 338 897 413.5 925.5 c 128,-1,15
 489 954 489 954 565 954 c 0,16,17
 674 954 674 954 752.5 917.5 c 128,-1,18
 831 881 831 881 879.5 816.5 c 128,-1,19
 928 752 928 752 941 661.5 c 128,-1,20
 954 571 954 571 932 465 c 0,0,1
793 465 m 0,21,22
 809 545 809 545 803 612.5 c 128,-1,23
 797 680 797 680 765 730 c 128,-1,24
 733 780 733 780 677 809 c 128,-1,25
 621 838 621 838 539 838 c 0,26,27
 381 838 381 838 238 713 c 1,28,-1
 133 215 l 1,29,30
 178 150 178 150 240.5 122 c 128,-1,31
 303 94 303 94 381 94 c 0,32,33
 463 94 463 94 530.5 123 c 128,-1,34
 598 152 598 152 651.5 202 c 128,-1,35
 705 252 705 252 740.5 319.5 c 128,-1,36
 776 387 776 387 793 465 c 0,21,22
EndSplineSet
EndChar

StartChar: c
Encoding: 99 99 68
Width: 1118
VWidth: 2048
Flags: W
LayerCount: 2
Fore
SplineSet
836 178 m 1,0,1
 756 86 756 86 642 31.5 c 128,-1,2
 528 -23 528 -23 387 -23 c 0,3,4
 279 -23 279 -23 196 13 c 128,-1,5
 113 49 113 49 61.5 113.5 c 128,-1,6
 10 178 10 178 -7.5 267 c 128,-1,7
 -25 356 -25 356 0 465 c 0,8,9
 23 571 23 571 75 661.5 c 128,-1,10
 127 752 127 752 201.5 816.5 c 128,-1,11
 276 881 276 881 372.5 917.5 c 128,-1,12
 469 954 469 954 578 954 c 0,13,14
 621 954 621 954 663 944 c 128,-1,15
 705 934 705 934 740.5 913.5 c 128,-1,16
 776 893 776 893 801.5 864.5 c 128,-1,17
 827 836 827 836 836 797 c 1,18,-1
 864 932 l 1,19,-1
 987 932 l 1,20,-1
 909 559 l 1,21,-1
 786 559 l 1,22,23
 799 621 799 621 787.5 672 c 128,-1,24
 776 723 776 723 744.5 760 c 128,-1,25
 713 797 713 797 662.5 817.5 c 128,-1,26
 612 838 612 838 551 838 c 0,27,28
 467 838 467 838 398.5 809 c 128,-1,29
 330 780 330 780 277.5 730 c 128,-1,30
 225 680 225 680 189.5 612.5 c 128,-1,31
 154 545 154 545 137 465 c 0,32,33
 119 385 119 385 129 317.5 c 128,-1,34
 139 250 139 250 175 201 c 128,-1,35
 211 152 211 152 270.5 123 c 128,-1,36
 330 94 330 94 412 94 c 0,37,38
 516 94 516 94 606 135 c 128,-1,39
 696 176 696 176 754 244 c 1,40,-1
 836 178 l 1,0,1
EndSplineSet
EndChar

StartChar: d
Encoding: 100 100 69
Width: 1118
VWidth: 2048
Flags: W
LayerCount: 2
Fore
SplineSet
784 0 m 1,0,-1
 647 0 l 1,1,-1
 664 86 l 1,2,3
 594 33 594 33 517 5 c 128,-1,4
 440 -23 440 -23 367 -23 c 0,5,6
 256 -23 256 -23 176 13 c 128,-1,7
 96 49 96 49 49 113.5 c 128,-1,8
 2 178 2 178 -11.5 268 c 128,-1,9
 -25 358 -25 358 -2 465 c 0,10,11
 20 571 20 571 72.5 661.5 c 128,-1,12
 125 752 125 752 198.5 816.5 c 128,-1,13
 272 881 272 881 368.5 917.5 c 128,-1,14
 465 954 465 954 575 954 c 0,15,16
 649 954 649 954 713.5 927.5 c 128,-1,17
 778 901 778 901 825 848 c 1,18,-1
 899 1188 l 1,19,-1
 713 1188 l 1,20,-1
 737 1305 l 1,21,-1
 1061 1305 l 1,22,-1
 784 0 l 1,0,-1
799 715 m 1,23,24
 752 780 752 780 688.5 809 c 128,-1,25
 625 838 625 838 547 838 c 0,26,27
 465 838 465 838 396.5 809 c 128,-1,28
 328 780 328 780 275.5 730 c 128,-1,29
 223 680 223 680 187.5 612.5 c 128,-1,30
 152 545 152 545 135 465 c 0,31,32
 117 385 117 385 124 317.5 c 128,-1,33
 131 250 131 250 163 200 c 128,-1,34
 195 150 195 150 251 121 c 128,-1,35
 307 92 307 92 389 92 c 0,36,37
 547 92 547 92 692 217 c 1,38,-1
 799 715 l 1,23,24
EndSplineSet
EndChar

StartChar: e
Encoding: 101 101 70
Width: 1118
VWidth: 2048
Flags: W
LayerCount: 2
Fore
SplineSet
127 418 m 1,0,1
 111 270 111 270 184.5 182 c 128,-1,2
 258 94 258 94 408 94 c 0,3,4
 512 94 512 94 603 137 c 128,-1,5
 694 180 694 180 750 244 c 1,6,-1
 831 178 l 1,7,8
 741 80 741 80 632.5 28.5 c 128,-1,9
 524 -23 524 -23 383 -23 c 0,10,11
 274 -23 274 -23 192.5 13 c 128,-1,12
 111 49 111 49 58.5 113.5 c 128,-1,13
 6 178 6 178 -11.5 267 c 128,-1,14
 -29 356 -29 356 -4 465 c 0,15,16
 18 571 18 571 69.5 660.5 c 128,-1,17
 121 750 121 750 196.5 815.5 c 128,-1,18
 272 881 272 881 368.5 917.5 c 128,-1,19
 465 954 465 954 573 954 c 0,20,21
 692 954 692 954 772 914 c 128,-1,22
 852 874 852 874 897 803.5 c 128,-1,23
 942 733 942 733 949 635 c 128,-1,24
 956 537 956 537 932 418 c 1,25,-1
 127 418 l 1,0,1
811 535 m 1,26,27
 821 688 821 688 748.5 763 c 128,-1,28
 676 838 676 838 547 838 c 0,29,30
 481 838 481 838 420.5 816.5 c 128,-1,31
 360 795 360 795 309 755 c 128,-1,32
 258 715 258 715 217 658.5 c 128,-1,33
 176 602 176 602 154 535 c 1,34,-1
 811 535 l 1,26,27
EndSplineSet
EndChar

StartChar: f
Encoding: 102 102 71
Width: 1118
VWidth: 2048
Flags: W
LayerCount: 2
Fore
SplineSet
1006 815 m 1,0,-1
 608 815 l 1,1,-1
 461 117 l 1,2,-1
 672 117 l 1,3,-1
 647 0 l 1,4,-1
 88 0 l 1,5,-1
 113 117 l 1,6,-1
 324 117 l 1,7,-1
 471 815 l 1,8,-1
 260 815 l 1,9,-1
 285 932 l 1,10,-1
 496 932 l 1,11,12
 537 1124 537 1124 657.5 1225.5 c 128,-1,13
 778 1327 778 1327 979 1327 c 0,14,15
 1026 1327 1026 1327 1059 1324 c 128,-1,16
 1092 1321 1092 1321 1112 1317 c 1,17,-1
 1087 1200 l 1,18,19
 1059 1204 1059 1204 1028 1207 c 128,-1,20
 997 1210 997 1210 954 1210 c 0,21,22
 823 1210 823 1210 743.5 1143.5 c 128,-1,23
 664 1077 664 1077 633 932 c 1,24,-1
 1030 932 l 1,25,-1
 1006 815 l 1,0,-1
EndSplineSet
EndChar

StartChar: g
Encoding: 103 103 72
Width: 1118
VWidth: 2048
Flags: W
LayerCount: 2
Fore
SplineSet
786 10 m 2,0,1
 766 -86 766 -86 717 -161 c 128,-1,2
 668 -236 668 -236 597 -288 c 128,-1,3
 526 -340 526 -340 439 -367.5 c 128,-1,4
 352 -395 352 -395 254 -395 c 0,5,6
 115 -395 115 -395 29 -343 c 128,-1,7
 -57 -291 -57 -291 -104 -193 c 1,8,-1
 4 -119 l 1,9,10
 33 -184 33 -184 104.5 -228 c 128,-1,11
 176 -272 176 -272 281 -272 c 0,12,13
 422 -272 422 -272 520 -200.5 c 128,-1,14
 618 -129 618 -129 647 6 c 2,15,-1
 670 106 l 1,16,17
 522 -2 522 -2 367 -2 c 0,18,19
 147 -2 147 -2 49 123 c 128,-1,20
 -49 248 -49 248 -2 465 c 0,21,22
 20 571 20 571 71.5 660.5 c 128,-1,23
 123 750 123 750 197.5 815.5 c 128,-1,24
 272 881 272 881 367.5 917.5 c 128,-1,25
 463 954 463 954 571 954 c 0,26,27
 647 954 647 954 712.5 927.5 c 128,-1,28
 778 901 778 901 825 848 c 1,29,-1
 844 932 l 1,30,-1
 981 932 l 1,31,-1
 786 10 l 2,0,1
799 715 m 1,32,33
 752 780 752 780 687.5 809 c 128,-1,34
 623 838 623 838 545 838 c 0,35,36
 463 838 463 838 394.5 809 c 128,-1,37
 326 780 326 780 274.5 730 c 128,-1,38
 223 680 223 680 187.5 611.5 c 128,-1,39
 152 543 152 543 135 465 c 0,40,41
 100 305 100 305 162.5 210 c 128,-1,42
 225 115 225 115 391 115 c 0,43,44
 469 115 469 115 547 144.5 c 128,-1,45
 625 174 625 174 696 240 c 1,46,-1
 799 715 l 1,32,33
EndSplineSet
EndChar

StartChar: h
Encoding: 104 104 73
Width: 1118
VWidth: 2048
Flags: W
LayerCount: 2
Fore
SplineSet
784 0 m 1,0,-1
 647 0 l 1,1,-1
 768 575 l 2,2,3
 795 700 795 700 755 769 c 128,-1,4
 715 838 715 838 594 838 c 0,5,6
 518 838 518 838 449.5 803 c 128,-1,7
 381 768 381 768 325.5 709.5 c 128,-1,8
 270 651 270 651 231.5 575.5 c 128,-1,9
 193 500 193 500 176 418 c 2,10,-1
 88 0 l 1,11,-1
 -49 0 l 1,12,-1
 227 1305 l 1,13,-1
 365 1305 l 1,14,-1
 236 698 l 1,15,16
 389 954 389 954 643 954 c 0,17,18
 987 954 987 954 905 575 c 2,19,-1
 784 0 l 1,0,-1
EndSplineSet
EndChar

StartChar: i
Encoding: 105 105 74
Width: 1118
VWidth: 2048
Flags: W
LayerCount: 2
Fore
SplineSet
698 1118 m 1,0,-1
 512 1118 l 1,1,-1
 551 1305 l 1,2,-1
 737 1305 l 1,3,-1
 698 1118 l 1,0,-1
647 0 m 1,4,-1
 88 0 l 1,5,-1
 113 117 l 1,6,-1
 324 117 l 1,7,-1
 471 815 l 1,8,-1
 260 815 l 1,9,-1
 285 932 l 1,10,-1
 633 932 l 1,11,-1
 461 117 l 1,12,-1
 672 117 l 1,13,-1
 647 0 l 1,4,-1
EndSplineSet
EndChar

StartChar: j
Encoding: 106 106 75
Width: 1118
VWidth: 2048
Flags: W
LayerCount: 2
Fore
SplineSet
885 1118 m 1,0,-1
 698 1118 l 1,1,-1
 737 1305 l 1,2,-1
 924 1305 l 1,3,-1
 885 1118 l 1,0,-1
164 -395 m 0,4,5
 -82 -395 -82 -395 -133 -193 c 1,6,-1
 -16 -121 l 1,7,8
 4 -197 4 -197 54 -238 c 128,-1,9
 104 -279 104 -279 190 -279 c 0,10,11
 258 -279 258 -279 308 -259.5 c 128,-1,12
 358 -240 358 -240 392 -204 c 128,-1,13
 426 -168 426 -168 448.5 -117 c 128,-1,14
 471 -66 471 -66 485 0 c 2,15,-1
 657 815 l 1,16,-1
 446 815 l 1,17,-1
 471 932 l 1,18,-1
 819 932 l 1,19,-1
 623 0 l 2,20,21
 584 -180 584 -180 466 -287.5 c 128,-1,22
 348 -395 348 -395 164 -395 c 0,4,5
EndSplineSet
EndChar

StartChar: k
Encoding: 107 107 76
Width: 1118
VWidth: 2048
Flags: W
LayerCount: 2
Fore
SplineSet
831 0 m 1,0,-1
 637 0 l 1,1,-1
 344 418 l 1,2,-1
 143 264 l 1,3,-1
 88 0 l 1,4,-1
 -49 0 l 1,5,-1
 227 1305 l 1,6,-1
 365 1305 l 1,7,-1
 178 430 l 1,8,-1
 815 932 l 1,9,-1
 1012 932 l 1,10,-1
 455 504 l 1,11,-1
 831 0 l 1,0,-1
EndSplineSet
EndChar

StartChar: l
Encoding: 108 108 77
Width: 1118
VWidth: 2048
Flags: W
LayerCount: 2
Fore
SplineSet
647 0 m 1,0,-1
 88 0 l 1,1,-1
 113 117 l 1,2,-1
 324 117 l 1,3,-1
 551 1188 l 1,4,-1
 340 1188 l 1,5,-1
 365 1305 l 1,6,-1
 713 1305 l 1,7,-1
 461 117 l 1,8,-1
 672 117 l 1,9,-1
 647 0 l 1,0,-1
EndSplineSet
EndChar

StartChar: m
Encoding: 109 109 78
Width: 1118
VWidth: 2048
Flags: W
LayerCount: 2
Fore
SplineSet
834 0 m 1,0,-1
 696 0 l 1,1,-1
 838 670 l 2,2,3
 854 750 854 750 835.5 794 c 128,-1,4
 817 838 817 838 764 838 c 0,5,6
 686 838 686 838 632 756 c 128,-1,7
 578 674 578 674 547 526 c 2,8,-1
 436 0 l 1,9,-1
 299 0 l 1,10,-1
 440 670 l 2,11,12
 457 750 457 750 437.5 794 c 128,-1,13
 418 838 418 838 365 838 c 0,14,15
 315 838 315 838 280.5 809 c 128,-1,16
 246 780 246 780 220.5 735 c 128,-1,17
 195 690 195 690 178.5 635 c 128,-1,18
 162 580 162 580 150 526 c 2,19,-1
 39 0 l 1,20,-1
 -98 0 l 1,21,-1
 98 932 l 1,22,-1
 236 932 l 1,23,-1
 207 797 l 1,24,25
 285 954 285 954 428 954 c 0,26,27
 565 954 565 954 584 817 c 1,28,29
 682 954 682 954 807 954 c 0,30,31
 926 954 926 954 966 883.5 c 128,-1,32
 1006 813 1006 813 975 670 c 2,33,-1
 834 0 l 1,0,-1
EndSplineSet
EndChar

StartChar: n
Encoding: 110 110 79
Width: 1118
VWidth: 2048
Flags: W
LayerCount: 2
Fore
SplineSet
784 0 m 1,0,-1
 647 0 l 1,1,-1
 768 575 l 2,2,3
 795 700 795 700 755 769 c 128,-1,4
 715 838 715 838 594 838 c 0,5,6
 518 838 518 838 449.5 803 c 128,-1,7
 381 768 381 768 325.5 709.5 c 128,-1,8
 270 651 270 651 231.5 575.5 c 128,-1,9
 193 500 193 500 176 418 c 2,10,-1
 88 0 l 1,11,-1
 -49 0 l 1,12,-1
 147 932 l 1,13,-1
 285 932 l 1,14,-1
 236 698 l 1,15,16
 389 954 389 954 643 954 c 0,17,18
 987 954 987 954 905 575 c 2,19,-1
 784 0 l 1,0,-1
EndSplineSet
EndChar

StartChar: o
Encoding: 111 111 80
Width: 1118
VWidth: 2048
Flags: W
LayerCount: 2
Fore
SplineSet
956 463 m 0,0,1
 932 354 932 354 878.5 265 c 128,-1,2
 825 176 825 176 747.5 112.5 c 128,-1,3
 670 49 670 49 571.5 13 c 128,-1,4
 473 -23 473 -23 362 -23 c 0,5,6
 254 -23 254 -23 172 13 c 128,-1,7
 90 49 90 49 39 112.5 c 128,-1,8
 -12 176 -12 176 -28.5 265 c 128,-1,9
 -45 354 -45 354 -20 463 c 0,10,11
 2 569 2 569 56.5 660.5 c 128,-1,12
 111 752 111 752 188.5 816.5 c 128,-1,13
 266 881 266 881 364.5 917.5 c 128,-1,14
 463 954 463 954 571 954 c 0,15,16
 682 954 682 954 764 917.5 c 128,-1,17
 846 881 846 881 897 816.5 c 128,-1,18
 948 752 948 752 963.5 660.5 c 128,-1,19
 979 569 979 569 956 463 c 0,0,1
819 463 m 0,20,21
 836 543 836 543 826.5 610.5 c 128,-1,22
 817 678 817 678 781 729 c 128,-1,23
 745 780 745 780 686 809 c 128,-1,24
 627 838 627 838 545 838 c 256,25,26
 463 838 463 838 391 809 c 128,-1,27
 319 780 319 780 264 729 c 128,-1,28
 209 678 209 678 171 610.5 c 128,-1,29
 133 543 133 543 117 463 c 0,30,31
 98 383 98 383 107.5 315.5 c 128,-1,32
 117 248 117 248 151.5 199 c 128,-1,33
 186 150 186 150 245.5 122 c 128,-1,34
 305 94 305 94 387 94 c 256,35,36
 469 94 469 94 540.5 122 c 128,-1,37
 612 150 612 150 668.5 199 c 128,-1,38
 725 248 725 248 763 315.5 c 128,-1,39
 801 383 801 383 819 463 c 0,20,21
EndSplineSet
EndChar

StartChar: p
Encoding: 112 112 81
Width: 1118
VWidth: 2048
Flags: W
LayerCount: 2
Fore
SplineSet
932 465 m 0,0,1
 907 356 907 356 855 267 c 128,-1,2
 803 178 803 178 728 113.5 c 128,-1,3
 653 49 653 49 558 13 c 128,-1,4
 463 -23 463 -23 354 -23 c 0,5,6
 281 -23 281 -23 217.5 4 c 128,-1,7
 154 31 154 31 104 84 c 1,8,-1
 8 -373 l 1,9,-1
 -127 -373 l 1,10,-1
 147 932 l 1,11,-1
 285 932 l 1,12,-1
 266 846 l 1,13,14
 418 954 418 954 563 954 c 0,15,16
 672 954 672 954 750.5 918.5 c 128,-1,17
 829 883 829 883 877.5 817.5 c 128,-1,18
 926 752 926 752 940 661.5 c 128,-1,19
 954 571 954 571 932 465 c 0,0,1
795 465 m 0,20,21
 811 543 811 543 804 611.5 c 128,-1,22
 797 680 797 680 764 730 c 128,-1,23
 731 780 731 780 674.5 809 c 128,-1,24
 618 838 618 838 537 838 c 0,25,26
 459 838 459 838 385 809 c 128,-1,27
 311 780 311 780 240 715 c 1,28,-1
 133 215 l 1,29,30
 178 150 178 150 239.5 122 c 128,-1,31
 301 94 301 94 379 94 c 0,32,33
 461 94 461 94 529.5 123 c 128,-1,34
 598 152 598 152 652.5 202 c 128,-1,35
 707 252 707 252 742.5 319.5 c 128,-1,36
 778 387 778 387 795 465 c 0,20,21
EndSplineSet
EndChar

StartChar: q
Encoding: 113 113 82
Width: 1118
VWidth: 2048
Flags: W
LayerCount: 2
Fore
SplineSet
0 465 m 0,0,1
 23 571 23 571 76 661.5 c 128,-1,2
 129 752 129 752 204 817.5 c 128,-1,3
 279 883 279 883 374 918.5 c 128,-1,4
 469 954 469 954 578 954 c 0,5,6
 723 954 723 954 825 846 c 1,7,-1
 844 932 l 1,8,-1
 981 932 l 1,9,-1
 705 -373 l 1,10,-1
 567 -373 l 1,11,-1
 664 84 l 1,12,13
 594 31 594 31 518 4 c 128,-1,14
 442 -23 442 -23 369 -23 c 0,15,16
 260 -23 260 -23 181 13 c 128,-1,17
 102 49 102 49 54 113.5 c 128,-1,18
 6 178 6 178 -9.5 267 c 128,-1,19
 -25 356 -25 356 0 465 c 0,0,1
137 465 m 0,20,21
 121 387 121 387 128 319.5 c 128,-1,22
 135 252 135 252 167 202 c 128,-1,23
 199 152 199 152 255 123 c 128,-1,24
 311 94 311 94 393 94 c 0,25,26
 471 94 471 94 544.5 122 c 128,-1,27
 618 150 618 150 692 215 c 1,28,-1
 799 715 l 1,29,30
 752 780 752 780 690.5 809 c 128,-1,31
 629 838 629 838 551 838 c 0,32,33
 469 838 469 838 400.5 809 c 128,-1,34
 332 780 332 780 278.5 730 c 128,-1,35
 225 680 225 680 189.5 611.5 c 128,-1,36
 154 543 154 543 137 465 c 0,20,21
EndSplineSet
EndChar

StartChar: r
Encoding: 114 114 83
Width: 1118
VWidth: 2048
Flags: W
LayerCount: 2
Fore
SplineSet
952 801 m 1,0,1
 885 838 885 838 782 838 c 0,2,3
 698 838 698 838 625.5 802 c 128,-1,4
 553 766 553 766 494.5 707.5 c 128,-1,5
 436 649 436 649 395 573.5 c 128,-1,6
 354 498 354 498 338 418 c 2,7,-1
 274 117 l 1,8,-1
 485 117 l 1,9,-1
 461 0 l 1,10,-1
 -98 0 l 1,11,-1
 -74 117 l 1,12,-1
 137 117 l 1,13,-1
 285 815 l 1,14,-1
 74 815 l 1,15,-1
 98 932 l 1,16,-1
 446 932 l 1,17,-1
 397 698 l 1,18,19
 547 954 547 954 809 954 c 0,20,21
 881 954 881 954 931 945 c 128,-1,22
 981 936 981 936 1020 913 c 1,23,-1
 952 801 l 1,0,1
EndSplineSet
EndChar

StartChar: s
Encoding: 115 115 84
Width: 1118
VWidth: 2048
Flags: W
LayerCount: 2
Fore
SplineSet
862 258 m 0,0,1
 846 176 846 176 793.5 122 c 128,-1,2
 741 68 741 68 669.5 36 c 128,-1,3
 598 4 598 4 515 -9.5 c 128,-1,4
 432 -23 432 -23 356 -23 c 0,5,6
 229 -23 229 -23 111.5 14 c 128,-1,7
 -6 51 -6 51 -86 111 c 1,8,-1
 0 229 l 1,9,10
 90 164 90 164 182 129 c 128,-1,11
 274 94 274 94 381 94 c 0,12,13
 690 94 690 94 725 254 c 0,14,15
 733 293 733 293 712.5 317.5 c 128,-1,16
 692 342 692 342 652 357.5 c 128,-1,17
 612 373 612 373 559 382 c 128,-1,18
 506 391 506 391 446 399 c 0,19,20
 371 410 371 410 297 425 c 128,-1,21
 223 440 223 440 166 470 c 128,-1,22
 109 500 109 500 81 550 c 128,-1,23
 53 600 53 600 70 682 c 0,24,25
 86 752 86 752 132 803 c 128,-1,26
 178 854 178 854 244.5 888 c 128,-1,27
 311 922 311 922 395 938 c 128,-1,28
 479 954 479 954 565 954 c 0,29,30
 688 954 688 954 779 925.5 c 128,-1,31
 870 897 870 897 936 844 c 1,32,-1
 858 737 l 1,33,34
 791 793 791 793 713 815.5 c 128,-1,35
 635 838 635 838 539 838 c 0,36,37
 496 838 496 838 442.5 830.5 c 128,-1,38
 389 823 389 823 340 804.5 c 128,-1,39
 291 786 291 786 254 756.5 c 128,-1,40
 217 727 217 727 207 682 c 0,41,42
 199 643 199 643 219.5 619.5 c 128,-1,43
 240 596 240 596 279.5 580.5 c 128,-1,44
 319 565 319 565 372.5 556 c 128,-1,45
 426 547 426 547 485 539 c 0,46,47
 559 528 559 528 634 513 c 128,-1,48
 709 498 709 498 766 469 c 128,-1,49
 823 440 823 440 852 390 c 128,-1,50
 881 340 881 340 862 258 c 0,0,1
EndSplineSet
EndChar

StartChar: t
Encoding: 116 116 85
Width: 1118
VWidth: 2048
Flags: W
LayerCount: 2
Fore
SplineSet
905 297 m 1,0,1
 858 150 858 150 740.5 63.5 c 128,-1,2
 623 -23 623 -23 473 -23 c 0,3,4
 391 -23 391 -23 329.5 4 c 128,-1,5
 268 31 268 31 230.5 79 c 128,-1,6
 193 127 193 127 180.5 194.5 c 128,-1,7
 168 262 168 262 184 342 c 2,8,-1
 285 815 l 1,9,-1
 74 815 l 1,10,-1
 98 932 l 1,11,-1
 309 932 l 1,12,-1
 389 1305 l 1,13,-1
 526 1305 l 1,14,-1
 446 932 l 1,15,-1
 844 932 l 1,16,-1
 819 815 l 1,17,-1
 422 815 l 1,18,-1
 322 342 l 2,19,20
 311 291 311 291 317.5 246 c 128,-1,21
 324 201 324 201 346.5 167 c 128,-1,22
 369 133 369 133 406.5 113.5 c 128,-1,23
 444 94 444 94 498 94 c 0,24,25
 600 94 600 94 682 157.5 c 128,-1,26
 764 221 764 221 797 322 c 1,27,-1
 905 297 l 1,0,1
EndSplineSet
EndChar

StartChar: u
Encoding: 117 117 86
Width: 1118
VWidth: 2048
Flags: W
LayerCount: 2
Fore
SplineSet
147 932 m 1,0,-1
 285 932 l 1,1,-1
 162 356 l 2,2,3
 137 231 137 231 176 162.5 c 128,-1,4
 215 94 215 94 336 94 c 0,5,6
 412 94 412 94 481.5 129 c 128,-1,7
 551 164 551 164 606.5 222.5 c 128,-1,8
 662 281 662 281 699.5 356.5 c 128,-1,9
 737 432 737 432 756 514 c 2,10,-1
 844 932 l 1,11,-1
 981 932 l 1,12,-1
 784 0 l 1,13,-1
 647 0 l 1,14,-1
 696 233 l 1,15,16
 543 -23 543 -23 289 -23 c 0,17,18
 -55 -23 -55 -23 25 356 c 2,19,-1
 147 932 l 1,0,-1
EndSplineSet
EndChar

StartChar: v
Encoding: 118 118 87
Width: 1118
VWidth: 2048
Flags: W
LayerCount: 2
Fore
SplineSet
1061 932 m 1,0,-1
 461 0 l 1,1,-1
 276 0 l 1,2,-1
 68 932 l 1,3,-1
 231 932 l 1,4,-1
 391 115 l 1,5,-1
 897 932 l 1,6,-1
 1061 932 l 1,0,-1
EndSplineSet
EndChar

StartChar: w
Encoding: 119 119 88
Width: 1118
VWidth: 2048
Flags: W
LayerCount: 2
Fore
SplineSet
1061 932 m 1,0,-1
 676 0 l 1,1,-1
 516 0 l 1,2,-1
 510 684 l 1,3,-1
 225 0 l 1,4,-1
 66 0 l 1,5,-1
 72 932 l 1,6,-1
 217 932 l 1,7,-1
 195 186 l 1,8,-1
 498 932 l 1,9,-1
 633 932 l 1,10,-1
 625 186 l 1,11,-1
 918 932 l 1,12,-1
 1061 932 l 1,0,-1
EndSplineSet
EndChar

StartChar: x
Encoding: 120 120 89
Width: 1118
VWidth: 2048
Flags: W
LayerCount: 2
Fore
SplineSet
856 0 m 1,0,-1
 471 0 l 1,1,-1
 496 121 l 1,2,-1
 578 121 l 1,3,-1
 451 391 l 1,4,-1
 211 121 l 1,5,-1
 287 121 l 1,6,-1
 262 0 l 1,7,-1
 -119 0 l 1,8,-1
 -94 121 l 1,9,-1
 51 121 l 1,10,-1
 383 473 l 1,11,-1
 207 809 l 1,12,-1
 72 809 l 1,13,-1
 98 932 l 1,14,-1
 481 932 l 1,15,-1
 455 809 l 1,16,-1
 369 809 l 1,17,-1
 485 555 l 1,18,-1
 711 809 l 1,19,-1
 616 809 l 1,20,-1
 643 932 l 1,21,-1
 1030 932 l 1,22,-1
 1004 809 l 1,23,-1
 872 809 l 1,24,-1
 557 473 l 1,25,-1
 737 121 l 1,26,-1
 881 121 l 1,27,-1
 856 0 l 1,0,-1
EndSplineSet
EndChar

StartChar: y
Encoding: 121 121 90
Width: 1118
VWidth: 2048
Flags: W
LayerCount: 2
Fore
SplineSet
1059 932 m 1,0,-1
 307 -236 l 2,1,2
 248 -334 248 -334 170 -364.5 c 128,-1,3
 92 -395 92 -395 6 -395 c 0,4,5
 -90 -395 -90 -395 -176 -360 c 1,6,-1
 -125 -242 l 1,7,8
 -84 -262 -84 -262 -40 -270.5 c 128,-1,9
 4 -279 4 -279 33 -279 c 0,10,11
 100 -279 100 -279 132 -246 c 128,-1,12
 164 -213 164 -213 193 -168 c 2,13,-1
 281 -27 l 1,14,-1
 68 932 l 1,15,-1
 229 932 l 1,16,-1
 393 117 l 1,17,-1
 895 932 l 1,18,-1
 1059 932 l 1,0,-1
EndSplineSet
EndChar

StartChar: z
Encoding: 122 122 91
Width: 1118
VWidth: 2048
Flags: W
LayerCount: 2
Fore
SplineSet
788 0 m 1,0,-1
 -51 0 l 1,1,-1
 -27 117 l 1,2,-1
 756 815 l 1,3,-1
 240 815 l 1,4,-1
 186 559 l 1,5,-1
 70 559 l 1,6,-1
 147 932 l 1,7,-1
 963 932 l 1,8,-1
 938 815 l 1,9,-1
 156 117 l 1,10,-1
 696 117 l 1,11,-1
 750 373 l 1,12,-1
 866 373 l 1,13,-1
 788 0 l 1,0,-1
EndSplineSet
EndChar

StartChar: braceleft
Encoding: 123 123 92
Width: 1118
VWidth: 2048
Flags: W
LayerCount: 2
Fore
SplineSet
565 -373 m 1,0,-1
 473 -373 l 2,1,2
 412 -373 412 -373 364.5 -351.5 c 128,-1,3
 317 -330 317 -330 288.5 -293 c 128,-1,4
 260 -256 260 -256 251 -204 c 128,-1,5
 242 -152 242 -152 254 -90 c 2,6,-1
 344 334 l 2,7,8
 381 502 381 502 195 502 c 1,9,-1
 217 614 l 1,10,11
 403 614 403 614 440 782 c 2,12,-1
 530 1212 l 2,13,14
 545 1274 545 1274 575.5 1325 c 128,-1,15
 606 1376 606 1376 651 1413 c 128,-1,16
 696 1450 696 1450 751.5 1470.5 c 128,-1,17
 807 1491 807 1491 868 1491 c 2,18,-1
 961 1491 l 1,19,-1
 938 1380 l 1,20,-1
 846 1380 l 2,21,22
 676 1380 676 1380 639 1212 c 2,23,-1
 549 782 l 2,24,25
 541 748 541 748 519.5 711 c 128,-1,26
 498 674 498 674 469 642 c 128,-1,27
 440 610 440 610 403.5 586.5 c 128,-1,28
 367 563 367 563 328 557 c 1,29,30
 365 551 365 551 390.5 528.5 c 128,-1,31
 416 506 416 506 432.5 474 c 128,-1,32
 449 442 449 442 455 405.5 c 128,-1,33
 461 369 461 369 453 334 c 2,34,-1
 362 -90 l 2,35,36
 328 -260 328 -260 498 -260 c 2,37,-1
 590 -260 l 1,38,-1
 565 -373 l 1,0,-1
EndSplineSet
EndChar

StartChar: bar
Encoding: 124 124 93
Width: 1118
VWidth: 2048
Flags: W
LayerCount: 2
Fore
SplineSet
395 -186 m 1,0,-1
 258 -186 l 1,1,-1
 614 1491 l 1,2,-1
 752 1491 l 1,3,-1
 395 -186 l 1,0,-1
EndSplineSet
EndChar

StartChar: braceright
Encoding: 125 125 94
Width: 1118
VWidth: 2048
Flags: W
LayerCount: 2
Fore
SplineSet
752 502 m 1,0,1
 567 502 567 502 530 334 c 2,2,-1
 440 -92 l 2,3,4
 428 -154 428 -154 396.5 -205 c 128,-1,5
 365 -256 365 -256 318.5 -294 c 128,-1,6
 272 -332 272 -332 217 -352.5 c 128,-1,7
 162 -373 162 -373 100 -373 c 2,8,-1
 8 -373 l 1,9,-1
 33 -260 l 1,10,-1
 125 -260 l 2,11,12
 293 -260 293 -260 328 -92 c 2,13,-1
 418 334 l 2,14,15
 426 369 426 369 447.5 406.5 c 128,-1,16
 469 444 469 444 498.5 476 c 128,-1,17
 528 508 528 508 565 529.5 c 128,-1,18
 602 551 602 551 639 557 c 1,19,20
 604 565 604 565 576.5 587.5 c 128,-1,21
 549 610 549 610 532.5 642 c 128,-1,22
 516 674 516 674 511 711 c 128,-1,23
 506 748 506 748 514 782 c 2,24,-1
 604 1212 l 2,25,26
 641 1380 641 1380 473 1380 c 2,27,-1
 381 1380 l 1,28,-1
 403 1491 l 1,29,-1
 496 1491 l 2,30,31
 557 1491 557 1491 604 1469.5 c 128,-1,32
 651 1448 651 1448 681 1411 c 128,-1,33
 711 1374 711 1374 720 1323 c 128,-1,34
 729 1272 729 1272 717 1212 c 2,35,-1
 627 782 l 2,36,37
 590 614 590 614 774 614 c 1,38,-1
 752 502 l 1,0,1
EndSplineSet
EndChar

StartChar: asciitilde
Encoding: 126 126 95
Width: 1118
VWidth: 2048
Flags: W
LayerCount: 2
Fore
SplineSet
633 373 m 0,0,1
 670 373 670 373 699.5 396.5 c 128,-1,2
 729 420 729 420 754.5 461 c 128,-1,3
 780 502 780 502 802.5 559.5 c 128,-1,4
 825 617 825 617 848 682 c 1,5,-1
 979 668 l 1,6,7
 954 578 954 578 916.5 501 c 128,-1,8
 879 424 879 424 831.5 368 c 128,-1,9
 784 312 784 312 726 279 c 128,-1,10
 668 246 668 246 604 246 c 0,11,12
 543 246 543 246 506 269.5 c 128,-1,13
 469 293 469 293 447.5 328 c 128,-1,14
 426 363 426 363 413.5 403 c 128,-1,15
 401 443 401 443 388 477.5 c 128,-1,16
 375 512 375 512 355.5 535.5 c 128,-1,17
 336 559 336 559 301 559 c 0,18,19
 264 559 264 559 233.5 535.5 c 128,-1,20
 203 512 203 512 177 471 c 128,-1,21
 151 430 151 430 129.5 374 c 128,-1,22
 108 318 108 318 86 252 c 1,23,-1
 -47 267 l 1,24,25
 -21 355 -21 355 17 432.5 c 128,-1,26
 55 510 55 510 101 566.5 c 128,-1,27
 147 623 147 623 204.5 655.5 c 128,-1,28
 262 688 262 688 328 688 c 0,29,30
 389 688 389 688 426 664.5 c 128,-1,31
 463 641 463 641 485.5 606.5 c 128,-1,32
 508 572 508 572 521 531 c 128,-1,33
 534 490 534 490 546.5 455 c 128,-1,34
 559 420 559 420 578.5 396.5 c 128,-1,35
 598 373 598 373 633 373 c 0,0,1
EndSplineSet
EndChar

StartChar: Aring
Encoding: 197 197 97
Width: 1118
VWidth: 2048
Flags: W
LayerCount: 2
Fore
SplineSet
451 1450 m 0,0,1
 461 1497 461 1497 486.5 1538 c 128,-1,2
 512 1579 512 1579 550 1609.5 c 128,-1,3
 588 1640 588 1640 632 1657.5 c 128,-1,4
 676 1675 676 1675 723 1675 c 256,5,6
 770 1675 770 1675 808 1657.5 c 128,-1,7
 846 1640 846 1640 869.5 1609.5 c 128,-1,8
 893 1579 893 1579 902 1538 c 128,-1,9
 911 1497 911 1497 901 1450 c 0,10,11
 887 1384 887 1384 845 1333 c 128,-1,12
 803 1282 803 1282 745 1253 c 1,13,-1
 897 0 l 1,14,-1
 750 0 l 1,15,-1
 705 373 l 1,16,-1
 188 373 l 1,17,-1
 -10 0 l 1,18,-1
 -158 0 l 1,19,-1
 522 1251 l 1,20,21
 477 1280 477 1280 456.5 1332 c 128,-1,22
 436 1384 436 1384 451 1450 c 0,0,1
692 494 m 1,23,-1
 616 1167 l 1,24,-1
 254 494 l 1,25,-1
 692 494 l 1,23,-1
541 1450 m 0,26,27
 528 1395 528 1395 560 1355 c 128,-1,28
 592 1315 592 1315 647 1315 c 256,29,30
 702 1315 702 1315 750.5 1355 c 128,-1,31
 799 1395 799 1395 811 1450 c 256,32,33
 823 1505 823 1505 791.5 1545 c 128,-1,34
 760 1585 760 1585 705 1585 c 0,35,36
 649 1585 649 1585 601 1545 c 128,-1,37
 553 1505 553 1505 541 1450 c 0,26,27
EndSplineSet
EndChar

StartChar: Ccedilla
Encoding: 199 199 98
Width: 1118
VWidth: 2048
Flags: W
LayerCount: 2
Fore
SplineSet
913 342 m 1,0,1
 836 193 836 193 720 98.5 c 128,-1,2
 604 4 604 4 457 -16 c 1,3,-1
 451 -41 l 1,4,5
 420 -188 420 -188 319 -276 c 0,6,7
 211 -371 211 -371 63 -371 c 1,8,-1
 88 -254 l 1,9,10
 291 -254 291 -254 336 -41 c 1,11,-1
 340 -20 l 1,12,13
 215 -12 215 -12 138 46 c 128,-1,14
 61 104 61 104 25.5 196.5 c 128,-1,15
 -10 289 -10 289 -9 406.5 c 128,-1,16
 -8 524 -8 524 18 651 c 0,17,18
 47 782 47 782 99.5 904 c 128,-1,19
 152 1026 152 1026 232.5 1120 c 128,-1,20
 313 1214 313 1214 419.5 1270.5 c 128,-1,21
 526 1327 526 1327 664 1327 c 0,22,23
 784 1327 784 1327 861 1284 c 128,-1,24
 938 1241 938 1241 961 1153 c 1,25,-1
 993 1305 l 1,26,-1
 1110 1305 l 1,27,-1
 1018 877 l 1,28,-1
 901 877 l 1,29,30
 918 946 918 946 903.5 1007.5 c 128,-1,31
 889 1069 889 1069 854 1114 c 128,-1,32
 819 1159 819 1159 763 1184.5 c 128,-1,33
 707 1210 707 1210 639 1210 c 0,34,35
 532 1210 532 1210 452.5 1160 c 128,-1,36
 373 1110 373 1110 313.5 1029 c 128,-1,37
 254 948 254 948 215 849 c 128,-1,38
 176 750 176 750 156 651 c 0,39,40
 135 553 135 553 131 453.5 c 128,-1,41
 127 354 127 354 152.5 274.5 c 128,-1,42
 178 195 178 195 236.5 144.5 c 128,-1,43
 295 94 295 94 401 94 c 0,44,45
 645 94 645 94 805 389 c 1,46,-1
 913 342 l 1,0,1
EndSplineSet
EndChar

StartChar: ccedilla
Encoding: 231 231 109
Width: 1118
VWidth: 2048
Flags: W
LayerCount: 2
Fore
SplineSet
836 178 m 1,0,1
 764 96 764 96 668.5 45 c 128,-1,2
 573 -6 573 -6 457 -18 c 1,3,-1
 451 -41 l 1,4,5
 420 -188 420 -188 319 -276 c 0,6,7
 211 -371 211 -371 63 -371 c 1,8,-1
 88 -254 l 1,9,10
 291 -254 291 -254 336 -41 c 1,11,-1
 340 -20 l 1,12,13
 242 -12 242 -12 168 25.5 c 128,-1,14
 94 63 94 63 49 126.5 c 128,-1,15
 4 190 4 190 -9.5 276 c 128,-1,16
 -23 362 -23 362 0 465 c 0,17,18
 23 571 23 571 75 661.5 c 128,-1,19
 127 752 127 752 201.5 816.5 c 128,-1,20
 276 881 276 881 372.5 917.5 c 128,-1,21
 469 954 469 954 578 954 c 0,22,23
 621 954 621 954 663 944 c 128,-1,24
 705 934 705 934 740.5 913.5 c 128,-1,25
 776 893 776 893 801.5 864.5 c 128,-1,26
 827 836 827 836 836 797 c 1,27,-1
 864 932 l 1,28,-1
 987 932 l 1,29,-1
 909 559 l 1,30,-1
 786 559 l 1,31,32
 799 621 799 621 787.5 672 c 128,-1,33
 776 723 776 723 744.5 760 c 128,-1,34
 713 797 713 797 662.5 817.5 c 128,-1,35
 612 838 612 838 551 838 c 0,36,37
 467 838 467 838 398.5 809 c 128,-1,38
 330 780 330 780 277.5 730 c 128,-1,39
 225 680 225 680 189.5 612.5 c 128,-1,40
 154 545 154 545 137 465 c 0,41,42
 119 385 119 385 129 317.5 c 128,-1,43
 139 250 139 250 175 201 c 128,-1,44
 211 152 211 152 270.5 123 c 128,-1,45
 330 94 330 94 412 94 c 0,46,47
 516 94 516 94 606 135 c 128,-1,48
 696 176 696 176 754 244 c 1,49,-1
 836 178 l 1,0,1
EndSplineSet
EndChar

StartChar: dagger
Encoding: 8224 8224 128
Width: 1118
VWidth: 2048
Flags: W
LayerCount: 2
Fore
SplineSet
852 969 m 1,0,-1
 618 983 l 1,1,-1
 500 373 l 1,2,-1
 389 373 l 1,3,-1
 535 983 l 1,4,-1
 293 969 l 1,5,-1
 317 1081 l 1,6,-1
 551 1067 l 1,7,-1
 588 1305 l 1,8,-1
 698 1305 l 1,9,-1
 635 1067 l 1,10,-1
 877 1081 l 1,11,-1
 852 969 l 1,0,-1
EndSplineSet
EndChar

StartChar: degree
Encoding: 176 176 129
Width: 1118
VWidth: 2048
Flags: W
LayerCount: 2
Fore
SplineSet
139 1118 m 0,0,1
 154 1194 154 1194 199 1262.5 c 128,-1,2
 244 1331 244 1331 304.5 1381.5 c 128,-1,3
 365 1432 365 1432 438.5 1461.5 c 128,-1,4
 512 1491 512 1491 590 1491 c 0,5,6
 666 1491 666 1491 728.5 1461.5 c 128,-1,7
 791 1432 791 1432 830.5 1381.5 c 128,-1,8
 870 1331 870 1331 884.5 1262.5 c 128,-1,9
 899 1194 899 1194 885 1118 c 1,10,11
 866 1040 866 1040 822 972.5 c 128,-1,12
 778 905 778 905 717.5 855 c 128,-1,13
 657 805 657 805 582.5 775 c 128,-1,14
 508 745 508 745 432 745 c 0,15,16
 354 745 354 745 292.5 775 c 128,-1,17
 231 805 231 805 191.5 855 c 128,-1,18
 152 905 152 905 136.5 972.5 c 128,-1,19
 121 1040 121 1040 139 1118 c 0,0,1
231 1118 m 0,20,21
 217 1059 217 1059 228.5 1008.5 c 128,-1,22
 240 958 240 958 270.5 919.5 c 128,-1,23
 301 881 301 881 346 859.5 c 128,-1,24
 391 838 391 838 451 838 c 0,25,26
 508 838 508 838 564.5 859.5 c 128,-1,27
 621 881 621 881 668 919.5 c 128,-1,28
 715 958 715 958 746.5 1008.5 c 128,-1,29
 778 1059 778 1059 793 1118 c 0,30,31
 805 1176 805 1176 793.5 1227 c 128,-1,32
 782 1278 782 1278 751.5 1317 c 128,-1,33
 721 1356 721 1356 675 1377.5 c 128,-1,34
 629 1399 629 1399 571 1399 c 0,35,36
 512 1399 512 1399 456.5 1377.5 c 128,-1,37
 401 1356 401 1356 354 1317 c 128,-1,38
 307 1278 307 1278 275.5 1227 c 128,-1,39
 244 1176 244 1176 231 1118 c 0,20,21
EndSplineSet
EndChar

StartChar: cent
Encoding: 162 162 130
Width: 1118
VWidth: 2048
Flags: W
LayerCount: 2
Fore
SplineSet
334 170 m 1,0,1
 164 203 164 203 85 331 c 128,-1,2
 6 459 6 459 47 651 c 0,3,4
 68 745 68 745 113 826 c 128,-1,5
 158 907 158 907 222.5 969.5 c 128,-1,6
 287 1032 287 1032 366.5 1073 c 128,-1,7
 446 1114 446 1114 539 1130 c 1,8,-1
 575 1305 l 1,9,-1
 713 1305 l 1,10,-1
 678 1139 l 1,11,12
 803 1133 803 1133 885 1079.5 c 128,-1,13
 967 1026 967 1026 1006 940 c 1,14,-1
 895 874 l 1,15,16
 868 936 868 936 805.5 976 c 128,-1,17
 743 1016 743 1016 653 1022 c 1,18,-1
 494 279 l 1,19,20
 588 287 588 287 666.5 326 c 128,-1,21
 745 365 745 365 801 428 c 1,22,-1
 883 362 l 1,23,24
 807 276 807 276 702.5 223 c 128,-1,25
 598 170 598 170 469 162 c 1,26,-1
 436 0 l 1,27,-1
 299 0 l 1,28,-1
 334 170 l 1,0,1
184 651 m 0,29,30
 156 518 156 518 201 421 c 128,-1,31
 246 324 246 324 360 291 c 1,32,-1
 512 1010 l 1,33,34
 385 979 385 979 299 881.5 c 128,-1,35
 213 784 213 784 184 651 c 0,29,30
EndSplineSet
EndChar

StartChar: sterling
Encoding: 163 163 131
Width: 1118
VWidth: 2048
Flags: W
LayerCount: 2
Fore
SplineSet
100 711 m 1,0,-1
 287 711 l 1,1,-1
 344 975 l 2,2,3
 360 1051 360 1051 396 1116.5 c 128,-1,4
 432 1182 432 1182 484.5 1228 c 128,-1,5
 537 1274 537 1274 602.5 1300.5 c 128,-1,6
 668 1327 668 1327 745 1327 c 0,7,8
 797 1327 797 1327 841 1309.5 c 128,-1,9
 885 1292 885 1292 915.5 1260.5 c 128,-1,10
 946 1229 946 1229 963.5 1182 c 128,-1,11
 981 1135 981 1135 981 1075 c 1,12,-1
 850 1047 l 1,13,14
 846 1137 846 1137 813 1173.5 c 128,-1,15
 780 1210 780 1210 721 1210 c 0,16,17
 623 1210 623 1210 563.5 1148.5 c 128,-1,18
 504 1087 504 1087 481 975 c 2,19,-1
 424 711 l 1,20,-1
 610 711 l 1,21,-1
 586 594 l 1,22,-1
 399 594 l 1,23,-1
 342 324 l 2,24,25
 326 244 326 244 289 191.5 c 128,-1,26
 252 139 252 139 207 117 c 1,27,-1
 414 117 l 2,28,29
 684 117 684 117 844 340 c 1,30,-1
 940 281 l 1,31,32
 844 139 844 139 699.5 69.5 c 128,-1,33
 555 0 555 0 389 0 c 2,34,-1
 -49 0 l 1,35,-1
 -25 117 l 1,36,-1
 37 117 l 2,37,38
 72 117 72 117 98.5 133.5 c 128,-1,39
 125 150 125 150 145.5 174.5 c 128,-1,40
 166 199 166 199 178 227.5 c 128,-1,41
 190 256 190 256 195 279 c 2,42,-1
 262 594 l 1,43,-1
 76 594 l 1,44,-1
 100 711 l 1,0,-1
EndSplineSet
EndChar

StartChar: section
Encoding: 167 167 132
Width: 1118
VWidth: 2048
Flags: W
LayerCount: 2
Fore
SplineSet
145 829 m 0,0,1
 160 905 160 905 206 970.5 c 128,-1,2
 252 1036 252 1036 336 1090 c 1,3,4
 285 1130 285 1130 259 1190.5 c 128,-1,5
 233 1251 233 1251 254 1343 c 0,6,7
 270 1423 270 1423 315 1484.5 c 128,-1,8
 360 1546 360 1546 423.5 1588 c 128,-1,9
 487 1630 487 1630 564 1652.5 c 128,-1,10
 641 1675 641 1675 723 1675 c 0,11,12
 803 1675 803 1675 873.5 1653.5 c 128,-1,13
 944 1632 944 1632 996.5 1588 c 128,-1,14
 1049 1544 1049 1544 1075.5 1477.5 c 128,-1,15
 1102 1411 1102 1411 1094 1319 c 1,16,-1
 961 1298 l 1,17,18
 967 1430 967 1430 900.5 1494.5 c 128,-1,19
 834 1559 834 1559 698 1559 c 0,20,21
 653 1559 653 1559 604 1547.5 c 128,-1,22
 555 1536 555 1536 512 1510.5 c 128,-1,23
 469 1485 469 1485 436 1444 c 128,-1,24
 403 1403 403 1403 391 1343 c 0,25,26
 375 1270 375 1270 419 1225 c 128,-1,27
 463 1180 463 1180 535.5 1145 c 128,-1,28
 608 1110 608 1110 693 1077 c 128,-1,29
 778 1044 778 1044 848 996 c 128,-1,30
 918 948 918 948 955.5 875.5 c 128,-1,31
 993 803 993 803 969 688 c 0,32,33
 952 616 952 616 911 549.5 c 128,-1,34
 870 483 870 483 799 430 c 1,35,36
 842 387 842 387 860.5 325.5 c 128,-1,37
 879 264 879 264 860 176 c 0,38,39
 842 96 842 96 795 28.5 c 128,-1,40
 748 -39 748 -39 682 -86 c 128,-1,41
 616 -133 616 -133 535.5 -159.5 c 128,-1,42
 455 -186 455 -186 373 -186 c 0,43,44
 287 -186 287 -186 213 -164.5 c 128,-1,45
 139 -143 139 -143 83 -99 c 128,-1,46
 27 -55 27 -55 -7 13.5 c 128,-1,47
 -41 82 -41 82 -41 178 c 1,48,-1
 92 211 l 1,49,50
 92 72 92 72 170 1 c 128,-1,51
 248 -70 248 -70 397 -70 c 0,52,53
 453 -70 453 -70 506 -54.5 c 128,-1,54
 559 -39 559 -39 603 -9.5 c 128,-1,55
 647 20 647 20 678 63 c 128,-1,56
 709 106 709 106 721 164 c 0,57,58
 739 252 739 252 697 306 c 128,-1,59
 655 360 655 360 583.5 397 c 128,-1,60
 512 434 512 434 426 465 c 128,-1,61
 340 496 340 496 269.5 540 c 128,-1,62
 199 584 199 584 160 651.5 c 128,-1,63
 121 719 121 719 145 829 c 0,0,1
283 831 m 0,64,65
 266 758 266 758 304 712 c 128,-1,66
 342 666 342 666 406.5 633 c 128,-1,67
 471 600 471 600 551 571.5 c 128,-1,68
 631 543 631 543 702 504 c 1,69,70
 750 537 750 537 783.5 581 c 128,-1,71
 817 625 817 625 829 676 c 0,72,73
 846 754 846 754 814 805 c 128,-1,74
 782 856 782 856 726 892 c 128,-1,75
 670 928 670 928 596 956.5 c 128,-1,76
 522 985 522 985 453 1018 c 1,77,78
 377 983 377 983 336 936 c 128,-1,79
 295 889 295 889 283 831 c 0,64,65
EndSplineSet
EndChar

StartChar: bullet
Encoding: 8226 8226 133
Width: 1118
VWidth: 2048
Flags: W
LayerCount: 2
Fore
SplineSet
207 559 m 1,0,1
 221 635 221 635 266 703.5 c 128,-1,2
 311 772 311 772 371.5 822 c 128,-1,3
 432 872 432 872 506 902 c 128,-1,4
 580 932 580 932 657 932 c 0,5,6
 733 932 733 932 795.5 902 c 128,-1,7
 858 872 858 872 898 822 c 128,-1,8
 938 772 938 772 952.5 703.5 c 128,-1,9
 967 635 967 635 952 559 c 0,10,11
 934 481 934 481 890 413.5 c 128,-1,12
 846 346 846 346 785.5 296 c 128,-1,13
 725 246 725 246 650 216 c 128,-1,14
 575 186 575 186 500 186 c 0,15,16
 422 186 422 186 360.5 216 c 128,-1,17
 299 246 299 246 259 296 c 128,-1,18
 219 346 219 346 203.5 413.5 c 128,-1,19
 188 481 188 481 207 559 c 1,0,1
EndSplineSet
EndChar

StartChar: paragraph
Encoding: 182 182 134
Width: 1118
VWidth: 2048
Flags: W
LayerCount: 2
Fore
SplineSet
809 0 m 1,0,-1
 672 0 l 1,1,-1
 791 559 l 1,2,-1
 555 559 l 1,3,-1
 436 0 l 1,4,-1
 299 0 l 1,5,-1
 418 567 l 1,6,7
 59 606 59 606 129 932 c 0,8,9
 209 1305 209 1305 709 1305 c 2,10,-1
 1085 1305 l 1,11,-1
 809 0 l 1,0,-1
815 682 m 1,12,-1
 924 1188 l 1,13,-1
 688 1188 l 1,14,-1
 580 682 l 1,15,-1
 815 682 l 1,12,-1
549 1178 m 1,16,17
 430 1159 430 1159 360.5 1096.5 c 128,-1,18
 291 1034 291 1034 268 932 c 0,19,20
 225 731 225 731 444 692 c 1,21,-1
 549 1178 l 1,16,17
EndSplineSet
EndChar

StartChar: germandbls
Encoding: 223 223 135
Width: 1118
VWidth: 2048
Flags: W
LayerCount: 2
Fore
SplineSet
889 268 m 0,0,1
 877 207 877 207 839 153.5 c 128,-1,2
 801 100 801 100 745.5 61.5 c 128,-1,3
 690 23 690 23 620.5 0 c 128,-1,4
 551 -23 551 -23 475 -23 c 0,5,6
 377 -23 377 -23 311.5 5 c 128,-1,7
 246 33 246 33 190 86 c 1,8,-1
 291 190 l 1,9,10
 334 141 334 141 383 117.5 c 128,-1,11
 432 94 432 94 500 94 c 0,12,13
 592 94 592 94 661.5 137 c 128,-1,14
 731 180 731 180 752 270 c 0,15,16
 762 326 762 326 740.5 363.5 c 128,-1,17
 719 401 719 401 682 429 c 128,-1,18
 645 457 645 457 598 481.5 c 128,-1,19
 551 506 551 506 514 534.5 c 128,-1,20
 477 563 477 563 455.5 602 c 128,-1,21
 434 641 434 641 446 698 c 0,22,23
 461 766 461 766 502 804 c 128,-1,24
 543 842 543 842 589 873.5 c 128,-1,25
 635 905 635 905 676 942 c 128,-1,26
 717 979 717 979 729 1040 c 0,27,28
 745 1110 745 1110 714.5 1160 c 128,-1,29
 684 1210 684 1210 584 1210 c 0,30,31
 510 1210 510 1210 456.5 1180.5 c 128,-1,32
 403 1151 403 1151 365.5 1100 c 128,-1,33
 328 1049 328 1049 305.5 983.5 c 128,-1,34
 283 918 283 918 266 846 c 2,35,-1
 88 0 l 1,36,-1
 -49 0 l 1,37,-1
 129 844 l 2,38,39
 145 920 145 920 176 1005 c 128,-1,40
 207 1090 207 1090 261 1161.5 c 128,-1,41
 315 1233 315 1233 400 1280 c 128,-1,42
 485 1327 485 1327 608 1327 c 0,43,44
 684 1327 684 1327 739.5 1304.5 c 128,-1,45
 795 1282 795 1282 827.5 1244 c 128,-1,46
 860 1206 860 1206 870.5 1154 c 128,-1,47
 881 1102 881 1102 866 1040 c 0,48,49
 850 958 850 958 807 909 c 128,-1,50
 764 860 764 860 717 827.5 c 128,-1,51
 670 795 670 795 632 769 c 128,-1,52
 594 743 594 743 586 709 c 0,53,54
 580 682 580 682 605.5 660.5 c 128,-1,55
 631 639 631 639 670 615.5 c 128,-1,56
 709 592 709 592 754 563.5 c 128,-1,57
 799 535 799 535 834.5 495 c 128,-1,58
 870 455 870 455 887.5 399.5 c 128,-1,59
 905 344 905 344 889 268 c 0,0,1
EndSplineSet
EndChar

StartChar: registered
Encoding: 174 174 136
Width: 1118
VWidth: 2048
Flags: W
LayerCount: 2
Fore
SplineSet
1217 932 m 0,0,1
 1194 821 1194 821 1130.5 719.5 c 128,-1,2
 1067 618 1067 618 977 541.5 c 128,-1,3
 887 465 887 465 774.5 419 c 128,-1,4
 662 373 662 373 541 373 c 0,5,6
 432 373 432 373 339 413 c 128,-1,7
 246 453 246 453 184.5 526.5 c 128,-1,8
 123 600 123 600 97.5 702.5 c 128,-1,9
 72 805 72 805 98 932 c 0,10,11
 123 1047 123 1047 188.5 1149 c 128,-1,12
 254 1251 254 1251 346 1327 c 128,-1,13
 438 1403 438 1403 550 1447 c 128,-1,14
 662 1491 662 1491 778 1491 c 0,15,16
 891 1491 891 1491 983 1449 c 128,-1,17
 1075 1407 1075 1407 1135.5 1331 c 128,-1,18
 1196 1255 1196 1255 1219.5 1153 c 128,-1,19
 1243 1051 1243 1051 1217 932 c 0,0,1
1151 932 m 0,20,21
 1174 1032 1174 1032 1154.5 1121 c 128,-1,22
 1135 1210 1135 1210 1082.5 1278 c 128,-1,23
 1030 1346 1030 1346 948 1385.5 c 128,-1,24
 866 1425 866 1425 764 1425 c 256,25,26
 662 1425 662 1425 564.5 1387.5 c 128,-1,27
 467 1350 467 1350 385 1283.5 c 128,-1,28
 303 1217 303 1217 244.5 1126.5 c 128,-1,29
 186 1036 186 1036 164 932 c 0,30,31
 141 827 141 827 161.5 737 c 128,-1,32
 182 647 182 647 234.5 580.5 c 128,-1,33
 287 514 287 514 369 476 c 128,-1,34
 451 438 451 438 555 438 c 0,35,36
 655 438 655 438 753.5 476 c 128,-1,37
 852 514 852 514 933 580.5 c 128,-1,38
 1014 647 1014 647 1071 737 c 128,-1,39
 1128 827 1128 827 1151 932 c 0,20,21
893 596 m 1,40,-1
 707 596 l 1,41,-1
 584 838 l 1,42,-1
 549 838 l 1,43,-1
 498 596 l 1,44,-1
 354 596 l 1,45,-1
 498 1272 l 1,46,-1
 766 1272 l 2,47,48
 817 1272 817 1272 862 1258.5 c 128,-1,49
 907 1245 907 1245 937 1217.5 c 128,-1,50
 967 1190 967 1190 979 1150 c 128,-1,51
 991 1110 991 1110 979 1055 c 0,52,53
 963 975 963 975 900.5 914.5 c 128,-1,54
 838 854 838 854 741 844 c 1,55,-1
 893 596 l 1,40,-1
838 1055 m 0,56,57
 848 1100 848 1100 825.5 1131.5 c 128,-1,58
 803 1163 803 1163 743 1163 c 2,59,-1
 618 1163 l 1,60,-1
 573 948 l 1,61,-1
 698 948 l 2,62,63
 754 948 754 948 790.5 978 c 128,-1,64
 827 1008 827 1008 838 1055 c 0,56,57
EndSplineSet
EndChar

StartChar: copyright
Encoding: 169 169 137
Width: 1118
VWidth: 2048
Flags: W
LayerCount: 2
Fore
SplineSet
881 530 m 1,0,1
 752 383 752 383 547 383 c 0,2,3
 467 383 467 383 406.5 409.5 c 128,-1,4
 346 436 346 436 308 484 c 128,-1,5
 270 532 270 532 258 599 c 128,-1,6
 246 666 246 666 262 745 c 0,7,8
 279 821 279 821 317.5 886.5 c 128,-1,9
 356 952 356 952 414.5 1001.5 c 128,-1,10
 473 1051 473 1051 544.5 1079.5 c 128,-1,11
 616 1108 616 1108 700 1108 c 0,12,13
 905 1108 905 1108 971 961 c 1,14,-1
 850 889 l 1,15,16
 815 989 815 989 676 989 c 0,17,18
 573 989 573 989 500.5 919.5 c 128,-1,19
 428 850 428 850 406 745 c 0,20,21
 383 645 383 645 425 573.5 c 128,-1,22
 467 502 467 502 573 502 c 0,23,24
 713 502 713 502 788 602 c 1,25,-1
 881 530 l 1,0,1
1182 743 m 0,26,27
 1157 633 1157 633 1093.5 531.5 c 128,-1,28
 1030 430 1030 430 939 353 c 128,-1,29
 848 276 848 276 736.5 230 c 128,-1,30
 625 184 625 184 504 184 c 0,31,32
 395 184 395 184 302 224 c 128,-1,33
 209 264 209 264 146.5 338 c 128,-1,34
 84 412 84 412 58.5 514 c 128,-1,35
 33 616 33 616 61 743 c 0,36,37
 86 858 86 858 151.5 960.5 c 128,-1,38
 217 1063 217 1063 309 1140 c 128,-1,39
 401 1217 401 1217 513 1261 c 128,-1,40
 625 1305 625 1305 741 1305 c 0,41,42
 854 1305 854 1305 946 1262 c 128,-1,43
 1038 1219 1038 1219 1098.5 1144 c 128,-1,44
 1159 1069 1159 1069 1182.5 965.5 c 128,-1,45
 1206 862 1206 862 1182 743 c 0,26,27
1116 743 m 0,46,47
 1137 844 1137 844 1117.5 934 c 128,-1,48
 1098 1024 1098 1024 1045.5 1091.5 c 128,-1,49
 993 1159 993 1159 911 1199 c 128,-1,50
 829 1239 829 1239 727 1239 c 256,51,52
 625 1239 625 1239 526.5 1200 c 128,-1,53
 428 1161 428 1161 346 1094.5 c 128,-1,54
 264 1028 264 1028 205.5 938 c 128,-1,55
 147 848 147 848 127 743 c 0,56,57
 104 639 104 639 123.5 549 c 128,-1,58
 143 459 143 459 195.5 392.5 c 128,-1,59
 248 326 248 326 330 288 c 128,-1,60
 412 250 412 250 516 250 c 0,61,62
 616 250 616 250 714.5 288 c 128,-1,63
 813 326 813 326 895 392.5 c 128,-1,64
 977 459 977 459 1035.5 549 c 128,-1,65
 1094 639 1094 639 1116 743 c 0,46,47
EndSplineSet
EndChar

StartChar: trademark
Encoding: 8482 8482 138
Width: 1118
VWidth: 2048
Flags: W
LayerCount: 2
Fore
SplineSet
1178 745 m 1,0,-1
 1067 745 l 1,1,-1
 1151 1139 l 1,2,-1
 950 805 l 1,3,-1
 872 805 l 1,4,-1
 815 1139 l 1,5,-1
 731 745 l 1,6,-1
 621 745 l 1,7,-1
 739 1305 l 1,8,-1
 897 1305 l 1,9,-1
 948 977 l 1,10,-1
 1139 1305 l 1,11,-1
 1296 1305 l 1,12,-1
 1178 745 l 1,0,-1
618 1192 m 1,13,-1
 442 1192 l 1,14,-1
 348 745 l 1,15,-1
 236 745 l 1,16,-1
 330 1192 l 1,17,-1
 154 1192 l 1,18,-1
 178 1305 l 1,19,-1
 643 1305 l 1,20,-1
 618 1192 l 1,13,-1
EndSplineSet
EndChar

StartChar: acute
Encoding: 180 180 139
Width: 1118
VWidth: 2048
Flags: W
LayerCount: 2
Fore
SplineSet
879 1255 m 1,0,-1
 395 1012 l 1,1,-1
 371 1077 l 1,2,-1
 836 1364 l 1,3,-1
 879 1255 l 1,0,-1
EndSplineSet
EndChar

StartChar: dieresis
Encoding: 168 168 140
Width: 1118
VWidth: 2048
Flags: W
LayerCount: 2
Fore
SplineSet
885 1118 m 1,0,-1
 698 1118 l 1,1,-1
 737 1305 l 1,2,-1
 924 1305 l 1,3,-1
 885 1118 l 1,0,-1
512 1118 m 1,4,-1
 326 1118 l 1,5,-1
 365 1305 l 1,6,-1
 551 1305 l 1,7,-1
 512 1118 l 1,4,-1
EndSplineSet
EndChar

StartChar: notequal
Encoding: 8800 8800 141
Width: 1118
VWidth: 2048
Flags: W
LayerCount: 2
Fore
SplineSet
872 187 m 1,0,-1
 328 187 l 1,1,-1
 199 0 l 1,2,-1
 88 0 l 1,3,-1
 217 187 l 1,4,-1
 -59 187 l 1,5,-1
 -35 299 l 1,6,-1
 295 299 l 1,7,-1
 528 635 l 1,8,-1
 37 635 l 1,9,-1
 59 746 l 1,10,-1
 604 746 l 1,11,-1
 735 932 l 1,12,-1
 846 932 l 1,13,-1
 715 746 l 1,14,-1
 991 746 l 1,15,-1
 969 635 l 1,16,-1
 639 635 l 1,17,-1
 405 299 l 1,18,-1
 897 299 l 1,19,-1
 872 187 l 1,0,-1
EndSplineSet
EndChar

StartChar: AE
Encoding: 198 198 142
Width: 1118
VWidth: 2048
Flags: W
LayerCount: 2
Fore
SplineSet
834 0 m 1,0,-1
 328 0 l 1,1,-1
 406 373 l 1,2,-1
 172 373 l 1,3,-1
 -16 0 l 1,4,-1
 -162 0 l 1,5,-1
 510 1305 l 1,6,-1
 1110 1305 l 1,7,-1
 1083 1184 l 1,8,-1
 717 1184 l 1,9,-1
 621 727 l 1,10,-1
 897 727 l 1,11,-1
 870 606 l 1,12,-1
 594 606 l 1,13,-1
 492 123 l 1,14,-1
 858 123 l 1,15,-1
 834 0 l 1,0,-1
432 494 m 1,16,-1
 571 1153 l 1,17,-1
 236 494 l 1,18,-1
 432 494 l 1,16,-1
EndSplineSet
EndChar

StartChar: Oslash
Encoding: 216 216 143
Width: 1118
VWidth: 2048
Flags: W
LayerCount: 2
Fore
SplineSet
-102 188 m 1,0,-1
 -8 272 l 1,1,2
 -27 356 -27 356 -21.5 451.5 c 128,-1,3
 -16 547 -16 547 6 651 c 0,4,5
 35 782 35 782 87 904 c 128,-1,6
 139 1026 139 1026 220 1120 c 128,-1,7
 301 1214 301 1214 407.5 1270.5 c 128,-1,8
 514 1327 514 1327 649 1327 c 0,9,10
 780 1327 780 1327 862 1274 c 128,-1,11
 944 1221 944 1221 985 1130 c 1,12,-1
 1151 1276 l 1,13,-1
 1116 1116 l 1,14,-1
 1016 1030 l 1,15,16
 1034 946 1034 946 1031 851 c 128,-1,17
 1028 756 1028 756 1006 651 c 0,18,19
 977 520 977 520 924.5 398 c 128,-1,20
 872 276 872 276 793.5 183 c 128,-1,21
 715 90 715 90 607.5 33.5 c 128,-1,22
 500 -23 500 -23 362 -23 c 0,23,24
 227 -23 227 -23 146.5 28.5 c 128,-1,25
 66 80 66 80 25 170 c 1,26,-1
 -137 29 l 1,27,-1
 -102 188 l 1,0,-1
868 651 m 0,28,29
 901 801 901 801 891 922 c 1,30,-1
 137 268 l 1,31,32
 162 190 162 190 221.5 142 c 128,-1,33
 281 94 281 94 387 94 c 0,34,35
 494 94 494 94 574.5 144.5 c 128,-1,36
 655 195 655 195 713.5 274.5 c 128,-1,37
 772 354 772 354 810 453.5 c 128,-1,38
 848 553 848 553 868 651 c 0,28,29
143 651 m 0,39,40
 129 582 129 582 122 513 c 128,-1,41
 115 444 115 444 119 381 c 1,42,-1
 870 1032 l 1,43,44
 842 1118 842 1118 780.5 1164 c 128,-1,45
 719 1210 719 1210 625 1210 c 0,46,47
 518 1210 518 1210 438 1160 c 128,-1,48
 358 1110 358 1110 299 1029 c 128,-1,49
 240 948 240 948 202 849 c 128,-1,50
 164 750 164 750 143 651 c 0,39,40
EndSplineSet
EndChar

StartChar: infinity
Encoding: 8734 8734 144
Width: 1118
VWidth: 2048
Flags: W
LayerCount: 2
Fore
SplineSet
950 465 m 256,0,1
 940 414 940 414 912.5 369 c 128,-1,2
 885 324 885 324 847 291 c 128,-1,3
 809 258 809 258 761 239 c 128,-1,4
 713 220 713 220 661 220 c 0,5,6
 590 220 590 220 538.5 253.5 c 128,-1,7
 487 287 487 287 453 377 c 1,8,9
 381 289 381 289 318.5 254.5 c 128,-1,10
 256 220 256 220 178 220 c 0,11,12
 129 220 129 220 90 239 c 128,-1,13
 51 258 51 258 24.5 291 c 128,-1,14
 -2 324 -2 324 -10.5 369 c 128,-1,15
 -19 414 -19 414 -8 465 c 0,16,17
 2 516 2 516 30.5 561.5 c 128,-1,18
 59 607 59 607 98 639.5 c 128,-1,19
 137 672 137 672 183 690.5 c 128,-1,20
 229 709 229 709 280 709 c 0,21,22
 358 709 358 709 406.5 674 c 128,-1,23
 455 639 455 639 489 549 c 1,24,25
 561 639 561 639 626.5 674 c 128,-1,26
 692 709 692 709 764 709 c 0,27,28
 813 709 813 709 853 690.5 c 128,-1,29
 893 672 893 672 918.5 639.5 c 128,-1,30
 944 607 944 607 952 561.5 c 128,-1,31
 960 516 960 516 950 465 c 256,0,1
860 465 m 0,32,33
 876 537 876 537 841.5 579 c 128,-1,34
 807 621 807 621 747 621 c 0,35,36
 620 621 620 621 514 465 c 1,37,38
 555 306 555 306 682 306 c 0,39,40
 741 306 741 306 792.5 353 c 128,-1,41
 844 400 844 400 860 465 c 0,32,33
428 465 m 1,42,43
 391 621 391 621 260 621 c 0,44,45
 201 621 201 621 148.5 577 c 128,-1,46
 96 533 96 533 82 465 c 0,47,48
 67 400 67 400 99 353 c 128,-1,49
 131 306 131 306 194 306 c 0,50,51
 323 306 323 306 428 465 c 1,42,43
EndSplineSet
EndChar

StartChar: plusminus
Encoding: 177 177 145
Width: 1118
VWidth: 2048
Flags: W
LayerCount: 2
Fore
SplineSet
924 422 m 1,0,-1
 514 422 l 1,1,-1
 424 0 l 1,2,-1
 311 0 l 1,3,-1
 401 422 l 1,4,-1
 -8 422 l 1,5,-1
 14 535 l 1,6,-1
 424 535 l 1,7,-1
 512 944 l 1,8,-1
 625 944 l 1,9,-1
 536 535 l 1,10,-1
 946 535 l 1,11,-1
 924 422 l 1,0,-1
795 -186 m 1,12,-1
 -137 -186 l 1,13,-1
 -115 -73 l 1,14,-1
 817 -73 l 1,15,-1
 795 -186 l 1,12,-1
EndSplineSet
EndChar

StartChar: lessequal
Encoding: 8804 8804 146
Width: 1118
VWidth: 2048
Flags: W
LayerCount: 2
Fore
SplineSet
700 45 m 1,0,-1
 604 -32 l 1,1,-1
 201 478 l 1,2,-1
 823 990 l 1,3,-1
 883 912 l 1,4,-1
 358 478 l 1,5,-1
 700 45 l 1,0,-1
795 -186 m 1,6,-1
 49 -186 l 1,7,-1
 72 -73 l 1,8,-1
 817 -73 l 1,9,-1
 795 -186 l 1,6,-1
EndSplineSet
EndChar

StartChar: greaterequal
Encoding: 8805 8805 147
Width: 1118
VWidth: 2048
Flags: W
LayerCount: 2
Fore
SplineSet
922 478 m 1,0,-1
 301 -32 l 1,1,-1
 242 45 l 1,2,-1
 764 478 l 1,3,-1
 424 912 l 1,4,-1
 520 990 l 1,5,-1
 922 478 l 1,0,-1
795 -186 m 1,6,-1
 49 -186 l 1,7,-1
 72 -73 l 1,8,-1
 817 -73 l 1,9,-1
 795 -186 l 1,6,-1
EndSplineSet
EndChar

StartChar: yen
Encoding: 165 165 148
Width: 1118
VWidth: 2048
Flags: W
LayerCount: 2
Fore
SplineSet
920 408 m 1,0,-1
 522 408 l 1,1,-1
 436 0 l 1,2,-1
 301 0 l 1,3,-1
 387 408 l 1,4,-1
 -12 408 l 1,5,-1
 12 528 l 1,6,-1
 412 528 l 1,7,-1
 420 563 l 1,8,-1
 356 778 l 1,9,-1
 66 778 l 1,10,-1
 92 899 l 1,11,-1
 322 899 l 1,12,-1
 203 1305 l 1,13,-1
 356 1305 l 1,14,-1
 518 709 l 1,15,-1
 520 709 l 1,16,-1
 936 1305 l 1,17,-1
 1090 1305 l 1,18,-1
 799 899 l 1,19,-1
 1024 899 l 1,20,-1
 997 778 l 1,21,-1
 711 778 l 1,22,-1
 555 563 l 1,23,-1
 547 528 l 1,24,-1
 944 528 l 1,25,-1
 920 408 l 1,0,-1
EndSplineSet
EndChar

StartChar: mu
Encoding: 181 181 149
Width: 1118
VWidth: 2048
Flags: W
LayerCount: 2
Fore
SplineSet
784 0 m 1,0,-1
 647 0 l 1,1,-1
 696 236 l 1,2,3
 545 -23 545 -23 289 -23 c 0,4,5
 166 -23 166 -23 94 33 c 1,6,-1
 8 -373 l 1,7,-1
 -127 -373 l 1,8,-1
 147 932 l 1,9,-1
 285 932 l 1,10,-1
 164 358 l 2,11,12
 137 233 137 233 176 163.5 c 128,-1,13
 215 94 215 94 336 94 c 0,14,15
 412 94 412 94 481.5 129 c 128,-1,16
 551 164 551 164 606.5 222.5 c 128,-1,17
 662 281 662 281 699.5 356.5 c 128,-1,18
 737 432 737 432 756 514 c 2,19,-1
 844 932 l 1,20,-1
 981 932 l 1,21,-1
 784 0 l 1,0,-1
EndSplineSet
EndChar

StartChar: partialdiff
Encoding: 8706 8706 150
Width: 1118
VWidth: 2048
Flags: W
LayerCount: 2
Fore
SplineSet
-45 354 m 0,0,1
 -23 459 -23 459 53 540 c 128,-1,2
 129 621 129 621 243.5 682 c 128,-1,3
 358 743 358 743 502.5 785 c 128,-1,4
 647 827 647 827 809 852 c 1,5,6
 758 977 758 977 644 1064 c 128,-1,7
 530 1151 530 1151 377 1210 c 1,8,-1
 446 1327 l 1,9,10
 571 1274 571 1274 681 1205.5 c 128,-1,11
 791 1137 791 1137 865.5 1042.5 c 128,-1,12
 940 948 940 948 969.5 824 c 128,-1,13
 999 700 999 700 965 537 c 0,14,15
 938 408 938 408 879.5 304.5 c 128,-1,16
 821 201 821 201 738 128 c 128,-1,17
 655 55 655 55 550.5 16 c 128,-1,18
 446 -23 446 -23 326 -23 c 0,19,20
 121 -23 121 -23 18.5 73.5 c 128,-1,21
 -84 170 -84 170 -45 354 c 0,0,1
827 537 m 0,22,23
 840 592 840 592 842 642 c 128,-1,24
 844 692 844 692 838 739 c 1,25,26
 690 723 690 723 560 688 c 128,-1,27
 430 653 430 653 331.5 604 c 128,-1,28
 233 555 233 555 171 492.5 c 128,-1,29
 109 430 109 430 92 354 c 0,30,31
 68 238 68 238 136.5 166 c 128,-1,32
 205 94 205 94 350 94 c 0,33,34
 442 94 442 94 520 126 c 128,-1,35
 598 158 598 158 659.5 216 c 128,-1,36
 721 274 721 274 764 356 c 128,-1,37
 807 438 807 438 827 537 c 0,22,23
EndSplineSet
EndChar

StartChar: summation
Encoding: 8721 8721 151
Width: 1118
VWidth: 2048
Flags: W
LayerCount: 2
Fore
SplineSet
784 0 m 1,0,-1
 -55 0 l 1,1,-1
 -31 117 l 1,2,-1
 410 653 l 1,3,-1
 197 1188 l 1,4,-1
 221 1305 l 1,5,-1
 1061 1305 l 1,6,-1
 967 864 l 1,7,-1
 846 864 l 1,8,-1
 915 1188 l 1,9,-1
 360 1188 l 1,10,-1
 571 653 l 1,11,-1
 133 117 l 1,12,-1
 688 117 l 1,13,-1
 756 442 l 1,14,-1
 877 442 l 1,15,-1
 784 0 l 1,0,-1
EndSplineSet
EndChar

StartChar: product
Encoding: 8719 8719 152
Width: 1118
VWidth: 2048
Flags: W
LayerCount: 2
Fore
SplineSet
1085 1188 m 1,0,-1
 899 1188 l 1,1,-1
 647 0 l 1,2,-1
 510 0 l 1,3,-1
 762 1188 l 1,4,-1
 477 1188 l 1,5,-1
 225 0 l 1,6,-1
 88 0 l 1,7,-1
 340 1188 l 1,8,-1
 154 1188 l 1,9,-1
 178 1305 l 1,10,-1
 1110 1305 l 1,11,-1
 1085 1188 l 1,0,-1
EndSplineSet
EndChar

StartChar: pi
Encoding: 960 960 153
Width: 1118
VWidth: 2048
Flags: W
LayerCount: 2
Fore
SplineSet
666 207 m 2,0,1
 653 154 653 154 683 126 c 128,-1,2
 713 98 713 98 764 98 c 0,3,4
 793 98 793 98 811 102 c 128,-1,5
 829 106 829 106 844 115 c 1,6,-1
 848 2 l 1,7,8
 801 -23 801 -23 719 -23 c 0,9,10
 674 -23 674 -23 634 -7.5 c 128,-1,11
 594 8 594 8 566.5 37 c 128,-1,12
 539 66 539 66 527.5 109 c 128,-1,13
 516 152 516 152 528 207 c 2,14,-1
 655 809 l 1,15,-1
 420 809 l 1,16,17
 336 412 336 412 207 0 c 1,18,-1
 68 0 l 1,19,20
 131 201 131 201 185.5 402.5 c 128,-1,21
 240 604 240 604 283 809 c 1,22,-1
 72 809 l 1,23,-1
 98 932 l 1,24,-1
 1030 932 l 1,25,-1
 1004 809 l 1,26,-1
 793 809 l 1,27,-1
 666 207 l 2,0,1
EndSplineSet
EndChar

StartChar: integral
Encoding: 8747 8747 154
Width: 1118
VWidth: 2048
Flags: W
LayerCount: 2
Fore
SplineSet
1167 1575 m 1,0,1
 1139 1579 1139 1579 1108 1580 c 128,-1,2
 1077 1581 1077 1581 1036 1581 c 0,3,4
 907 1581 907 1581 826 1520.5 c 128,-1,5
 745 1460 745 1460 715 1317 c 2,6,-1
 432 -16 l 2,7,8
 350 -395 350 -395 -47 -395 c 0,9,10
 -78 -395 -78 -395 -109.5 -393 c 128,-1,11
 -141 -391 -141 -391 -176 -387 c 1,12,-1
 -152 -272 l 1,13,14
 -123 -276 -123 -276 -94.5 -277.5 c 128,-1,15
 -66 -279 -66 -279 -20 -279 c 0,16,17
 106 -279 106 -279 185 -218.5 c 128,-1,18
 264 -158 264 -158 295 -16 c 2,19,-1
 578 1317 l 2,20,21
 659 1698 659 1698 1061 1698 c 0,22,23
 1092 1698 1092 1698 1124.5 1695 c 128,-1,24
 1157 1692 1157 1692 1192 1688 c 1,25,-1
 1167 1575 l 1,0,1
EndSplineSet
EndChar

StartChar: ordfeminine
Encoding: 170 170 155
Width: 1118
VWidth: 2048
Flags: W
LayerCount: 2
Fore
SplineSet
53 760 m 0,0,1
 70 829 70 829 115 878.5 c 128,-1,2
 160 928 160 928 224.5 958.5 c 128,-1,3
 289 989 289 989 364.5 1002.5 c 128,-1,4
 440 1016 440 1016 518 1016 c 0,5,6
 549 1016 549 1016 567.5 1016 c 128,-1,7
 586 1016 586 1016 601 1014 c 128,-1,8
 616 1012 616 1012 631.5 1010 c 128,-1,9
 647 1008 647 1008 674 1004 c 1,10,-1
 690 1079 l 2,11,12
 696 1116 696 1116 682 1140.5 c 128,-1,13
 668 1165 668 1165 643 1179.5 c 128,-1,14
 618 1194 618 1194 587.5 1200 c 128,-1,15
 557 1206 557 1206 530 1206 c 0,16,17
 444 1206 444 1206 373.5 1188.5 c 128,-1,18
 303 1171 303 1171 229 1126 c 1,19,-1
 199 1235 l 1,20,21
 268 1276 268 1276 354 1299.5 c 128,-1,22
 440 1323 440 1323 555 1323 c 0,23,24
 616 1323 616 1323 671.5 1309.5 c 128,-1,25
 727 1296 727 1296 767 1266.5 c 128,-1,26
 807 1237 807 1237 825.5 1191 c 128,-1,27
 844 1145 844 1145 831 1079 c 2,28,-1
 721 559 l 1,29,-1
 580 559 l 1,30,-1
 602 670 l 1,31,32
 459 541 459 541 291 541 c 0,33,34
 229 541 229 541 181 555 c 128,-1,35
 133 569 133 569 101.5 598 c 128,-1,36
 70 627 70 627 56.5 667 c 128,-1,37
 43 707 43 707 53 760 c 0,0,1
315 657 m 0,38,39
 383 657 383 657 439.5 673.5 c 128,-1,40
 496 690 496 690 537 713.5 c 128,-1,41
 578 737 578 737 603.5 764 c 128,-1,42
 629 791 629 791 633 813 c 2,43,-1
 649 893 l 1,44,45
 598 901 598 901 564 902 c 128,-1,46
 530 903 530 903 494 903 c 0,47,48
 375 903 375 903 293 869.5 c 128,-1,49
 211 836 211 836 195 760 c 0,50,51
 186 715 186 715 216 686 c 128,-1,52
 246 657 246 657 315 657 c 0,38,39
655 256 m 1,53,-1
 -45 256 l 1,54,-1
 -20 373 l 1,55,-1
 680 373 l 1,56,-1
 655 256 l 1,53,-1
EndSplineSet
EndChar

StartChar: ordmasculine
Encoding: 186 186 156
Width: 1118
VWidth: 2048
Flags: W
LayerCount: 2
Fore
SplineSet
864 932 m 0,0,1
 846 846 846 846 800 773 c 128,-1,2
 754 700 754 700 691.5 649 c 128,-1,3
 629 598 629 598 550 569.5 c 128,-1,4
 471 541 471 541 389 541 c 0,5,6
 305 541 305 541 239.5 568.5 c 128,-1,7
 174 596 174 596 132 647 c 128,-1,8
 90 698 90 698 75.5 770 c 128,-1,9
 61 842 61 842 80 932 c 0,10,11
 98 1020 98 1020 143 1092.5 c 128,-1,12
 188 1165 188 1165 252.5 1217.5 c 128,-1,13
 317 1270 317 1270 394 1297.5 c 128,-1,14
 471 1325 471 1325 555 1325 c 0,15,16
 637 1325 637 1325 703.5 1297.5 c 128,-1,17
 770 1270 770 1270 811 1217.5 c 128,-1,18
 852 1165 852 1165 867.5 1092.5 c 128,-1,19
 883 1020 883 1020 864 932 c 0,0,1
727 932 m 0,20,21
 741 993 741 993 731 1044.5 c 128,-1,22
 721 1096 721 1096 694.5 1132.5 c 128,-1,23
 668 1169 668 1169 626 1188.5 c 128,-1,24
 584 1208 584 1208 530 1208 c 0,25,26
 477 1208 477 1208 427 1188.5 c 128,-1,27
 377 1169 377 1169 334 1132.5 c 128,-1,28
 291 1096 291 1096 261 1044.5 c 128,-1,29
 231 993 231 993 217 932 c 0,30,31
 190 807 190 807 246.5 732 c 128,-1,32
 303 657 303 657 414 657 c 0,33,34
 469 657 469 657 519 676.5 c 128,-1,35
 569 696 569 696 611 732 c 128,-1,36
 653 768 653 768 684 819 c 128,-1,37
 715 870 715 870 727 932 c 0,20,21
700 256 m 1,38,-1
 -45 256 l 1,39,-1
 -20 373 l 1,40,-1
 725 373 l 1,41,-1
 700 256 l 1,38,-1
EndSplineSet
EndChar

StartChar: Omega
Encoding: 8486 8486 157
Width: 1118
VWidth: 2048
Flags: W
LayerCount: 2
Fore
SplineSet
1014 741 m 0,0,1
 983 596 983 596 899 460 c 128,-1,2
 815 324 815 324 672 231 c 1,3,-1
 647 117 l 1,4,-1
 858 117 l 1,5,-1
 834 0 l 1,6,-1
 485 0 l 1,7,-1
 547 291 l 1,8,9
 618 317 618 317 674.5 368.5 c 128,-1,10
 731 420 731 420 772 481.5 c 128,-1,11
 813 543 813 543 838.5 610.5 c 128,-1,12
 864 678 864 678 877 741 c 0,13,14
 895 823 895 823 893 907 c 128,-1,15
 891 991 891 991 863.5 1059.5 c 128,-1,16
 836 1128 836 1128 778.5 1171 c 128,-1,17
 721 1214 721 1214 627 1214 c 0,18,19
 537 1214 537 1214 461 1171 c 128,-1,20
 385 1128 385 1128 326.5 1059.5 c 128,-1,21
 268 991 268 991 230.5 907 c 128,-1,22
 193 823 193 823 174 741 c 0,23,24
 162 678 162 678 159 610.5 c 128,-1,25
 156 543 156 543 169 481.5 c 128,-1,26
 182 420 182 420 215 368.5 c 128,-1,27
 248 317 248 317 311 291 c 1,28,-1
 250 0 l 1,29,-1
 -98 0 l 1,30,-1
 -74 117 l 1,31,-1
 137 117 l 1,32,-1
 162 231 l 1,33,34
 57 317 57 317 31.5 454.5 c 128,-1,35
 6 592 6 592 37 741 c 0,36,37
 61 854 61 854 115.5 960.5 c 128,-1,38
 170 1067 170 1067 249 1148 c 128,-1,39
 328 1229 328 1229 429 1278 c 128,-1,40
 530 1327 530 1327 649 1327 c 256,41,42
 768 1327 768 1327 849 1278 c 128,-1,43
 930 1229 930 1229 975 1148 c 128,-1,44
 1020 1067 1020 1067 1029 960.5 c 128,-1,45
 1038 854 1038 854 1014 741 c 0,0,1
EndSplineSet
EndChar

StartChar: ae
Encoding: 230 230 158
Width: 1118
VWidth: 2048
Flags: W
LayerCount: 2
Fore
SplineSet
385 170 m 1,0,1
 367 135 367 135 338 101.5 c 128,-1,2
 309 68 309 68 272.5 40 c 128,-1,3
 236 12 236 12 193 -5.5 c 128,-1,4
 150 -23 150 -23 100 -23 c 0,5,6
 -16 -23 -16 -23 -60 56 c 128,-1,7
 -104 135 -104 135 -82 254 c 0,8,9
 -66 334 -66 334 -25 392.5 c 128,-1,10
 16 451 16 451 70.5 487.5 c 128,-1,11
 125 524 125 524 189.5 541.5 c 128,-1,12
 254 559 254 559 317 559 c 0,13,14
 340 559 340 559 362.5 558 c 128,-1,15
 385 557 385 557 408 553 c 1,16,-1
 428 649 l 2,17,18
 444 725 444 725 421.5 782.5 c 128,-1,19
 399 840 399 840 328 840 c 0,20,21
 287 840 287 840 231.5 804 c 128,-1,22
 176 768 176 768 129 709 c 1,23,-1
 61 793 l 1,24,25
 96 836 96 836 138 866.5 c 128,-1,26
 180 897 180 897 219 916.5 c 128,-1,27
 258 936 258 936 293 945 c 128,-1,28
 328 954 328 954 352 954 c 0,29,30
 430 954 430 954 478 919.5 c 128,-1,31
 526 885 526 885 532 807 c 1,32,33
 578 885 578 885 651.5 919.5 c 128,-1,34
 725 954 725 954 795 954 c 0,35,36
 887 954 887 954 928 898 c 128,-1,37
 969 842 969 842 977 760 c 128,-1,38
 985 678 985 678 973 585 c 128,-1,39
 961 492 961 492 944 418 c 1,40,-1
 516 418 l 1,41,42
 481 252 481 252 503.5 178 c 128,-1,43
 526 104 526 104 604 104 c 0,44,45
 651 104 651 104 693 133 c 128,-1,46
 735 162 735 162 768 227 c 1,47,-1
 877 190 l 1,48,49
 819 82 819 82 745.5 29.5 c 128,-1,50
 672 -23 672 -23 569 -23 c 0,51,52
 494 -23 494 -23 441.5 27.5 c 128,-1,53
 389 78 389 78 385 170 c 1,0,1
821 539 m 1,54,55
 856 702 856 702 839.5 771 c 128,-1,56
 823 840 823 840 752 840 c 0,57,58
 686 840 686 840 632 773.5 c 128,-1,59
 578 707 578 707 541 539 c 1,60,-1
 821 539 l 1,54,55
383 438 m 1,61,62
 371 440 371 440 348.5 441 c 128,-1,63
 326 442 326 442 303 442 c 0,64,65
 217 442 217 442 145.5 394 c 128,-1,66
 74 346 74 346 53 244 c 0,67,68
 41 190 41 190 61.5 147 c 128,-1,69
 82 104 82 104 141 104 c 0,70,71
 174 104 174 104 209 119.5 c 128,-1,72
 244 135 244 135 272.5 161.5 c 128,-1,73
 301 188 301 188 322.5 224 c 128,-1,74
 344 260 344 260 354 301 c 2,75,-1
 383 438 l 1,61,62
EndSplineSet
EndChar

StartChar: oslash
Encoding: 248 248 159
Width: 1118
VWidth: 2048
Flags: W
LayerCount: 2
Fore
SplineSet
-115 119 m 1,0,-1
 -10 193 l 1,1,2
 -53 309 -53 309 -20 463 c 0,3,4
 2 569 2 569 56.5 660.5 c 128,-1,5
 111 752 111 752 188.5 816.5 c 128,-1,6
 266 881 266 881 364.5 917.5 c 128,-1,7
 463 954 463 954 571 954 c 0,8,9
 684 954 684 954 766 916.5 c 128,-1,10
 848 879 848 879 899 811 c 1,11,-1
 1075 932 l 1,12,-1
 1051 813 l 1,13,-1
 940 737 l 1,14,15
 987 616 987 616 956 463 c 0,16,17
 932 354 932 354 878.5 265 c 128,-1,18
 825 176 825 176 747.5 112.5 c 128,-1,19
 670 49 670 49 571.5 13 c 128,-1,20
 473 -23 473 -23 362 -23 c 0,21,22
 250 -23 250 -23 167 14 c 128,-1,23
 84 51 84 51 33 119 c 1,24,-1
 -141 0 l 1,25,-1
 -115 119 l 1,0,-1
819 463 m 0,26,27
 842 569 842 569 815 653 c 1,28,-1
 152 201 l 1,29,30
 188 152 188 152 245.5 123 c 128,-1,31
 303 94 303 94 387 94 c 0,32,33
 469 94 469 94 540.5 122 c 128,-1,34
 612 150 612 150 668.5 199 c 128,-1,35
 725 248 725 248 763 315.5 c 128,-1,36
 801 383 801 383 819 463 c 0,26,27
117 463 m 0,37,38
 92 356 92 356 115 279 c 1,39,-1
 780 731 l 1,40,41
 743 780 743 780 685 809 c 128,-1,42
 627 838 627 838 545 838 c 256,43,44
 463 838 463 838 391 809 c 128,-1,45
 319 780 319 780 264 729 c 128,-1,46
 209 678 209 678 171 610.5 c 128,-1,47
 133 543 133 543 117 463 c 0,37,38
EndSplineSet
EndChar

StartChar: questiondown
Encoding: 191 191 160
Width: 1118
VWidth: 2048
Flags: W
LayerCount: 2
Fore
SplineSet
737 1305 m 1,0,-1
 924 1305 l 1,1,-1
 885 1118 l 1,2,-1
 698 1118 l 1,3,-1
 737 1305 l 1,0,-1
170 283 m 0,4,5
 186 360 186 360 227 418.5 c 128,-1,6
 268 477 268 477 321.5 526 c 128,-1,7
 375 575 375 575 435.5 618.5 c 128,-1,8
 496 662 496 662 549 708 c 128,-1,9
 602 754 602 754 642 808 c 128,-1,10
 682 862 682 862 696 932 c 1,11,-1
 842 932 l 1,12,13
 825 854 825 854 782 792.5 c 128,-1,14
 739 731 739 731 685 678 c 128,-1,15
 631 625 631 625 569.5 577.5 c 128,-1,16
 508 530 508 530 454.5 484 c 128,-1,17
 401 438 401 438 361.5 389 c 128,-1,18
 322 340 322 340 309 283 c 0,19,20
 291 195 291 195 334 144.5 c 128,-1,21
 377 94 377 94 479 94 c 0,22,23
 606 94 606 94 686 169 c 128,-1,24
 766 244 766 244 805 358 c 1,25,-1
 924 340 l 1,26,27
 868 172 868 172 750.5 74.5 c 128,-1,28
 633 -23 633 -23 457 -23 c 0,29,30
 291 -23 291 -23 216 62 c 128,-1,31
 141 147 141 147 170 283 c 0,4,5
EndSplineSet
EndChar

StartChar: exclamdown
Encoding: 161 161 161
Width: 1118
VWidth: 2048
Flags: W
LayerCount: 2
Fore
SplineSet
463 0 m 1,0,-1
 713 938 l 1,1,-1
 795 938 l 1,2,-1
 647 0 l 1,3,-1
 463 0 l 1,0,-1
737 1305 m 1,4,-1
 924 1305 l 1,5,-1
 885 1118 l 1,6,-1
 698 1118 l 1,7,-1
 737 1305 l 1,4,-1
EndSplineSet
EndChar

StartChar: logicalnot
Encoding: 172 172 162
Width: 1118
VWidth: 2048
Flags: W
LayerCount: 2
Fore
SplineSet
833 0 m 1,0,-1
 721 0 l 1,1,-1
 815 447 l 1,2,-1
 -4 447 l 1,3,-1
 20 559 l 1,4,-1
 952 559 l 1,5,-1
 833 0 l 1,0,-1
EndSplineSet
EndChar

StartChar: radical
Encoding: 8730 8730 163
Width: 1118
VWidth: 2048
Flags: W
LayerCount: 2
Fore
SplineSet
1047 1008 m 1,0,-1
 762 1008 l 1,1,-1
 248 0 l 1,2,-1
 143 0 l 1,3,-1
 78 725 l 1,4,-1
 190 758 l 1,5,-1
 231 164 l 1,6,-1
 705 1118 l 1,7,-1
 1071 1118 l 1,8,-1
 1047 1008 l 1,0,-1
EndSplineSet
EndChar

StartChar: florin
Encoding: 402 402 164
Width: 1118
VWidth: 2048
Flags: W
LayerCount: 2
Fore
SplineSet
1030 932 m 1,0,-1
 1006 815 l 1,1,-1
 608 815 l 1,2,-1
 432 -16 l 2,3,4
 350 -395 350 -395 -47 -395 c 0,5,6
 -78 -395 -78 -395 -109.5 -393 c 128,-1,7
 -141 -391 -141 -391 -176 -387 c 1,8,-1
 -152 -272 l 1,9,10
 -123 -276 -123 -276 -94.5 -277.5 c 128,-1,11
 -66 -279 -66 -279 -20 -279 c 0,12,13
 106 -279 106 -279 185 -218.5 c 128,-1,14
 264 -158 264 -158 295 -16 c 2,15,-1
 471 815 l 1,16,-1
 260 815 l 1,17,-1
 285 932 l 1,18,-1
 496 932 l 1,19,20
 537 1124 537 1124 657.5 1223.5 c 128,-1,21
 778 1323 778 1323 979 1323 c 0,22,23
 1026 1323 1026 1323 1058 1320 c 128,-1,24
 1090 1317 1090 1317 1112 1313 c 1,25,-1
 1087 1196 l 1,26,27
 1059 1200 1059 1200 1028 1203 c 128,-1,28
 997 1206 997 1206 954 1206 c 0,29,30
 823 1206 823 1206 743.5 1141.5 c 128,-1,31
 664 1077 664 1077 633 932 c 1,32,-1
 1030 932 l 1,0,-1
EndSplineSet
EndChar

StartChar: approxequal
Encoding: 8776 8776 165
Width: 1118
VWidth: 2048
Flags: W
LayerCount: 2
Fore
SplineSet
1005 719 m 1,0,1
 850 519 850 519 653 519 c 0,2,3
 579 519 579 519 539.5 541.5 c 128,-1,4
 500 564 500 564 471 591.5 c 128,-1,5
 442 619 442 619 413.5 641.5 c 128,-1,6
 385 664 385 664 334 664 c 0,7,8
 205 664 205 664 92 527 c 1,9,-1
 6 586 l 1,10,11
 162 783 162 783 358 783 c 0,12,13
 432 783 432 783 472 759.5 c 128,-1,14
 512 736 512 736 540.5 708 c 128,-1,15
 569 680 569 680 599 657.5 c 128,-1,16
 629 635 629 635 678 635 c 0,17,18
 807 635 807 635 919 779 c 1,19,-1
 1005 719 l 1,0,1
928 344 m 1,20,21
 770 144 770 144 573 144 c 0,22,23
 500 144 500 144 460 166.5 c 128,-1,24
 420 189 420 189 391 216.5 c 128,-1,25
 362 244 362 244 333.5 266.5 c 128,-1,26
 305 289 305 289 254 289 c 0,27,28
 125 289 125 289 14 152 c 1,29,-1
 -74 211 l 1,30,31
 82 408 82 408 278 408 c 0,32,33
 352 408 352 408 392 384.5 c 128,-1,34
 432 361 432 361 461.5 333.5 c 128,-1,35
 491 306 491 306 520 283 c 128,-1,36
 549 260 549 260 598 260 c 0,37,38
 727 260 727 260 840 404 c 1,39,-1
 928 344 l 1,20,21
EndSplineSet
EndChar

StartChar: Delta
Encoding: 8710 8710 166
Width: 1118
VWidth: 2048
Flags: W
LayerCount: 2
Fore
SplineSet
897 0 m 1,0,-1
 -158 0 l 1,1,-1
 553 1305 l 1,2,-1
 739 1305 l 1,3,-1
 897 0 l 1,0,-1
735 117 m 1,4,-1
 614 1165 l 1,5,-1
 51 117 l 1,6,-1
 735 117 l 1,4,-1
EndSplineSet
EndChar

StartChar: guillemotleft
Encoding: 171 171 167
Width: 1118
VWidth: 2048
Flags: W
LayerCount: 2
Fore
SplineSet
737 229 m 1,0,-1
 643 150 l 1,1,-1
 387 477 l 1,2,-1
 782 807 l 1,3,-1
 844 727 l 1,4,-1
 545 477 l 1,5,-1
 737 229 l 1,0,-1
367 229 m 1,6,-1
 270 150 l 1,7,-1
 16 477 l 1,8,-1
 410 807 l 1,9,-1
 473 727 l 1,10,-1
 172 477 l 1,11,-1
 367 229 l 1,6,-1
EndSplineSet
EndChar

StartChar: guillemotright
Encoding: 187 187 168
Width: 1118
VWidth: 2048
Flags: W
LayerCount: 2
Fore
SplineSet
922 477 m 1,0,-1
 524 150 l 1,1,-1
 463 227 l 1,2,-1
 764 477 l 1,3,-1
 569 727 l 1,4,-1
 664 805 l 1,5,-1
 922 477 l 1,0,-1
547 477 m 1,6,-1
 154 150 l 1,7,-1
 90 227 l 1,8,-1
 391 477 l 1,9,-1
 197 727 l 1,10,-1
 293 805 l 1,11,-1
 547 477 l 1,6,-1
EndSplineSet
EndChar

StartChar: ellipsis
Encoding: 8230 8230 169
Width: 1118
VWidth: 2048
Flags: W
LayerCount: 2
Fore
SplineSet
834 0 m 1,0,-1
 647 0 l 1,1,-1
 686 186 l 1,2,-1
 872 186 l 1,3,-1
 834 0 l 1,0,-1
461 0 m 1,4,-1
 274 0 l 1,5,-1
 313 186 l 1,6,-1
 500 186 l 1,7,-1
 461 0 l 1,4,-1
88 0 m 1,8,-1
 -98 0 l 1,9,-1
 -59 186 l 1,10,-1
 127 186 l 1,11,-1
 88 0 l 1,8,-1
EndSplineSet
EndChar

StartChar: OE
Encoding: 338 338 174
Width: 1118
VWidth: 2048
Flags: W
LayerCount: 2
Fore
SplineSet
461 651 m 0,0,1
 487 774 487 774 503.5 877.5 c 128,-1,2
 520 981 520 981 520 1054.5 c 128,-1,3
 520 1128 520 1128 499.5 1169 c 128,-1,4
 479 1210 479 1210 432 1210 c 256,5,6
 385 1210 385 1210 347 1169 c 128,-1,7
 309 1128 309 1128 276.5 1054.5 c 128,-1,8
 244 981 244 981 216 877.5 c 128,-1,9
 188 774 188 774 162 651 c 0,10,11
 135 528 135 528 119.5 426 c 128,-1,12
 104 324 104 324 105 250 c 128,-1,13
 106 176 106 176 126.5 135 c 128,-1,14
 147 94 147 94 195 94 c 0,15,16
 242 94 242 94 279.5 135 c 128,-1,17
 317 176 317 176 349 250 c 128,-1,18
 381 324 381 324 407.5 426 c 128,-1,19
 434 528 434 528 461 651 c 0,0,1
170 -23 m 0,20,21
 -117 -23 -117 -23 25 651 c 0,22,23
 168 1327 168 1327 457 1327 c 0,24,25
 530 1327 530 1327 558 1289 c 128,-1,26
 586 1251 586 1251 598 1171 c 1,27,-1
 627 1305 l 1,28,-1
 1110 1305 l 1,29,-1
 1085 1188 l 1,30,-1
 713 1188 l 1,31,-1
 612 721 l 1,32,-1
 895 721 l 1,33,-1
 870 604 l 1,34,-1
 588 604 l 1,35,-1
 485 117 l 1,36,-1
 858 117 l 1,37,-1
 834 0 l 1,38,-1
 350 0 l 1,39,-1
 377 133 l 1,40,41
 332 53 332 53 288 15 c 128,-1,42
 244 -23 244 -23 170 -23 c 0,20,21
EndSplineSet
EndChar

StartChar: oe
Encoding: 339 339 175
Width: 1118
VWidth: 2048
Flags: W
LayerCount: 2
Fore
SplineSet
516 418 m 1,0,1
 481 252 481 252 503.5 178 c 128,-1,2
 526 104 526 104 604 104 c 0,3,4
 651 104 651 104 690 132 c 128,-1,5
 729 160 729 160 760 231 c 1,6,-1
 877 190 l 1,7,8
 764 -23 764 -23 578 -23 c 0,9,10
 399 -23 399 -23 393 178 c 1,11,12
 307 -23 307 -23 137 -23 c 0,13,14
 -139 -23 -139 -23 -37 465 c 0,15,16
 68 954 68 954 346 954 c 0,17,18
 510 954 510 954 514 760 c 1,19,20
 559 858 559 858 624.5 906 c 128,-1,21
 690 954 690 954 774 954 c 0,22,23
 874 954 874 954 919.5 902 c 128,-1,24
 965 850 965 850 976 770 c 128,-1,25
 987 690 987 690 975 596 c 128,-1,26
 963 502 963 502 944 418 c 1,27,-1
 516 418 l 1,0,1
821 539 m 1,28,29
 854 690 854 690 842.5 765 c 128,-1,30
 831 840 831 840 750 840 c 0,31,32
 668 840 668 840 621.5 761 c 128,-1,33
 575 682 575 682 541 539 c 1,34,-1
 821 539 l 1,28,29
383 465 m 0,35,36
 463 840 463 840 322 840 c 0,37,38
 180 840 180 840 100 465 c 0,39,40
 20 88 20 88 162 88 c 0,41,42
 303 88 303 88 383 465 c 0,35,36
EndSplineSet
EndChar

StartChar: endash
Encoding: 8211 8211 176
Width: 1118
VWidth: 2048
Flags: W
LayerCount: 2
Fore
SplineSet
-10 424 m 1,0,-1
 14 532 l 1,1,-1
 946 532 l 1,2,-1
 922 424 l 1,3,-1
 -10 424 l 1,0,-1
EndSplineSet
EndChar

StartChar: emdash
Encoding: 8212 8212 177
Width: 1118
VWidth: 2048
Flags: W
LayerCount: 2
Fore
SplineSet
1016 424 m 1,0,-1
 -100 424 l 1,1,-1
 -78 532 l 1,2,-1
 1040 532 l 1,3,-1
 1016 424 l 1,0,-1
EndSplineSet
EndChar

StartChar: quotedblleft
Encoding: 8220 8220 178
Width: 1118
VWidth: 2048
Flags: W
LayerCount: 2
Fore
SplineSet
991 745 m 1,0,-1
 672 745 l 1,1,-1
 717 963 l 2,2,3
 733 1032 733 1032 766 1093.5 c 128,-1,4
 799 1155 799 1155 849 1201 c 128,-1,5
 899 1247 899 1247 964.5 1275 c 128,-1,6
 1030 1303 1030 1303 1110 1303 c 1,7,-1
 1085 1186 l 1,8,9
 883 1186 883 1186 834 963 c 2,10,-1
 827 932 l 1,11,-1
 1030 932 l 1,12,-1
 991 745 l 1,0,-1
432 745 m 1,13,-1
 115 745 l 1,14,-1
 160 963 l 2,15,16
 176 1032 176 1032 208 1093.5 c 128,-1,17
 240 1155 240 1155 290 1201 c 128,-1,18
 340 1247 340 1247 405.5 1275 c 128,-1,19
 471 1303 471 1303 551 1303 c 1,20,-1
 526 1186 l 1,21,22
 326 1186 326 1186 276 963 c 1,23,-1
 270 932 l 1,24,-1
 471 932 l 1,25,-1
 432 745 l 1,13,-1
EndSplineSet
EndChar

StartChar: quotedblright
Encoding: 8221 8221 179
Width: 1118
VWidth: 2048
Flags: W
LayerCount: 2
Fore
SplineSet
178 1305 m 1,0,-1
 498 1305 l 1,1,-1
 451 1087 l 2,2,3
 436 1018 436 1018 402.5 956.5 c 128,-1,4
 369 895 369 895 319.5 849 c 128,-1,5
 270 803 270 803 204.5 775.5 c 128,-1,6
 139 748 139 748 59 748 c 1,7,-1
 84 864 l 1,8,9
 287 864 287 864 334 1087 c 1,10,-1
 342 1118 l 1,11,-1
 139 1118 l 1,12,-1
 178 1305 l 1,0,-1
737 1305 m 1,13,-1
 1055 1305 l 1,14,-1
 1008 1087 l 2,15,16
 993 1018 993 1018 960.5 956.5 c 128,-1,17
 928 895 928 895 878.5 849 c 128,-1,18
 829 803 829 803 763.5 775.5 c 128,-1,19
 698 748 698 748 618 748 c 1,20,-1
 643 864 l 1,21,22
 844 864 844 864 891 1087 c 1,23,-1
 899 1118 l 1,24,-1
 698 1118 l 1,25,-1
 737 1305 l 1,13,-1
EndSplineSet
EndChar

StartChar: quoteleft
Encoding: 8216 8216 180
Width: 1118
VWidth: 2048
Flags: W
LayerCount: 2
Fore
SplineSet
805 745 m 1,0,-1
 485 745 l 1,1,-1
 530 963 l 2,2,3
 547 1032 547 1032 579.5 1093.5 c 128,-1,4
 612 1155 612 1155 662.5 1201 c 128,-1,5
 713 1247 713 1247 778.5 1275 c 128,-1,6
 844 1303 844 1303 924 1303 c 1,7,-1
 899 1186 l 1,8,9
 696 1186 696 1186 647 963 c 1,10,-1
 641 932 l 1,11,-1
 844 932 l 1,12,-1
 805 745 l 1,0,-1
EndSplineSet
EndChar

StartChar: quoteright
Encoding: 8217 8217 181
Width: 1118
VWidth: 2048
Flags: W
LayerCount: 2
Fore
SplineSet
365 1305 m 1,0,-1
 684 1305 l 1,1,-1
 637 1087 l 2,2,3
 623 1018 623 1018 589 956.5 c 128,-1,4
 555 895 555 895 506 849 c 128,-1,5
 457 803 457 803 391.5 775.5 c 128,-1,6
 326 748 326 748 246 748 c 1,7,-1
 270 864 l 1,8,9
 473 864 473 864 520 1087 c 1,10,-1
 528 1118 l 1,11,-1
 326 1118 l 1,12,-1
 365 1305 l 1,0,-1
EndSplineSet
EndChar

StartChar: divide
Encoding: 247 247 182
Width: 1118
VWidth: 2048
Flags: W
LayerCount: 2
Fore
SplineSet
620 758 m 1,0,-1
 434 758 l 1,1,-1
 475 944 l 1,2,-1
 661 944 l 1,3,-1
 620 758 l 1,0,-1
463 13 m 1,4,-1
 276 13 l 1,5,-1
 315 199 l 1,6,-1
 502 199 l 1,7,-1
 463 13 l 1,4,-1
922 420 m 1,8,-1
 -10 420 l 1,9,-1
 16 537 l 1,10,-1
 948 537 l 1,11,-1
 922 420 l 1,8,-1
EndSplineSet
EndChar

StartChar: lozenge
Encoding: 9674 9674 183
Width: 1118
VWidth: 2048
Flags: W
LayerCount: 2
Fore
SplineSet
950 467 m 1,0,-1
 362 -16 l 1,1,-1
 -18 467 l 1,2,-1
 567 952 l 1,3,-1
 950 467 l 1,0,-1
819 467 m 1,4,-1
 541 821 l 1,5,-1
 111 467 l 1,6,-1
 389 113 l 1,7,-1
 819 467 l 1,4,-1
EndSplineSet
EndChar

StartChar: fraction
Encoding: 8260 8260 186
Width: 1118
VWidth: 2048
Flags: W
LayerCount: 2
Fore
SplineSet
1102 1272 m 1,0,-1
 -8 -27 l 1,1,-1
 -90 33 l 1,2,-1
 1024 1335 l 1,3,-1
 1102 1272 l 1,0,-1
EndSplineSet
EndChar

StartChar: Euro
Encoding: 8364 8364 187
Width: 1118
VWidth: 2048
Flags: W
LayerCount: 2
Fore
SplineSet
84 858 m 1,0,-1
 250 858 l 1,1,2
 285 956 285 956 332 1041 c 128,-1,3
 379 1126 379 1126 441.5 1189.5 c 128,-1,4
 504 1253 504 1253 579.5 1290 c 128,-1,5
 655 1327 655 1327 745 1327 c 0,6,7
 885 1327 885 1327 959.5 1239 c 128,-1,8
 1034 1151 1034 1151 1044 963 c 1,9,-1
 918 932 l 1,10,11
 915 1055 915 1055 866 1132.5 c 128,-1,12
 817 1210 817 1210 725 1210 c 0,13,14
 625 1210 625 1210 538 1122 c 128,-1,15
 451 1034 451 1034 387 858 c 1,16,-1
 643 858 l 1,17,-1
 618 745 l 1,18,-1
 350 745 l 1,19,20
 344 723 344 723 339 699.5 c 128,-1,21
 334 676 334 676 328 651 c 0,22,23
 324 627 324 627 318.5 604.5 c 128,-1,24
 313 582 313 582 311 559 c 1,25,-1
 580 559 l 1,26,-1
 555 446 l 1,27,-1
 299 446 l 1,28,29
 285 268 285 268 336 181 c 128,-1,30
 387 94 387 94 487 94 c 0,31,32
 580 94 580 94 662.5 173 c 128,-1,33
 745 252 745 252 799 375 c 1,34,-1
 913 342 l 1,35,36
 821 154 821 154 709.5 65.5 c 128,-1,37
 598 -23 598 -23 459 -23 c 0,38,39
 369 -23 369 -23 308.5 14 c 128,-1,40
 248 51 248 51 213 113.5 c 128,-1,41
 178 176 178 176 166 262 c 128,-1,42
 154 348 154 348 160 446 c 1,43,-1
 -4 446 l 1,44,-1
 20 559 l 1,45,-1
 174 559 l 1,46,47
 176 582 176 582 181 605.5 c 128,-1,48
 186 629 186 629 190 651 c 0,49,50
 195 674 195 674 201 698.5 c 128,-1,51
 207 723 207 723 213 745 c 1,52,-1
 59 745 l 1,53,-1
 84 858 l 1,0,-1
EndSplineSet
EndChar

StartChar: guilsinglleft
Encoding: 8249 8249 188
Width: 1118
VWidth: 2048
Flags: W
LayerCount: 2
Fore
SplineSet
553 229 m 1,0,-1
 459 150 l 1,1,-1
 201 477 l 1,2,-1
 598 807 l 1,3,-1
 659 727 l 1,4,-1
 358 477 l 1,5,-1
 553 229 l 1,0,-1
EndSplineSet
EndChar

StartChar: guilsinglright
Encoding: 8250 8250 189
Width: 1118
VWidth: 2048
Flags: W
LayerCount: 2
Fore
SplineSet
735 477 m 1,0,-1
 340 150 l 1,1,-1
 276 227 l 1,2,-1
 578 477 l 1,3,-1
 383 727 l 1,4,-1
 479 805 l 1,5,-1
 735 477 l 1,0,-1
EndSplineSet
EndChar

StartChar: fi
Encoding: 64257 64257 190
Width: 1118
VWidth: 2048
Flags: W
LayerCount: 2
Fore
SplineSet
1020 0 m 1,0,-1
 -98 0 l 1,1,-1
 -74 117 l 1,2,-1
 137 117 l 1,3,-1
 285 815 l 1,4,-1
 74 815 l 1,5,-1
 98 932 l 1,6,-1
 309 932 l 1,7,8
 350 1124 350 1124 471 1223.5 c 128,-1,9
 592 1323 592 1323 793 1323 c 0,10,11
 840 1323 840 1323 871.5 1320 c 128,-1,12
 903 1317 903 1317 926 1313 c 1,13,-1
 901 1196 l 1,14,15
 872 1200 872 1200 841.5 1203 c 128,-1,16
 811 1206 811 1206 768 1206 c 0,17,18
 637 1206 637 1206 557 1141.5 c 128,-1,19
 477 1077 477 1077 446 932 c 1,20,-1
 1006 932 l 1,21,-1
 834 117 l 1,22,-1
 1044 117 l 1,23,-1
 1020 0 l 1,0,-1
696 117 m 1,24,-1
 844 815 l 1,25,-1
 422 815 l 1,26,-1
 274 117 l 1,27,-1
 696 117 l 1,24,-1
EndSplineSet
EndChar

StartChar: fl
Encoding: 64258 64258 191
Width: 1118
VWidth: 2048
Flags: W
LayerCount: 2
Fore
SplineSet
1020 0 m 1,0,-1
 -98 0 l 1,1,-1
 -74 117 l 1,2,-1
 137 117 l 1,3,-1
 285 815 l 1,4,-1
 74 815 l 1,5,-1
 98 932 l 1,6,-1
 309 932 l 1,7,8
 350 1124 350 1124 471 1223.5 c 128,-1,9
 592 1323 592 1323 793 1323 c 0,10,11
 895 1323 895 1323 960.5 1314 c 128,-1,12
 1026 1305 1026 1305 1081 1288 c 1,13,-1
 834 117 l 1,14,-1
 1044 117 l 1,15,-1
 1020 0 l 1,0,-1
696 117 m 1,16,-1
 924 1192 l 1,17,18
 903 1196 903 1196 866 1201 c 128,-1,19
 829 1206 829 1206 768 1206 c 0,20,21
 637 1206 637 1206 557 1141.5 c 128,-1,22
 477 1077 477 1077 446 932 c 1,23,-1
 657 932 l 1,24,-1
 633 815 l 1,25,-1
 422 815 l 1,26,-1
 274 117 l 1,27,-1
 696 117 l 1,16,-1
EndSplineSet
EndChar

StartChar: daggerdbl
Encoding: 8225 8225 192
Width: 1118
VWidth: 2048
Flags: W
LayerCount: 2
Fore
SplineSet
733 412 m 1,0,-1
 500 426 l 1,1,-1
 461 186 l 1,2,-1
 350 186 l 1,3,-1
 416 426 l 1,4,-1
 174 412 l 1,5,-1
 199 522 l 1,6,-1
 432 510 l 1,7,-1
 535 983 l 1,8,-1
 293 969 l 1,9,-1
 317 1081 l 1,10,-1
 551 1067 l 1,11,-1
 588 1305 l 1,12,-1
 698 1305 l 1,13,-1
 635 1067 l 1,14,-1
 877 1081 l 1,15,-1
 852 969 l 1,16,-1
 618 983 l 1,17,-1
 516 510 l 1,18,-1
 758 522 l 1,19,-1
 733 412 l 1,0,-1
EndSplineSet
EndChar

StartChar: periodcentered
Encoding: 183 183 193
Width: 1118
VWidth: 2048
Flags: W
LayerCount: 2
Fore
SplineSet
541 385 m 1,0,-1
 354 385 l 1,1,-1
 395 571 l 1,2,-1
 582 571 l 1,3,-1
 541 385 l 1,0,-1
EndSplineSet
EndChar

StartChar: quotesinglbase
Encoding: 8218 8218 194
Width: 1118
VWidth: 2048
Flags: W
LayerCount: 2
Fore
SplineSet
499 187 m 1,0,-1
 818 187 l 1,1,-1
 771 -31 l 2,2,3
 757 -100 757 -100 723 -161.5 c 128,-1,4
 689 -223 689 -223 640 -269 c 128,-1,5
 591 -315 591 -315 525.5 -342.5 c 128,-1,6
 460 -370 460 -370 380 -370 c 1,7,-1
 404 -254 l 1,8,9
 607 -254 607 -254 654 -31 c 1,10,-1
 662 0 l 1,11,-1
 460 0 l 1,12,-1
 499 187 l 1,0,-1
EndSplineSet
EndChar

StartChar: quotedblbase
Encoding: 8222 8222 195
Width: 1118
VWidth: 2048
Flags: W
LayerCount: 2
Fore
SplineSet
-59 187 m 1,0,-1
 261 187 l 1,1,-1
 214 -31 l 2,2,3
 199 -100 199 -100 165.5 -161.5 c 128,-1,4
 132 -223 132 -223 82.5 -269 c 128,-1,5
 33 -315 33 -315 -32.5 -342.5 c 128,-1,6
 -98 -370 -98 -370 -178 -370 c 1,7,-1
 -153 -254 l 1,8,9
 50 -254 50 -254 97 -31 c 1,10,-1
 105 0 l 1,11,-1
 -98 0 l 1,12,-1
 -59 187 l 1,0,-1
500 187 m 1,13,-1
 818 187 l 1,14,-1
 771 -31 l 2,15,16
 756 -100 756 -100 723.5 -161.5 c 128,-1,17
 691 -223 691 -223 641.5 -269 c 128,-1,18
 592 -315 592 -315 526.5 -342.5 c 128,-1,19
 461 -370 461 -370 381 -370 c 1,20,-1
 406 -254 l 1,21,22
 607 -254 607 -254 654 -31 c 1,23,-1
 662 0 l 1,24,-1
 461 0 l 1,25,-1
 500 187 l 1,13,-1
EndSplineSet
EndChar

StartChar: perthousand
Encoding: 8240 8240 196
Width: 1118
VWidth: 2048
Flags: W
LayerCount: 2
Fore
SplineSet
836 1276 m 1,0,-1
 -10 -37 l 1,1,-1
 -102 4 l 1,2,-1
 748 1319 l 1,3,-1
 836 1276 l 1,0,-1
406 1075 m 0,4,5
 420 1139 420 1139 405.5 1182 c 128,-1,6
 391 1225 391 1225 340 1225 c 0,7,8
 291 1225 291 1225 257 1182 c 128,-1,9
 223 1139 223 1139 209 1075 c 0,10,11
 197 1012 197 1012 212 969 c 128,-1,12
 227 926 227 926 276 926 c 0,13,14
 328 926 328 926 360.5 969 c 128,-1,15
 393 1012 393 1012 406 1075 c 0,4,5
109 1075 m 0,16,17
 131 1180 131 1180 195.5 1253.5 c 128,-1,18
 260 1327 260 1327 362 1327 c 0,19,20
 465 1327 465 1327 498.5 1253.5 c 128,-1,21
 532 1180 532 1180 510 1075 c 0,22,23
 487 971 487 971 422.5 897 c 128,-1,24
 358 823 358 823 256 823 c 256,25,26
 154 823 154 823 120 897 c 128,-1,27
 86 971 86 971 109 1075 c 0,16,17
539 229 m 0,28,29
 553 293 553 293 538.5 336 c 128,-1,30
 524 379 524 379 473 379 c 0,31,32
 424 379 424 379 390 336 c 128,-1,33
 356 293 356 293 342 229 c 0,34,35
 330 166 330 166 345 123 c 128,-1,36
 360 80 360 80 410 80 c 0,37,38
 461 80 461 80 493.5 123 c 128,-1,39
 526 166 526 166 539 229 c 0,28,29
242 229 m 0,40,41
 264 334 264 334 328.5 407.5 c 128,-1,42
 393 481 393 481 496 481 c 0,43,44
 598 481 598 481 632 407.5 c 128,-1,45
 666 334 666 334 643 229 c 0,46,47
 621 125 621 125 556.5 51 c 128,-1,48
 492 -23 492 -23 389 -23 c 0,49,50
 287 -23 287 -23 253 51 c 128,-1,51
 219 125 219 125 242 229 c 0,40,41
961 229 m 0,52,53
 975 293 975 293 960.5 336 c 128,-1,54
 946 379 946 379 895 379 c 0,55,56
 846 379 846 379 812 336 c 128,-1,57
 778 293 778 293 764 229 c 0,58,59
 752 166 752 166 767 123 c 128,-1,60
 782 80 782 80 831 80 c 0,61,62
 883 80 883 80 915.5 123 c 128,-1,63
 948 166 948 166 961 229 c 0,52,53
664 229 m 0,64,65
 686 334 686 334 750.5 407.5 c 128,-1,66
 815 481 815 481 918 481 c 0,67,68
 1020 481 1020 481 1053.5 407.5 c 128,-1,69
 1087 334 1087 334 1065 229 c 0,70,71
 1042 125 1042 125 977.5 51 c 128,-1,72
 913 -23 913 -23 811 -23 c 256,73,74
 709 -23 709 -23 675 51 c 128,-1,75
 641 125 641 125 664 229 c 0,64,65
EndSplineSet
EndChar

StartChar: apple
Encoding: 63743 63743 208
Width: 1118
VWidth: 2048
Flags: W
LayerCount: 2
Fore
SplineSet
1006 1343 m 1,0,1
 973 1194 973 1194 882 1111 c 128,-1,2
 791 1028 791 1028 672 1018 c 1,3,4
 731 1284 731 1284 1006 1343 c 1,0,1
1106 362 m 1,5,6
 1083 319 1083 319 1041 258 c 128,-1,7
 999 197 999 197 947 140.5 c 128,-1,8
 895 84 895 84 836.5 43 c 128,-1,9
 778 2 778 2 723 2 c 0,10,11
 692 2 692 2 664.5 10 c 128,-1,12
 637 18 637 18 611.5 28.5 c 128,-1,13
 586 39 586 39 557 47 c 128,-1,14
 528 55 528 55 498 55 c 0,15,16
 467 55 467 55 437.5 47 c 128,-1,17
 408 39 408 39 378 27.5 c 128,-1,18
 348 16 348 16 320.5 8 c 128,-1,19
 293 0 293 0 266 0 c 0,20,21
 199 0 199 0 145.5 61.5 c 128,-1,22
 92 123 92 123 61.5 216 c 128,-1,23
 31 309 31 309 22.5 416.5 c 128,-1,24
 14 524 14 524 33 616 c 0,25,26
 49 690 49 690 85 765 c 128,-1,27
 121 840 121 840 172 899 c 128,-1,28
 223 958 223 958 291.5 996 c 128,-1,29
 360 1034 360 1034 444 1034 c 0,30,31
 481 1034 481 1034 514 1027 c 128,-1,32
 547 1020 547 1020 575.5 1010.5 c 128,-1,33
 604 1001 604 1001 631.5 994 c 128,-1,34
 659 987 659 987 688 987 c 0,35,36
 721 987 721 987 753.5 995.5 c 128,-1,37
 786 1004 786 1004 820 1014 c 128,-1,38
 854 1024 854 1024 887 1032 c 128,-1,39
 920 1040 920 1040 954 1040 c 0,40,41
 1102 1040 1102 1040 1184 907 c 1,42,43
 1012 784 1012 784 981 645 c 0,44,45
 973 602 973 602 976 558 c 128,-1,46
 979 514 979 514 994.5 475 c 128,-1,47
 1010 436 1010 436 1038.5 406.5 c 128,-1,48
 1067 377 1067 377 1106 362 c 1,5,6
EndSplineSet
EndChar

StartChar: dotlessi
Encoding: 305 305 213
Width: 1118
VWidth: 2048
Flags: W
LayerCount: 2
Fore
SplineSet
647 0 m 1,0,-1
 88 0 l 1,1,-1
 113 117 l 1,2,-1
 324 117 l 1,3,-1
 471 811 l 1,4,-1
 260 811 l 1,5,-1
 285 932 l 1,6,-1
 633 932 l 1,7,-1
 461 117 l 1,8,-1
 672 117 l 1,9,-1
 647 0 l 1,0,-1
EndSplineSet
EndChar

StartChar: circumflex
Encoding: 710 710 214
Width: 1118
VWidth: 2048
Flags: W
LayerCount: 2
Fore
SplineSet
895 1081 m 1,0,-1
 827 1014 l 1,1,-1
 629 1219 l 1,2,-1
 340 1012 l 1,3,-1
 299 1077 l 1,4,-1
 657 1368 l 1,5,-1
 895 1081 l 1,0,-1
EndSplineSet
EndChar

StartChar: tilde
Encoding: 732 732 215
Width: 1118
VWidth: 2048
Flags: W
LayerCount: 2
Fore
SplineSet
1008 1229 m 1,0,1
 885 1071 885 1071 729 1071 c 0,2,3
 672 1071 672 1071 639 1089.5 c 128,-1,4
 606 1108 606 1108 583.5 1129.5 c 128,-1,5
 561 1151 561 1151 538.5 1169.5 c 128,-1,6
 516 1188 516 1188 477 1188 c 0,7,8
 375 1188 375 1188 287 1077 c 1,9,-1
 217 1124 l 1,10,11
 342 1280 342 1280 496 1280 c 0,12,13
 553 1280 553 1280 585.5 1261.5 c 128,-1,14
 618 1243 618 1243 641 1221.5 c 128,-1,15
 664 1200 664 1200 686.5 1181.5 c 128,-1,16
 709 1163 709 1163 748 1163 c 0,17,18
 850 1163 850 1163 938 1276 c 1,19,-1
 1008 1229 l 1,0,1
EndSplineSet
EndChar

StartChar: macron
Encoding: 175 175 216
Width: 1118
VWidth: 2048
Flags: W
LayerCount: 2
Fore
SplineSet
881 1106 m 1,0,-1
 322 1106 l 1,1,-1
 346 1219 l 1,2,-1
 905 1219 l 1,3,-1
 881 1106 l 1,0,-1
EndSplineSet
EndChar

StartChar: breve
Encoding: 728 728 217
Width: 1118
VWidth: 2048
Flags: W
LayerCount: 2
Fore
SplineSet
909 1210 m 1,0,1
 768 1094 768 1094 600 1094 c 256,2,3
 432 1094 432 1094 340 1210 c 1,4,-1
 434 1286 l 1,5,6
 508 1192 508 1192 621 1192 c 0,7,8
 733 1192 733 1192 848 1286 c 1,9,-1
 909 1210 l 1,0,1
EndSplineSet
EndChar

StartChar: dotaccent
Encoding: 729 729 218
Width: 1118
VWidth: 2048
Flags: W
LayerCount: 2
Fore
SplineSet
698 1118 m 1,0,-1
 512 1118 l 1,1,-1
 551 1305 l 1,2,-1
 737 1305 l 1,3,-1
 698 1118 l 1,0,-1
EndSplineSet
EndChar

StartChar: ring
Encoding: 730 730 219
Width: 1118
VWidth: 2048
Flags: W
LayerCount: 2
Fore
SplineSet
410 1257 m 0,0,1
 420 1305 420 1305 445.5 1345.5 c 128,-1,2
 471 1386 471 1386 509 1417 c 128,-1,3
 547 1448 547 1448 591 1465.5 c 128,-1,4
 635 1483 635 1483 682 1483 c 256,5,6
 729 1483 729 1483 767 1465.5 c 128,-1,7
 805 1448 805 1448 828.5 1417 c 128,-1,8
 852 1386 852 1386 861 1345.5 c 128,-1,9
 870 1305 870 1305 860 1257 c 0,10,11
 850 1210 850 1210 824.5 1169 c 128,-1,12
 799 1128 799 1128 761 1097.5 c 128,-1,13
 723 1067 723 1067 679 1049.5 c 128,-1,14
 635 1032 635 1032 588 1032 c 256,15,16
 541 1032 541 1032 503 1049.5 c 128,-1,17
 465 1067 465 1067 441.5 1097.5 c 128,-1,18
 418 1128 418 1128 408.5 1169 c 128,-1,19
 399 1210 399 1210 410 1257 c 0,0,1
500 1257 m 0,20,21
 487 1202 487 1202 519 1162 c 128,-1,22
 551 1122 551 1122 606 1122 c 0,23,24
 662 1122 662 1122 710 1162 c 128,-1,25
 758 1202 758 1202 770 1257 c 0,26,27
 782 1313 782 1313 750.5 1353 c 128,-1,28
 719 1393 719 1393 664 1393 c 0,29,30
 608 1393 608 1393 560 1353 c 128,-1,31
 512 1313 512 1313 500 1257 c 0,20,21
EndSplineSet
EndChar

StartChar: cedilla
Encoding: 184 184 220
Width: 1118
VWidth: 2048
Flags: W
LayerCount: 2
Fore
SplineSet
451 -41 m 1,0,1
 420 -188 420 -188 319 -276 c 0,2,3
 211 -371 211 -371 63 -371 c 1,4,-1
 88 -254 l 1,5,6
 291 -254 291 -254 336 -41 c 1,7,-1
 346 0 l 1,8,-1
 461 0 l 1,9,-1
 451 -41 l 1,0,1
EndSplineSet
EndChar

StartChar: hungarumlaut
Encoding: 733 733 221
Width: 1118
VWidth: 2048
Flags: W
LayerCount: 2
Fore
SplineSet
801 1024 m 1,0,-1
 659 1024 l 1,1,-1
 881 1399 l 1,2,-1
 1067 1399 l 1,3,-1
 801 1024 l 1,0,-1
428 1024 m 1,4,-1
 289 1024 l 1,5,-1
 508 1399 l 1,6,-1
 694 1399 l 1,7,-1
 428 1024 l 1,4,-1
EndSplineSet
EndChar

StartChar: ogonek
Encoding: 731 731 222
Width: 1118
VWidth: 2048
Flags: W
LayerCount: 2
Fore
SplineSet
840 -379 m 1,0,1
 715 -379 715 -379 656.5 -316.5 c 128,-1,2
 598 -254 598 -254 621 -152 c 0,3,4
 633 -88 633 -88 670 -42 c 128,-1,5
 707 4 707 4 754 39 c 1,6,-1
 782 0 l 1,7,8
 723 -45 723 -45 707 -121 c 0,9,10
 692 -193 692 -193 736 -241 c 128,-1,11
 780 -289 780 -289 860 -289 c 1,12,-1
 840 -379 l 1,0,1
EndSplineSet
EndChar

StartChar: caron
Encoding: 711 711 223
Width: 1118
VWidth: 2048
Flags: W
LayerCount: 2
Fore
SplineSet
940 1296 m 1,0,-1
 584 1012 l 1,1,-1
 346 1300 l 1,2,-1
 414 1368 l 1,3,-1
 616 1161 l 1,4,-1
 901 1364 l 1,5,-1
 940 1296 l 1,0,-1
EndSplineSet
EndChar

StartChar: exclam
Encoding: 33 33 224
Width: 1118
VWidth: 2048
Flags: W
LayerCount: 2
Fore
SplineSet
735 1305 m 1,0,-1
 485 367 l 1,1,-1
 403 367 l 1,2,-1
 551 1305 l 1,3,-1
 735 1305 l 1,0,-1
461 0 m 1,4,-1
 274 0 l 1,5,-1
 313 186 l 1,6,-1
 500 186 l 1,7,-1
 461 0 l 1,4,-1
EndSplineSet
EndChar

StartChar: quotedbl
Encoding: 34 34 225
Width: 1118
VWidth: 2048
Flags: W
LayerCount: 2
Fore
SplineSet
924 1305 m 1,0,-1
 784 840 l 1,1,-1
 682 840 l 1,2,-1
 737 1305 l 1,3,-1
 924 1305 l 1,0,-1
551 1305 m 1,4,-1
 410 840 l 1,5,-1
 309 840 l 1,6,-1
 365 1305 l 1,7,-1
 551 1305 l 1,4,-1
EndSplineSet
EndChar

StartChar: commaaccent
Encoding: 63171 63171 226
Width: 1118
VWidth: 2048
Flags: W
LayerCount: 2
Fore
SplineSet
489 -104 m 1,0,-1
 260 -373 l 1,1,-1
 133 -373 l 1,2,-1
 274 -104 l 1,3,-1
 489 -104 l 1,0,-1
EndSplineSet
EndChar

StartChar: currency
Encoding: 164 164 227
Width: 1118
VWidth: 2048
Flags: W
LayerCount: 2
Fore
SplineSet
1104 1079 m 1,0,-1
 961 963 l 1,1,2
 997 901 997 901 1006.5 821 c 128,-1,3
 1016 741 1016 741 997 649 c 0,4,5
 977 557 977 557 934 478 c 128,-1,6
 891 399 891 399 831 338 c 1,7,-1
 922 223 l 1,8,-1
 825 145 l 1,9,-1
 733 258 l 1,10,11
 662 211 662 211 578 186.5 c 128,-1,12
 494 162 494 162 401 162 c 0,13,14
 307 162 307 162 234.5 188.5 c 128,-1,15
 162 215 162 215 111 262 c 1,16,-1
 -29 145 l 1,17,-1
 -90 223 l 1,18,-1
 49 340 l 1,19,20
 14 401 14 401 6 479 c 128,-1,21
 -2 557 -2 557 18 649 c 0,22,23
 57 834 57 834 182 961 c 1,24,-1
 92 1079 l 1,25,-1
 186 1157 l 1,26,-1
 276 1038 l 1,27,28
 426 1141 426 1141 610 1141 c 0,29,30
 702 1141 702 1141 775 1114 c 128,-1,31
 848 1087 848 1087 897 1040 c 1,32,-1
 1040 1157 l 1,33,-1
 1104 1079 l 1,0,-1
858 649 m 256,34,35
 874 729 874 729 865 796.5 c 128,-1,36
 856 864 856 864 821 915.5 c 128,-1,37
 786 967 786 967 727 995.5 c 128,-1,38
 668 1024 668 1024 586 1024 c 256,39,40
 504 1024 504 1024 432 995.5 c 128,-1,41
 360 967 360 967 304 915.5 c 128,-1,42
 248 864 248 864 210 796.5 c 128,-1,43
 172 729 172 729 156 649 c 0,44,45
 139 569 139 569 148.5 501.5 c 128,-1,46
 158 434 158 434 191.5 385 c 128,-1,47
 225 336 225 336 285.5 308.5 c 128,-1,48
 346 281 346 281 428 281 c 256,49,50
 510 281 510 281 580.5 308.5 c 128,-1,51
 651 336 651 336 708.5 385 c 128,-1,52
 766 434 766 434 804 501.5 c 128,-1,53
 842 569 842 569 858 649 c 256,34,35
EndSplineSet
EndChar

StartChar: brokenbar
Encoding: 166 166 228
Width: 1118
VWidth: 2048
Flags: W
LayerCount: 2
Fore
SplineSet
395 -186 m 1,0,-1
 258 -186 l 1,1,-1
 418 559 l 1,2,-1
 555 559 l 1,3,-1
 395 -186 l 1,0,-1
594 745 m 1,4,-1
 457 745 l 1,5,-1
 614 1491 l 1,6,-1
 752 1491 l 1,7,-1
 594 745 l 1,4,-1
EndSplineSet
EndChar

StartChar: uni00AD
Encoding: 173 173 229
Width: 1118
VWidth: 2048
Flags: W
LayerCount: 2
Fore
SplineSet
922 420 m 1,0,-1
 -10 420 l 1,1,-1
 16 537 l 1,2,-1
 948 537 l 1,3,-1
 922 420 l 1,0,-1
EndSplineSet
EndChar

StartChar: twosuperior
Encoding: 178 178 230
Width: 1118
VWidth: 2048
Flags: W
LayerCount: 2
Fore
SplineSet
594 1151 m 0,0,1
 582 1096 582 1096 541 1051 c 0,2,3
 518 1022 518 1022 446 969 c 0,4,5
 418 946 418 946 376 914.5 c 128,-1,6
 334 883 334 883 279 836 c 1,7,-1
 426 836 l 1,8,-1
 442 909 l 1,9,-1
 541 909 l 1,10,-1
 506 745 l 1,11,-1
 100 745 l 1,12,-1
 117 823 l 1,13,-1
 420 1063 l 2,14,15
 477 1110 477 1110 485 1151 c 0,16,17
 494 1186 494 1186 469 1204.5 c 128,-1,18
 444 1223 444 1223 403 1223 c 0,19,20
 289 1223 289 1223 260 1085 c 1,21,-1
 158 1085 l 1,22,23
 207 1317 207 1317 424 1317 c 0,24,25
 508 1317 508 1317 555 1276 c 0,26,27
 610 1227 610 1227 594 1151 c 0,0,1
EndSplineSet
EndChar

StartChar: threesuperior
Encoding: 179 179 231
Width: 1118
VWidth: 2048
Flags: W
LayerCount: 2
Fore
SplineSet
528 909 m 0,0,1
 514 840 514 840 445.5 786.5 c 128,-1,2
 377 733 377 733 285 733 c 0,3,4
 80 733 80 733 98 936 c 1,5,-1
 207 950 l 1,6,7
 195 827 195 827 303 827 c 0,8,9
 344 827 344 827 378 852 c 128,-1,10
 412 877 412 877 420 909 c 0,11,12
 432 965 432 965 401 975 c 1,13,14
 387 985 387 985 319 985 c 1,15,-1
 340 1085 l 1,16,17
 446 1085 446 1085 461 1151 c 0,18,19
 477 1225 477 1225 389 1225 c 0,20,21
 276 1225 276 1225 250 1102 c 1,22,-1
 145 1102 l 1,23,24
 168 1208 168 1208 244 1264 c 0,25,26
 317 1315 317 1315 408 1315 c 0,27,28
 500 1315 500 1315 542 1269 c 128,-1,29
 584 1223 584 1223 569 1151 c 0,30,31
 553 1075 553 1075 479 1040 c 1,32,33
 545 987 545 987 528 909 c 0,0,1
EndSplineSet
EndChar

StartChar: onesuperior
Encoding: 185 185 232
Width: 1118
VWidth: 2048
Flags: W
LayerCount: 2
Fore
SplineSet
449 745 m 1,0,-1
 160 745 l 1,1,-1
 178 836 l 1,2,-1
 268 836 l 1,3,-1
 330 1126 l 1,4,5
 299 1075 299 1075 242.5 1038 c 128,-1,6
 186 1001 186 1001 113 1001 c 1,7,-1
 135 1100 l 1,8,9
 166 1100 166 1100 203 1114 c 128,-1,10
 240 1128 240 1128 272.5 1155 c 128,-1,11
 305 1182 305 1182 331.5 1219.5 c 128,-1,12
 358 1257 358 1257 369 1305 c 1,13,-1
 477 1305 l 1,14,-1
 377 836 l 1,15,-1
 467 836 l 1,16,-1
 449 745 l 1,0,-1
EndSplineSet
EndChar

StartChar: onequarter
Encoding: 188 188 233
Width: 1118
VWidth: 2048
Flags: W
LayerCount: 2
Fore
SplineSet
1102 1272 m 1,0,-1
 -8 -27 l 1,1,-1
 -90 33 l 1,2,-1
 1024 1335 l 1,3,-1
 1102 1272 l 1,0,-1
449 745 m 1,4,-1
 160 745 l 1,5,-1
 178 836 l 1,6,-1
 268 836 l 1,7,-1
 330 1126 l 1,8,9
 299 1075 299 1075 242.5 1038 c 128,-1,10
 186 1001 186 1001 113 1001 c 1,11,-1
 135 1100 l 1,12,13
 166 1100 166 1100 203 1114 c 128,-1,14
 240 1128 240 1128 272.5 1155 c 128,-1,15
 305 1182 305 1182 331.5 1219.5 c 128,-1,16
 358 1257 358 1257 369 1305 c 1,17,-1
 477 1305 l 1,18,-1
 377 836 l 1,19,-1
 467 836 l 1,20,-1
 449 745 l 1,4,-1
834 0 m 1,21,-1
 547 0 l 1,22,-1
 565 90 l 1,23,-1
 657 90 l 1,24,-1
 670 150 l 1,25,-1
 420 150 l 1,26,-1
 436 225 l 1,27,-1
 752 559 l 1,28,-1
 862 559 l 1,29,-1
 795 242 l 1,30,-1
 885 242 l 1,31,-1
 864 150 l 1,32,-1
 774 150 l 1,33,-1
 762 90 l 1,34,-1
 852 90 l 1,35,-1
 834 0 l 1,21,-1
690 242 m 1,36,-1
 723 401 l 1,37,-1
 571 242 l 1,38,-1
 690 242 l 1,36,-1
EndSplineSet
EndChar

StartChar: onehalf
Encoding: 189 189 234
Width: 1118
VWidth: 2048
Flags: W
LayerCount: 2
Fore
SplineSet
1102 1272 m 1,0,-1
 -8 -27 l 1,1,-1
 -90 33 l 1,2,-1
 1024 1335 l 1,3,-1
 1102 1272 l 1,0,-1
922 406 m 0,4,5
 909 350 909 350 866 305 c 1,6,7
 844 276 844 276 774 223 c 0,8,9
 743 201 743 201 702.5 169 c 128,-1,10
 662 137 662 137 606 90 c 1,11,-1
 754 90 l 1,12,-1
 770 164 l 1,13,-1
 868 164 l 1,14,-1
 834 0 l 1,15,-1
 428 0 l 1,16,-1
 444 78 l 1,17,-1
 745 317 l 2,18,19
 803 365 803 365 813 406 c 0,20,21
 819 440 819 440 795.5 458.5 c 128,-1,22
 772 477 772 477 731 477 c 0,23,24
 616 477 616 477 588 340 c 1,25,-1
 485 340 l 1,26,27
 535 571 535 571 752 571 c 0,28,29
 836 571 836 571 883 530 c 0,30,31
 936 481 936 481 922 406 c 0,4,5
449 745 m 1,32,-1
 160 745 l 1,33,-1
 178 836 l 1,34,-1
 268 836 l 1,35,-1
 330 1126 l 1,36,37
 299 1075 299 1075 242.5 1038 c 128,-1,38
 186 1001 186 1001 113 1001 c 1,39,-1
 135 1100 l 1,40,41
 166 1100 166 1100 203 1114 c 128,-1,42
 240 1128 240 1128 272.5 1155 c 128,-1,43
 305 1182 305 1182 331.5 1219.5 c 128,-1,44
 358 1257 358 1257 369 1305 c 1,45,-1
 477 1305 l 1,46,-1
 377 836 l 1,47,-1
 467 836 l 1,48,-1
 449 745 l 1,32,-1
EndSplineSet
EndChar

StartChar: threequarters
Encoding: 190 190 235
Width: 1118
VWidth: 2048
Flags: W
LayerCount: 2
Fore
SplineSet
528 909 m 0,0,1
 514 840 514 840 445.5 786.5 c 128,-1,2
 377 733 377 733 285 733 c 0,3,4
 80 733 80 733 98 936 c 1,5,-1
 207 950 l 1,6,7
 195 827 195 827 303 827 c 0,8,9
 344 827 344 827 378 852 c 128,-1,10
 412 877 412 877 420 909 c 0,11,12
 432 965 432 965 401 975 c 1,13,14
 387 985 387 985 319 985 c 1,15,-1
 340 1085 l 1,16,17
 446 1085 446 1085 461 1151 c 0,18,19
 477 1225 477 1225 389 1225 c 0,20,21
 276 1225 276 1225 250 1102 c 1,22,-1
 145 1102 l 1,23,24
 168 1208 168 1208 244 1264 c 0,25,26
 317 1315 317 1315 408 1315 c 0,27,28
 500 1315 500 1315 542 1269 c 128,-1,29
 584 1223 584 1223 569 1151 c 0,30,31
 553 1075 553 1075 479 1040 c 1,32,33
 545 987 545 987 528 909 c 0,0,1
1102 1272 m 1,34,-1
 -8 -27 l 1,35,-1
 -90 33 l 1,36,-1
 1024 1335 l 1,37,-1
 1102 1272 l 1,34,-1
834 0 m 1,38,-1
 547 0 l 1,39,-1
 565 90 l 1,40,-1
 657 90 l 1,41,-1
 670 150 l 1,42,-1
 420 150 l 1,43,-1
 436 225 l 1,44,-1
 752 559 l 1,45,-1
 862 559 l 1,46,-1
 795 242 l 1,47,-1
 885 242 l 1,48,-1
 864 150 l 1,49,-1
 774 150 l 1,50,-1
 762 90 l 1,51,-1
 852 90 l 1,52,-1
 834 0 l 1,38,-1
690 242 m 1,53,-1
 723 401 l 1,54,-1
 571 242 l 1,55,-1
 690 242 l 1,53,-1
EndSplineSet
EndChar

StartChar: Eth
Encoding: 208 208 236
Width: 1118
VWidth: 2048
Flags: W
LayerCount: 2
Fore
SplineSet
1014 653 m 0,0,1
 985 518 985 518 931 399.5 c 128,-1,2
 877 281 877 281 796 191.5 c 128,-1,3
 715 102 715 102 609.5 51 c 128,-1,4
 504 0 504 0 375 0 c 2,5,-1
 -49 0 l 1,6,-1
 78 606 l 1,7,-1
 -88 606 l 1,8,-1
 -61 723 l 1,9,-1
 104 723 l 1,10,-1
 227 1305 l 1,11,-1
 651 1305 l 2,12,13
 788 1305 788 1305 872 1251.5 c 128,-1,14
 956 1198 956 1198 997 1108 c 128,-1,15
 1038 1018 1038 1018 1040 900 c 128,-1,16
 1042 782 1042 782 1014 653 c 0,0,1
877 653 m 0,17,18
 932 909 932 909 865.5 1048.5 c 128,-1,19
 799 1188 799 1188 627 1188 c 2,20,-1
 340 1188 l 1,21,-1
 242 723 l 1,22,-1
 496 723 l 1,23,-1
 469 606 l 1,24,-1
 215 606 l 1,25,-1
 113 117 l 1,26,-1
 399 117 l 2,27,28
 571 117 571 117 697 257 c 128,-1,29
 823 397 823 397 877 653 c 0,17,18
EndSplineSet
EndChar

StartChar: multiply
Encoding: 215 215 237
Width: 1118
VWidth: 2048
Flags: W
LayerCount: 2
Fore
SplineSet
901 768 m 1,0,-1
 547 478 l 1,1,-1
 776 187 l 1,2,-1
 680 109 l 1,3,-1
 453 400 l 1,4,-1
 100 109 l 1,5,-1
 39 187 l 1,6,-1
 389 478 l 1,7,-1
 164 768 l 1,8,-1
 258 846 l 1,9,-1
 485 555 l 1,10,-1
 838 846 l 1,11,-1
 901 768 l 1,0,-1
EndSplineSet
EndChar

StartChar: Thorn
Encoding: 222 222 239
Width: 1118
VWidth: 2048
Flags: W
LayerCount: 2
Fore
SplineSet
971 664 m 0,0,1
 893 291 893 291 393 291 c 2,2,-1
 150 291 l 1,3,-1
 88 0 l 1,4,-1
 -49 0 l 1,5,-1
 227 1305 l 1,6,-1
 365 1305 l 1,7,-1
 307 1036 l 1,8,-1
 551 1036 l 2,9,10
 1051 1036 1051 1036 971 664 c 0,0,1
831 664 m 0,11,12
 887 918 887 918 526 918 c 2,13,-1
 283 918 l 1,14,-1
 174 406 l 1,15,-1
 418 406 l 2,16,17
 598 406 598 406 701.5 471.5 c 128,-1,18
 805 537 805 537 831 664 c 0,11,12
EndSplineSet
EndChar

StartChar: eth
Encoding: 240 240 240
Width: 1118
VWidth: 2048
Flags: W
LayerCount: 2
Fore
SplineSet
342 977 m 1,0,-1
 535 1137 l 1,1,2
 500 1159 500 1159 460 1176.5 c 128,-1,3
 420 1194 420 1194 377 1210 c 1,4,-1
 446 1327 l 1,5,6
 555 1282 555 1282 645 1229 c 1,7,-1
 819 1372 l 1,8,-1
 881 1292 l 1,9,-1
 733 1169 l 1,10,11
 803 1118 803 1118 856 1054.5 c 128,-1,12
 909 991 909 991 941 913.5 c 128,-1,13
 973 836 973 836 981 742.5 c 128,-1,14
 989 649 989 649 965 537 c 0,15,16
 938 408 938 408 879.5 304.5 c 128,-1,17
 821 201 821 201 738 128 c 128,-1,18
 655 55 655 55 550.5 16 c 128,-1,19
 446 -23 446 -23 326 -23 c 0,20,21
 121 -23 121 -23 18.5 73.5 c 128,-1,22
 -84 170 -84 170 -45 354 c 0,23,24
 -23 459 -23 459 53 540 c 128,-1,25
 129 621 129 621 243.5 682 c 128,-1,26
 358 743 358 743 502.5 785 c 128,-1,27
 647 827 647 827 809 852 c 1,28,29
 782 922 782 922 734 977 c 128,-1,30
 686 1032 686 1032 625 1079 c 1,31,-1
 403 897 l 1,32,-1
 342 977 l 1,0,-1
827 537 m 0,33,34
 840 592 840 592 842 642 c 128,-1,35
 844 692 844 692 838 739 c 1,36,37
 690 723 690 723 560 688 c 128,-1,38
 430 653 430 653 331.5 604 c 128,-1,39
 233 555 233 555 171 492.5 c 128,-1,40
 109 430 109 430 92 354 c 0,41,42
 68 238 68 238 136.5 166 c 128,-1,43
 205 94 205 94 350 94 c 0,44,45
 442 94 442 94 520 126 c 128,-1,46
 598 158 598 158 659.5 216 c 128,-1,47
 721 274 721 274 764 356 c 128,-1,48
 807 438 807 438 827 537 c 0,33,34
EndSplineSet
EndChar

StartChar: thorn
Encoding: 254 254 242
Width: 1118
VWidth: 2048
Flags: W
LayerCount: 2
Fore
SplineSet
934 465 m 0,0,1
 909 356 909 356 858 267 c 128,-1,2
 807 178 807 178 732 112.5 c 128,-1,3
 657 47 657 47 562 11 c 128,-1,4
 467 -25 467 -25 356 -25 c 0,5,6
 207 -25 207 -25 102 74 c 1,7,-1
 8 -373 l 1,8,-1
 -127 -373 l 1,9,-1
 227 1305 l 1,10,-1
 365 1305 l 1,11,-1
 268 856 l 1,12,13
 416 954 416 954 565 954 c 0,14,15
 672 954 672 954 751.5 919.5 c 128,-1,16
 831 885 831 885 879.5 821.5 c 128,-1,17
 928 758 928 758 942 668 c 128,-1,18
 956 578 956 578 934 465 c 0,0,1
795 465 m 0,19,20
 811 547 811 547 804 615.5 c 128,-1,21
 797 684 797 684 767 734 c 128,-1,22
 737 784 737 784 680 813 c 128,-1,23
 623 842 623 842 541 842 c 0,24,25
 385 842 385 842 240 715 c 1,26,-1
 133 215 l 1,27,28
 223 86 223 86 379 86 c 0,29,30
 461 86 461 86 530.5 114.5 c 128,-1,31
 600 143 600 143 652.5 194.5 c 128,-1,32
 705 246 705 246 740.5 315.5 c 128,-1,33
 776 385 776 385 795 465 c 0,19,20
EndSplineSet
EndChar

StartChar: Aogonek
Encoding: 260 260 247
Width: 1118
VWidth: 2048
Flags: W
LayerCount: 2
Fore
SplineSet
954 -379 m 1,0,1
 829 -379 829 -379 771 -316.5 c 128,-1,2
 713 -254 713 -254 735 -152 c 0,3,4
 745 -104 745 -104 769 -66.5 c 128,-1,5
 793 -29 793 -29 821 0 c 1,6,-1
 750 0 l 1,7,-1
 705 373 l 1,8,-1
 188 373 l 1,9,-1
 -10 0 l 1,10,-1
 -158 0 l 1,11,-1
 553 1305 l 1,12,-1
 739 1305 l 1,13,-1
 897 0 l 1,14,15
 838 -45 838 -45 821 -121 c 0,16,17
 807 -193 807 -193 851 -241 c 128,-1,18
 895 -289 895 -289 975 -289 c 1,19,-1
 954 -379 l 1,0,1
692 494 m 1,20,-1
 616 1167 l 1,21,-1
 254 494 l 1,22,-1
 692 494 l 1,20,-1
EndSplineSet
EndChar

StartChar: aogonek
Encoding: 261 261 248
Width: 1118
VWidth: 2048
Flags: W
LayerCount: 2
Fore
SplineSet
784 0 m 1,0,1
 756 -23 756 -23 735.5 -54.5 c 128,-1,2
 715 -86 715 -86 707 -121 c 0,3,4
 692 -193 692 -193 736 -241 c 128,-1,5
 780 -289 780 -289 860 -289 c 1,6,-1
 840 -379 l 1,7,8
 715 -379 715 -379 656.5 -316.5 c 128,-1,9
 598 -254 598 -254 621 -152 c 0,10,11
 631 -104 631 -104 654.5 -66.5 c 128,-1,12
 678 -29 678 -29 707 0 c 1,13,-1
 647 0 l 1,14,-1
 680 156 l 1,15,16
 633 111 633 111 580.5 77 c 128,-1,17
 528 43 528 43 474 21.5 c 128,-1,18
 420 0 420 0 366.5 -11.5 c 128,-1,19
 313 -23 313 -23 268 -23 c 0,20,21
 84 -23 84 -23 4 48 c 128,-1,22
 -76 119 -76 119 -47 252 c 0,23,24
 -29 340 -29 340 27.5 399.5 c 128,-1,25
 84 459 84 459 163 493.5 c 128,-1,26
 242 528 242 528 338 543.5 c 128,-1,27
 434 559 434 559 530 559 c 0,28,29
 567 559 567 559 596 558 c 128,-1,30
 625 557 625 557 651.5 555 c 128,-1,31
 678 553 678 553 703.5 550 c 128,-1,32
 729 547 729 547 762 543 c 1,33,-1
 776 610 l 2,34,35
 791 678 791 678 770.5 722 c 128,-1,36
 750 766 750 766 712 791.5 c 128,-1,37
 674 817 674 817 629 827.5 c 128,-1,38
 584 838 584 838 551 838 c 0,39,40
 446 838 446 838 353 810 c 128,-1,41
 260 782 260 782 174 735 c 1,42,-1
 133 838 l 1,43,44
 229 889 229 889 341 921.5 c 128,-1,45
 453 954 453 954 578 954 c 0,46,47
 653 954 653 954 723 934.5 c 128,-1,48
 793 915 793 915 842 874.5 c 128,-1,49
 891 834 891 834 911.5 768 c 128,-1,50
 932 702 932 702 913 610 c 2,51,-1
 784 0 l 1,0,1
293 94 m 0,52,53
 379 94 379 94 453.5 119.5 c 128,-1,54
 528 145 528 145 583.5 183 c 128,-1,55
 639 221 639 221 675 264 c 128,-1,56
 711 307 711 307 719 342 c 2,57,-1
 737 430 l 1,58,59
 672 440 672 440 610.5 441 c 128,-1,60
 549 442 549 442 504 442 c 0,61,62
 430 442 430 442 359.5 432 c 128,-1,63
 289 422 289 422 233.5 399.5 c 128,-1,64
 178 377 178 377 139 341 c 128,-1,65
 100 305 100 305 90 252 c 0,66,67
 76 193 76 193 123 143.5 c 128,-1,68
 170 94 170 94 293 94 c 0,52,53
EndSplineSet
EndChar

StartChar: dcaron
Encoding: 271 271 258
Width: 1118
VWidth: 2048
Flags: W
LayerCount: 2
Fore
SplineSet
647 0 m 1,0,-1
 510 0 l 1,1,-1
 526 86 l 1,2,3
 469 33 469 33 404.5 5 c 128,-1,4
 340 -23 340 -23 281 -23 c 0,5,6
 190 -23 190 -23 126.5 13 c 128,-1,7
 63 49 63 49 27.5 113.5 c 128,-1,8
 -8 178 -8 178 -15.5 268 c 128,-1,9
 -23 358 -23 358 0 465 c 0,10,11
 23 571 23 571 69 661.5 c 128,-1,12
 115 752 115 752 177.5 816.5 c 128,-1,13
 240 881 240 881 319.5 917.5 c 128,-1,14
 399 954 399 954 489 954 c 0,15,16
 549 954 549 954 601 927.5 c 128,-1,17
 653 901 653 901 688 848 c 1,18,-1
 762 1188 l 1,19,-1
 575 1188 l 1,20,-1
 600 1305 l 1,21,-1
 924 1305 l 1,22,-1
 647 0 l 1,0,-1
662 715 m 1,23,24
 627 780 627 780 578.5 809 c 128,-1,25
 530 838 530 838 471 838 c 0,26,27
 410 838 410 838 355.5 809 c 128,-1,28
 301 780 301 780 258 730 c 128,-1,29
 215 680 215 680 183.5 612.5 c 128,-1,30
 152 545 152 545 135 465 c 0,31,32
 117 385 117 385 120 317.5 c 128,-1,33
 123 250 123 250 145.5 200 c 128,-1,34
 168 150 168 150 210 121 c 128,-1,35
 252 92 252 92 313 92 c 0,36,37
 436 92 436 92 555 217 c 1,38,-1
 662 715 l 1,23,24
1251 1304 m 1,39,-1
 1069 839 l 1,40,-1
 969 839 l 1,41,-1
 1067 1304 l 1,42,-1
 1251 1304 l 1,39,-1
EndSplineSet
EndChar

StartChar: dcroat
Encoding: 273 273 260
Width: 1118
VWidth: 2048
Flags: W
LayerCount: 2
Fore
SplineSet
1182 1001 m 1,0,-1
 995 1001 l 1,1,-1
 784 0 l 1,2,-1
 647 0 l 1,3,-1
 664 86 l 1,4,5
 594 33 594 33 517 5 c 128,-1,6
 440 -23 440 -23 367 -23 c 0,7,8
 256 -23 256 -23 176 13 c 128,-1,9
 96 49 96 49 49 113.5 c 128,-1,10
 2 178 2 178 -11.5 268 c 128,-1,11
 -25 358 -25 358 -2 465 c 0,12,13
 20 571 20 571 72.5 661.5 c 128,-1,14
 125 752 125 752 198.5 816.5 c 128,-1,15
 272 881 272 881 368.5 917.5 c 128,-1,16
 465 954 465 954 575 954 c 0,17,18
 649 954 649 954 713.5 927.5 c 128,-1,19
 778 901 778 901 825 848 c 1,20,-1
 858 1001 l 1,21,-1
 672 1001 l 1,22,-1
 698 1118 l 1,23,-1
 885 1118 l 1,24,-1
 924 1305 l 1,25,-1
 1061 1305 l 1,26,-1
 1022 1118 l 1,27,-1
 1208 1118 l 1,28,-1
 1182 1001 l 1,0,-1
799 715 m 1,29,30
 752 780 752 780 688.5 809 c 128,-1,31
 625 838 625 838 547 838 c 0,32,33
 465 838 465 838 396.5 809 c 128,-1,34
 328 780 328 780 275.5 730 c 128,-1,35
 223 680 223 680 187.5 612.5 c 128,-1,36
 152 545 152 545 135 465 c 0,37,38
 117 385 117 385 124 317.5 c 128,-1,39
 131 250 131 250 163 200 c 128,-1,40
 195 150 195 150 251 121 c 128,-1,41
 307 92 307 92 389 92 c 0,42,43
 547 92 547 92 692 217 c 1,44,-1
 799 715 l 1,29,30
EndSplineSet
EndChar

StartChar: Eogonek
Encoding: 280 280 267
Width: 1118
VWidth: 2048
Flags: W
LayerCount: 2
Fore
SplineSet
844 -379 m 1,0,1
 719 -379 719 -379 660.5 -316.5 c 128,-1,2
 602 -254 602 -254 625 -152 c 0,3,4
 635 -104 635 -104 658.5 -66.5 c 128,-1,5
 682 -29 682 -29 711 0 c 1,6,-1
 -49 0 l 1,7,-1
 227 1305 l 1,8,-1
 1061 1305 l 1,9,-1
 1036 1188 l 1,10,-1
 340 1188 l 1,11,-1
 240 721 l 1,12,-1
 754 721 l 1,13,-1
 729 604 l 1,14,-1
 215 604 l 1,15,-1
 113 117 l 1,16,-1
 809 117 l 1,17,-1
 784 2 l 1,18,-1
 786 0 l 1,19,20
 727 -45 727 -45 711 -121 c 0,21,22
 696 -193 696 -193 740 -241 c 128,-1,23
 784 -289 784 -289 864 -289 c 1,24,-1
 844 -379 l 1,0,1
EndSplineSet
EndChar

StartChar: eogonek
Encoding: 281 281 268
Width: 1118
VWidth: 2048
Flags: W
LayerCount: 2
Fore
SplineSet
561 2 m 1,0,1
 532 -20 532 -20 514 -53 c 128,-1,2
 496 -86 496 -86 487 -121 c 0,3,4
 473 -193 473 -193 517 -241 c 128,-1,5
 561 -289 561 -289 641 -289 c 1,6,-1
 621 -379 l 1,7,8
 496 -379 496 -379 437.5 -316.5 c 128,-1,9
 379 -254 379 -254 401 -152 c 0,10,11
 410 -111 410 -111 428 -78 c 128,-1,12
 446 -45 446 -45 471 -16 c 1,13,14
 426 -23 426 -23 383 -23 c 0,15,16
 274 -23 274 -23 192.5 13 c 128,-1,17
 111 49 111 49 58.5 113.5 c 128,-1,18
 6 178 6 178 -11.5 267 c 128,-1,19
 -29 356 -29 356 -4 465 c 0,20,21
 18 571 18 571 69.5 660.5 c 128,-1,22
 121 750 121 750 196.5 815.5 c 128,-1,23
 272 881 272 881 368.5 917.5 c 128,-1,24
 465 954 465 954 573 954 c 0,25,26
 692 954 692 954 772 914 c 128,-1,27
 852 874 852 874 897 803.5 c 128,-1,28
 942 733 942 733 949 635 c 128,-1,29
 956 537 956 537 932 418 c 1,30,-1
 127 418 l 1,31,32
 111 270 111 270 184.5 182 c 128,-1,33
 258 94 258 94 408 94 c 0,34,35
 512 94 512 94 603 137 c 128,-1,36
 694 180 694 180 750 244 c 1,37,-1
 831 178 l 1,38,39
 709 47 709 47 561 2 c 1,0,1
811 535 m 1,40,41
 821 688 821 688 748.5 763 c 128,-1,42
 676 838 676 838 547 838 c 0,43,44
 481 838 481 838 420.5 816.5 c 128,-1,45
 360 795 360 795 309 755 c 128,-1,46
 258 715 258 715 217 658.5 c 128,-1,47
 176 602 176 602 154 535 c 1,48,-1
 811 535 l 1,40,41
EndSplineSet
EndChar

StartChar: gcommaaccent
Encoding: 291 291 278
Width: 1118
VWidth: 2048
Flags: W
LayerCount: 2
Fore
SplineSet
520 1118 m 1,0,-1
 872 1491 l 1,1,-1
 969 1491 l 1,2,-1
 705 1118 l 1,3,-1
 520 1118 l 1,0,-1
786 10 m 2,4,5
 766 -86 766 -86 717 -161 c 128,-1,6
 668 -236 668 -236 597 -288 c 128,-1,7
 526 -340 526 -340 439 -367.5 c 128,-1,8
 352 -395 352 -395 254 -395 c 0,9,10
 115 -395 115 -395 29 -343 c 128,-1,11
 -57 -291 -57 -291 -104 -193 c 1,12,-1
 4 -119 l 1,13,14
 33 -184 33 -184 104.5 -228 c 128,-1,15
 176 -272 176 -272 281 -272 c 0,16,17
 422 -272 422 -272 520 -200.5 c 128,-1,18
 618 -129 618 -129 647 6 c 2,19,-1
 670 106 l 1,20,21
 522 -2 522 -2 367 -2 c 0,22,23
 147 -2 147 -2 49 123 c 128,-1,24
 -49 248 -49 248 -2 465 c 0,25,26
 20 571 20 571 71.5 660.5 c 128,-1,27
 123 750 123 750 197.5 815.5 c 128,-1,28
 272 881 272 881 367.5 917.5 c 128,-1,29
 463 954 463 954 571 954 c 0,30,31
 647 954 647 954 712.5 927.5 c 128,-1,32
 778 901 778 901 825 848 c 1,33,-1
 844 932 l 1,34,-1
 981 932 l 1,35,-1
 786 10 l 2,4,5
799 715 m 1,36,37
 752 780 752 780 687.5 809 c 128,-1,38
 623 838 623 838 545 838 c 0,39,40
 463 838 463 838 394.5 809 c 128,-1,41
 326 780 326 780 274.5 730 c 128,-1,42
 223 680 223 680 187.5 611.5 c 128,-1,43
 152 543 152 543 135 465 c 0,44,45
 100 305 100 305 162.5 210 c 128,-1,46
 225 115 225 115 391 115 c 0,47,48
 469 115 469 115 547 144.5 c 128,-1,49
 625 174 625 174 696 240 c 1,50,-1
 799 715 l 1,36,37
EndSplineSet
EndChar

StartChar: Hbar
Encoding: 294 294 281
Width: 1118
VWidth: 2048
Flags: W
LayerCount: 2
Fore
SplineSet
1016 1096 m 1,0,-1
 1204 1096 l 1,1,-1
 1182 983 l 1,2,-1
 993 983 l 1,3,-1
 784 0 l 1,4,-1
 647 0 l 1,5,-1
 774 604 l 1,6,-1
 215 604 l 1,7,-1
 88 0 l 1,8,-1
 -49 0 l 1,9,-1
 160 983 l 1,10,-1
 -27 983 l 1,11,-1
 -4 1096 l 1,12,-1
 182 1096 l 1,13,-1
 227 1305 l 1,14,-1
 365 1305 l 1,15,-1
 319 1096 l 1,16,-1
 879 1096 l 1,17,-1
 924 1305 l 1,18,-1
 1061 1305 l 1,19,-1
 1016 1096 l 1,0,-1
799 721 m 1,20,-1
 856 983 l 1,21,-1
 297 983 l 1,22,-1
 240 721 l 1,23,-1
 799 721 l 1,20,-1
EndSplineSet
EndChar

StartChar: hbar
Encoding: 295 295 282
Width: 1118
VWidth: 2048
Flags: W
LayerCount: 2
Fore
SplineSet
784 0 m 1,0,-1
 647 0 l 1,1,-1
 768 575 l 2,2,3
 795 700 795 700 755 769 c 128,-1,4
 715 838 715 838 594 838 c 0,5,6
 518 838 518 838 449.5 803 c 128,-1,7
 381 768 381 768 325.5 709.5 c 128,-1,8
 270 651 270 651 231.5 575.5 c 128,-1,9
 193 500 193 500 176 418 c 2,10,-1
 88 0 l 1,11,-1
 -49 0 l 1,12,-1
 164 1006 l 1,13,-1
 -23 1006 l 1,14,-1
 2 1118 l 1,15,-1
 188 1118 l 1,16,-1
 227 1305 l 1,17,-1
 365 1305 l 1,18,-1
 326 1118 l 1,19,-1
 512 1118 l 1,20,-1
 487 1006 l 1,21,-1
 301 1006 l 1,22,-1
 236 698 l 1,23,24
 389 954 389 954 643 954 c 0,25,26
 987 954 987 954 905 575 c 2,27,-1
 784 0 l 1,0,-1
EndSplineSet
EndChar

StartChar: Iogonek
Encoding: 302 302 289
Width: 1118
VWidth: 2048
Flags: W
LayerCount: 2
Fore
SplineSet
705 -379 m 1,0,1
 580 -379 580 -379 521.5 -316.5 c 128,-1,2
 463 -254 463 -254 485 -152 c 0,3,4
 496 -104 496 -104 519.5 -66.5 c 128,-1,5
 543 -29 543 -29 571 0 c 1,6,-1
 88 0 l 1,7,-1
 113 117 l 1,8,-1
 324 117 l 1,9,-1
 551 1188 l 1,10,-1
 340 1188 l 1,11,-1
 365 1305 l 1,12,-1
 924 1305 l 1,13,-1
 899 1188 l 1,14,-1
 688 1188 l 1,15,-1
 461 117 l 1,16,-1
 672 117 l 1,17,-1
 647 0 l 1,18,19
 588 -45 588 -45 571 -121 c 0,20,21
 557 -193 557 -193 601 -241 c 128,-1,22
 645 -289 645 -289 725 -289 c 1,23,-1
 705 -379 l 1,0,1
EndSplineSet
EndChar

StartChar: iogonek
Encoding: 303 303 290
Width: 1118
VWidth: 2048
Flags: W
LayerCount: 2
Fore
SplineSet
705 -379 m 1,0,1
 580 -379 580 -379 521.5 -316.5 c 128,-1,2
 463 -254 463 -254 485 -152 c 0,3,4
 496 -104 496 -104 519.5 -66.5 c 128,-1,5
 543 -29 543 -29 571 0 c 1,6,-1
 88 0 l 1,7,-1
 113 117 l 1,8,-1
 324 117 l 1,9,-1
 471 815 l 1,10,-1
 260 815 l 1,11,-1
 285 932 l 1,12,-1
 633 932 l 1,13,-1
 461 117 l 1,14,-1
 672 117 l 1,15,-1
 647 0 l 1,16,17
 588 -45 588 -45 571 -121 c 0,18,19
 557 -193 557 -193 601 -241 c 128,-1,20
 645 -289 645 -289 725 -289 c 1,21,-1
 705 -379 l 1,0,1
698 1118 m 1,22,-1
 512 1118 l 1,23,-1
 551 1305 l 1,24,-1
 737 1305 l 1,25,-1
 698 1118 l 1,22,-1
EndSplineSet
EndChar

StartChar: IJ
Encoding: 306 306 292
Width: 1118
VWidth: 2048
Flags: W
LayerCount: 2
Fore
SplineSet
121 -170 m 1,0,1
 158 -227 158 -227 216 -253 c 128,-1,2
 274 -279 274 -279 346 -279 c 0,3,4
 438 -279 438 -279 502.5 -242 c 128,-1,5
 567 -205 567 -205 610 -147.5 c 128,-1,6
 653 -90 653 -90 680 -18.5 c 128,-1,7
 707 53 707 53 721 125 c 2,8,-1
 973 1305 l 1,9,-1
 1110 1305 l 1,10,-1
 858 125 l 2,11,12
 807 -123 807 -123 672 -259 c 128,-1,13
 537 -395 537 -395 319 -395 c 0,14,15
 109 -395 109 -395 14 -266 c 1,16,-1
 121 -170 l 1,0,1
461 0 m 1,17,-1
 -98 0 l 1,18,-1
 -73 117 l 1,19,-1
 138 117 l 1,20,-1
 365 1188 l 1,21,-1
 154 1188 l 1,22,-1
 179 1305 l 1,23,-1
 738 1305 l 1,24,-1
 713 1188 l 1,25,-1
 502 1188 l 1,26,-1
 275 117 l 1,27,-1
 486 117 l 1,28,-1
 461 0 l 1,17,-1
EndSplineSet
EndChar

StartChar: ij
Encoding: 307 307 293
Width: 1118
VWidth: 2048
Flags: W
LayerCount: 2
Fore
SplineSet
512 1118 m 1,0,-1
 326 1118 l 1,1,-1
 365 1305 l 1,2,-1
 551 1305 l 1,3,-1
 512 1118 l 1,0,-1
461 0 m 1,4,-1
 -98 0 l 1,5,-1
 -74 117 l 1,6,-1
 137 117 l 1,7,-1
 285 815 l 1,8,-1
 74 815 l 1,9,-1
 98 932 l 1,10,-1
 446 932 l 1,11,-1
 274 117 l 1,12,-1
 485 117 l 1,13,-1
 461 0 l 1,4,-1
1071 1118 m 1,14,-1
 885 1118 l 1,15,-1
 924 1305 l 1,16,-1
 1110 1305 l 1,17,-1
 1071 1118 l 1,14,-1
350 -395 m 0,18,19
 104 -395 104 -395 51 -193 c 1,20,-1
 170 -121 l 1,21,22
 190 -197 190 -197 240.5 -238 c 128,-1,23
 291 -279 291 -279 377 -279 c 0,24,25
 444 -279 444 -279 494.5 -259.5 c 128,-1,26
 545 -240 545 -240 578.5 -204 c 128,-1,27
 612 -168 612 -168 634.5 -117 c 128,-1,28
 657 -66 657 -66 672 0 c 2,29,-1
 844 815 l 1,30,-1
 633 815 l 1,31,-1
 657 932 l 1,32,-1
 1006 932 l 1,33,-1
 809 0 l 2,34,35
 770 -180 770 -180 652.5 -287.5 c 128,-1,36
 535 -395 535 -395 350 -395 c 0,18,19
EndSplineSet
EndChar

StartChar: jcircumflex
Encoding: 309 309 295
Width: 1118
VWidth: 2048
Flags: W
LayerCount: 2
Fore
SplineSet
164 -395 m 0,0,1
 -82 -395 -82 -395 -133 -193 c 1,2,-1
 -16 -121 l 1,3,4
 4 -197 4 -197 54 -238 c 128,-1,5
 104 -279 104 -279 190 -279 c 0,6,7
 258 -279 258 -279 308 -259.5 c 128,-1,8
 358 -240 358 -240 392 -204 c 128,-1,9
 426 -168 426 -168 448.5 -117 c 128,-1,10
 471 -66 471 -66 485 0 c 2,11,-1
 657 815 l 1,12,-1
 446 815 l 1,13,-1
 471 932 l 1,14,-1
 819 932 l 1,15,-1
 623 0 l 2,16,17
 584 -180 584 -180 466 -287.5 c 128,-1,18
 348 -395 348 -395 164 -395 c 0,0,1
1022 1081 m 1,19,-1
 954 1014 l 1,20,-1
 756 1219 l 1,21,-1
 467 1012 l 1,22,-1
 426 1077 l 1,23,-1
 784 1368 l 1,24,-1
 1022 1081 l 1,19,-1
EndSplineSet
EndChar

StartChar: kgreenlandic
Encoding: 312 312 298
Width: 1118
VWidth: 2048
Flags: W
LayerCount: 2
Fore
SplineSet
831 0 m 1,0,-1
 637 0 l 1,1,-1
 344 418 l 1,2,-1
 143 264 l 1,3,-1
 88 0 l 1,4,-1
 -49 0 l 1,5,-1
 147 932 l 1,6,-1
 285 932 l 1,7,-1
 178 430 l 1,8,-1
 815 932 l 1,9,-1
 1012 932 l 1,10,-1
 455 504 l 1,11,-1
 831 0 l 1,0,-1
EndSplineSet
EndChar

StartChar: Lslash
Encoding: 321 321 307
Width: 1118
VWidth: 2048
Flags: W
LayerCount: 2
Fore
SplineSet
784 0 m 1,0,-1
 -49 0 l 1,1,-1
 70 563 l 1,2,-1
 -154 494 l 1,3,-1
 -127 621 l 1,4,-1
 96 690 l 1,5,-1
 227 1305 l 1,6,-1
 365 1305 l 1,7,-1
 244 737 l 1,8,-1
 469 807 l 1,9,-1
 442 680 l 1,10,-1
 217 610 l 1,11,-1
 113 119 l 1,12,-1
 809 119 l 1,13,-1
 784 0 l 1,0,-1
EndSplineSet
EndChar

StartChar: lslash
Encoding: 322 322 308
Width: 1118
VWidth: 2048
Flags: W
LayerCount: 2
Fore
SplineSet
444 690 m 1,0,-1
 551 1186 l 1,1,-1
 340 1186 l 1,2,-1
 365 1305 l 1,3,-1
 713 1305 l 1,4,-1
 592 737 l 1,5,-1
 817 807 l 1,6,-1
 791 680 l 1,7,-1
 565 610 l 1,8,-1
 461 119 l 1,9,-1
 672 119 l 1,10,-1
 647 0 l 1,11,-1
 88 0 l 1,12,-1
 113 119 l 1,13,-1
 324 119 l 1,14,-1
 418 563 l 1,15,-1
 193 494 l 1,16,-1
 219 621 l 1,17,-1
 444 690 l 1,0,-1
EndSplineSet
EndChar

StartChar: Eng
Encoding: 330 330 316
Width: 1118
VWidth: 2048
Flags: W
LayerCount: 2
Fore
SplineSet
809 125 m 2,0,1
 758 -123 758 -123 622.5 -259 c 128,-1,2
 487 -395 487 -395 270 -395 c 0,3,4
 59 -395 59 -395 -35 -266 c 1,5,-1
 72 -170 l 1,6,7
 109 -227 109 -227 167 -253 c 128,-1,8
 225 -279 225 -279 297 -279 c 0,9,10
 362 -279 362 -279 413.5 -259.5 c 128,-1,11
 465 -240 465 -240 504 -207 c 128,-1,12
 543 -174 543 -174 573.5 -130 c 128,-1,13
 604 -86 604 -86 625 -37 c 1,14,-1
 322 1104 l 1,15,-1
 88 0 l 1,16,-1
 -49 0 l 1,17,-1
 227 1305 l 1,18,-1
 420 1305 l 1,19,-1
 700 252 l 1,20,-1
 924 1305 l 1,21,-1
 1061 1305 l 1,22,-1
 809 125 l 2,0,1
EndSplineSet
EndChar

StartChar: eng
Encoding: 331 331 317
Width: 1118
VWidth: 2048
Flags: W
LayerCount: 2
Fore
SplineSet
236 -250 m 1,0,1
 256 -264 256 -264 289 -271.5 c 128,-1,2
 322 -279 322 -279 352 -279 c 0,3,4
 420 -279 420 -279 470 -259.5 c 128,-1,5
 520 -240 520 -240 554 -204 c 128,-1,6
 588 -168 588 -168 610.5 -117 c 128,-1,7
 633 -66 633 -66 647 0 c 2,8,-1
 768 575 l 2,9,10
 795 700 795 700 755 769 c 128,-1,11
 715 838 715 838 594 838 c 0,12,13
 518 838 518 838 449.5 803 c 128,-1,14
 381 768 381 768 325.5 709.5 c 128,-1,15
 270 651 270 651 231.5 575.5 c 128,-1,16
 193 500 193 500 176 418 c 2,17,-1
 88 0 l 1,18,-1
 -49 0 l 1,19,-1
 147 932 l 1,20,-1
 285 932 l 1,21,-1
 236 698 l 1,22,23
 389 954 389 954 643 954 c 0,24,25
 987 954 987 954 905 575 c 2,26,-1
 784 0 l 2,27,28
 745 -180 745 -180 627.5 -287.5 c 128,-1,29
 510 -395 510 -395 326 -395 c 0,30,31
 236 -395 236 -395 174 -369 c 1,32,-1
 236 -250 l 1,0,1
EndSplineSet
EndChar

StartChar: Scedilla
Encoding: 350 350 334
Width: 1118
VWidth: 2048
Flags: W
LayerCount: 2
Fore
SplineSet
872 340 m 0,0,1
 856 266 856 266 816 205.5 c 128,-1,2
 776 145 776 145 720 99 c 128,-1,3
 664 53 664 53 596 23.5 c 128,-1,4
 528 -6 528 -6 457 -16 c 1,5,-1
 451 -41 l 1,6,7
 420 -188 420 -188 319 -276 c 0,8,9
 211 -371 211 -371 63 -371 c 1,10,-1
 88 -254 l 1,11,12
 291 -254 291 -254 336 -41 c 1,13,-1
 340 -20 l 1,14,15
 246 -12 246 -12 175 28 c 128,-1,16
 104 68 104 68 72 139 c 1,17,-1
 43 0 l 1,18,-1
 -74 0 l 1,19,-1
 10 397 l 1,20,-1
 127 397 l 1,21,22
 113 330 113 330 131.5 274.5 c 128,-1,23
 150 219 150 219 189.5 179 c 128,-1,24
 229 139 229 139 286.5 116.5 c 128,-1,25
 344 94 344 94 410 94 c 0,26,27
 467 94 467 94 520 110.5 c 128,-1,28
 573 127 573 127 616 157.5 c 128,-1,29
 659 188 659 188 690 232 c 128,-1,30
 721 276 721 276 733 332 c 0,31,32
 748 395 748 395 729.5 440 c 128,-1,33
 711 485 711 485 671 517 c 128,-1,34
 631 549 631 549 577.5 571.5 c 128,-1,35
 524 594 524 594 469 616 c 0,36,37
 403 641 403 641 338.5 668.5 c 128,-1,38
 274 696 274 696 226 738 c 128,-1,39
 178 780 178 780 156.5 840.5 c 128,-1,40
 135 901 135 901 154 991 c 0,41,42
 172 1071 172 1071 219 1133.5 c 128,-1,43
 266 1196 266 1196 330.5 1239 c 128,-1,44
 395 1282 395 1282 472 1304.5 c 128,-1,45
 549 1327 549 1327 627 1327 c 0,46,47
 721 1327 721 1327 793.5 1288 c 128,-1,48
 866 1249 866 1249 895 1169 c 1,49,-1
 924 1305 l 1,50,-1
 1044 1305 l 1,51,-1
 965 932 l 1,52,-1
 844 932 l 1,53,54
 856 991 856 991 842.5 1042.5 c 128,-1,55
 829 1094 829 1094 795.5 1130.5 c 128,-1,56
 762 1167 762 1167 712 1188.5 c 128,-1,57
 662 1210 662 1210 602 1210 c 0,58,59
 549 1210 549 1210 499 1198 c 128,-1,60
 449 1186 449 1186 407 1159.5 c 128,-1,61
 365 1133 365 1133 334 1091 c 128,-1,62
 303 1049 303 1049 291 991 c 0,63,64
 281 940 281 940 299 904 c 128,-1,65
 317 868 317 868 354 840.5 c 128,-1,66
 391 813 391 813 442.5 790.5 c 128,-1,67
 494 768 494 768 549 745 c 0,68,69
 616 719 616 719 683 687 c 128,-1,70
 750 655 750 655 798 610 c 128,-1,71
 846 565 846 565 869.5 499.5 c 128,-1,72
 893 434 893 434 872 340 c 0,0,1
EndSplineSet
EndChar

StartChar: scedilla
Encoding: 351 351 335
Width: 1118
VWidth: 2048
Flags: W
LayerCount: 2
Fore
SplineSet
862 258 m 0,0,1
 848 190 848 190 808 141 c 128,-1,2
 768 92 768 92 711.5 59.5 c 128,-1,3
 655 27 655 27 588.5 8.5 c 128,-1,4
 522 -10 522 -10 457 -16 c 1,5,-1
 451 -41 l 1,6,7
 420 -188 420 -188 319 -276 c 0,8,9
 211 -371 211 -371 63 -371 c 1,10,-1
 88 -254 l 1,11,12
 291 -254 291 -254 336 -41 c 2,13,-1
 340 -23 l 1,14,15
 219 -18 219 -18 105.5 16.5 c 128,-1,16
 -8 51 -8 51 -86 111 c 1,17,-1
 0 229 l 1,18,19
 90 164 90 164 182 129 c 128,-1,20
 274 94 274 94 381 94 c 0,21,22
 690 94 690 94 725 254 c 0,23,24
 733 293 733 293 712.5 317.5 c 128,-1,25
 692 342 692 342 652 357.5 c 128,-1,26
 612 373 612 373 559 382 c 128,-1,27
 506 391 506 391 446 399 c 0,28,29
 371 410 371 410 297 425 c 128,-1,30
 223 440 223 440 166 470 c 128,-1,31
 109 500 109 500 81 550 c 128,-1,32
 53 600 53 600 70 682 c 0,33,34
 86 752 86 752 132 803 c 128,-1,35
 178 854 178 854 244.5 888 c 128,-1,36
 311 922 311 922 395 938 c 128,-1,37
 479 954 479 954 565 954 c 0,38,39
 688 954 688 954 779 925.5 c 128,-1,40
 870 897 870 897 936 844 c 1,41,-1
 858 737 l 1,42,43
 791 793 791 793 713 815.5 c 128,-1,44
 635 838 635 838 539 838 c 0,45,46
 496 838 496 838 442.5 830.5 c 128,-1,47
 389 823 389 823 340 804.5 c 128,-1,48
 291 786 291 786 254 756.5 c 128,-1,49
 217 727 217 727 207 682 c 0,50,51
 199 643 199 643 219.5 619.5 c 128,-1,52
 240 596 240 596 279.5 580.5 c 128,-1,53
 319 565 319 565 372.5 556 c 128,-1,54
 426 547 426 547 485 539 c 0,55,56
 559 528 559 528 634 513 c 128,-1,57
 709 498 709 498 766 469 c 128,-1,58
 823 440 823 440 852 390 c 128,-1,59
 881 340 881 340 862 258 c 0,0,1
EndSplineSet
EndChar

StartChar: Tbar
Encoding: 358 358 342
Width: 1118
VWidth: 2048
Flags: W
LayerCount: 2
Fore
SplineSet
776 608 m 1,0,-1
 565 608 l 1,1,-1
 461 117 l 1,2,-1
 672 117 l 1,3,-1
 647 0 l 1,4,-1
 88 0 l 1,5,-1
 113 117 l 1,6,-1
 324 117 l 1,7,-1
 428 608 l 1,8,-1
 217 608 l 1,9,-1
 240 721 l 1,10,-1
 451 721 l 1,11,-1
 551 1188 l 1,12,-1
 270 1188 l 1,13,-1
 201 864 l 1,14,-1
 84 864 l 1,15,-1
 178 1305 l 1,16,-1
 1110 1305 l 1,17,-1
 1016 864 l 1,18,-1
 899 864 l 1,19,-1
 969 1188 l 1,20,-1
 688 1188 l 1,21,-1
 588 721 l 1,22,-1
 799 721 l 1,23,-1
 776 608 l 1,0,-1
EndSplineSet
EndChar

StartChar: tbar
Encoding: 359 359 343
Width: 1118
VWidth: 2048
Flags: W
LayerCount: 2
Fore
SplineSet
555 446 m 1,0,-1
 344 446 l 1,1,-1
 322 342 l 2,2,3
 311 291 311 291 317.5 246 c 128,-1,4
 324 201 324 201 346.5 167 c 128,-1,5
 369 133 369 133 406.5 113.5 c 128,-1,6
 444 94 444 94 498 94 c 0,7,8
 600 94 600 94 682 157.5 c 128,-1,9
 764 221 764 221 797 322 c 1,10,-1
 905 297 l 1,11,12
 858 150 858 150 740.5 63.5 c 128,-1,13
 623 -23 623 -23 473 -23 c 0,14,15
 391 -23 391 -23 329.5 4 c 128,-1,16
 268 31 268 31 230.5 79 c 128,-1,17
 193 127 193 127 180.5 194.5 c 128,-1,18
 168 262 168 262 184 342 c 2,19,-1
 207 446 l 1,20,-1
 -4 446 l 1,21,-1
 20 559 l 1,22,-1
 231 559 l 1,23,-1
 285 815 l 1,24,-1
 74 815 l 1,25,-1
 98 932 l 1,26,-1
 309 932 l 1,27,-1
 389 1305 l 1,28,-1
 526 1305 l 1,29,-1
 446 932 l 1,30,-1
 844 932 l 1,31,-1
 819 815 l 1,32,-1
 422 815 l 1,33,-1
 369 559 l 1,34,-1
 580 559 l 1,35,-1
 555 446 l 1,0,-1
EndSplineSet
EndChar

StartChar: Uogonek
Encoding: 370 370 354
Width: 1118
VWidth: 2048
Flags: W
LayerCount: 2
Fore
SplineSet
580 -379 m 1,0,1
 455 -379 455 -379 396.5 -316.5 c 128,-1,2
 338 -254 338 -254 360 -152 c 0,3,4
 369 -111 369 -111 386 -79 c 128,-1,5
 403 -47 403 -47 428 -18 c 1,6,7
 410 -20 410 -20 393.5 -21.5 c 128,-1,8
 377 -23 377 -23 360 -23 c 0,9,10
 252 -23 252 -23 180.5 12 c 128,-1,11
 109 47 109 47 73 110.5 c 128,-1,12
 37 174 37 174 31 265 c 128,-1,13
 25 356 25 356 49 467 c 2,14,-1
 227 1305 l 1,15,-1
 365 1305 l 1,16,-1
 186 465 l 2,17,18
 174 406 174 406 170 340 c 128,-1,19
 166 274 166 274 185.5 220 c 128,-1,20
 205 166 205 166 251 130 c 128,-1,21
 297 94 297 94 385 94 c 256,22,23
 473 94 473 94 536.5 130 c 128,-1,24
 600 166 600 166 642 220 c 128,-1,25
 684 274 684 274 708.5 340 c 128,-1,26
 733 406 733 406 745 465 c 2,27,-1
 924 1305 l 1,28,-1
 1061 1305 l 1,29,-1
 883 465 l 2,30,31
 844 285 844 285 755 164 c 128,-1,32
 666 43 666 43 522 0 c 1,33,34
 463 -45 463 -45 446 -121 c 0,35,36
 432 -193 432 -193 476 -241 c 128,-1,37
 520 -289 520 -289 600 -289 c 1,38,-1
 580 -379 l 1,0,1
EndSplineSet
EndChar

StartChar: uogonek
Encoding: 371 371 355
Width: 1118
VWidth: 2048
Flags: W
LayerCount: 2
Fore
SplineSet
842 -379 m 1,0,1
 717 -379 717 -379 658.5 -316.5 c 128,-1,2
 600 -254 600 -254 623 -152 c 0,3,4
 633 -104 633 -104 656.5 -66.5 c 128,-1,5
 680 -29 680 -29 709 0 c 1,6,-1
 647 0 l 1,7,-1
 696 233 l 1,8,9
 543 -23 543 -23 289 -23 c 0,10,11
 -55 -23 -55 -23 25 356 c 2,12,-1
 147 932 l 1,13,-1
 285 932 l 1,14,-1
 162 356 l 2,15,16
 137 231 137 231 176 162.5 c 128,-1,17
 215 94 215 94 336 94 c 0,18,19
 412 94 412 94 481.5 129 c 128,-1,20
 551 164 551 164 606.5 222.5 c 128,-1,21
 662 281 662 281 699.5 356.5 c 128,-1,22
 737 432 737 432 756 514 c 2,23,-1
 844 932 l 1,24,-1
 981 932 l 1,25,-1
 784 0 l 1,26,27
 725 -45 725 -45 709 -121 c 0,28,29
 694 -193 694 -193 738 -241 c 128,-1,30
 782 -289 782 -289 862 -289 c 1,31,-1
 842 -379 l 1,0,1
EndSplineSet
EndChar

StartChar: longs
Encoding: 383 383 366
Width: 1118
VWidth: 2048
Flags: W
LayerCount: 2
Fore
SplineSet
461 117 m 1,0,-1
 672 117 l 1,1,-1
 647 0 l 1,2,-1
 88 0 l 1,3,-1
 113 117 l 1,4,-1
 324 117 l 1,5,-1
 471 815 l 1,6,-1
 260 815 l 1,7,-1
 285 932 l 1,8,-1
 496 932 l 1,9,10
 537 1124 537 1124 657.5 1225.5 c 128,-1,11
 778 1327 778 1327 979 1327 c 0,12,13
 1026 1327 1026 1327 1059 1324 c 128,-1,14
 1092 1321 1092 1321 1112 1317 c 1,15,-1
 1087 1200 l 1,16,17
 1059 1204 1059 1204 1028 1207 c 128,-1,18
 997 1210 997 1210 954 1210 c 0,19,20
 823 1210 823 1210 743.5 1143.5 c 128,-1,21
 664 1077 664 1077 633 932 c 2,22,-1
 461 117 l 1,0,-1
EndSplineSet
EndChar

StartChar: tonos
Encoding: 900 900 375
Width: 1118
VWidth: 2048
Flags: W
LayerCount: 2
Fore
SplineSet
819 1583 m 1,0,-1
 637 1118 l 1,1,-1
 537 1118 l 1,2,-1
 635 1583 l 1,3,-1
 819 1583 l 1,0,-1
EndSplineSet
EndChar

StartChar: dieresistonos
Encoding: 901 901 376
Width: 1118
VWidth: 2048
Flags: W
LayerCount: 2
Fore
SplineSet
819 1583 m 1,0,-1
 637 1118 l 1,1,-1
 537 1118 l 1,2,-1
 635 1583 l 1,3,-1
 819 1583 l 1,0,-1
1071 1118 m 1,4,-1
 885 1118 l 1,5,-1
 924 1305 l 1,6,-1
 1110 1305 l 1,7,-1
 1071 1118 l 1,4,-1
326 1118 m 1,8,-1
 139 1118 l 1,9,-1
 178 1305 l 1,10,-1
 365 1305 l 1,11,-1
 326 1118 l 1,8,-1
EndSplineSet
EndChar

StartChar: Alpha
Encoding: 913 913 385
Width: 1118
VWidth: 2048
Flags: W
LayerCount: 2
Fore
SplineSet
897 0 m 1,0,-1
 750 0 l 1,1,-1
 705 373 l 1,2,-1
 188 373 l 1,3,-1
 -10 0 l 1,4,-1
 -158 0 l 1,5,-1
 553 1305 l 1,6,-1
 739 1305 l 1,7,-1
 897 0 l 1,0,-1
692 494 m 1,8,-1
 616 1167 l 1,9,-1
 254 494 l 1,10,-1
 692 494 l 1,8,-1
EndSplineSet
EndChar

StartChar: Beta
Encoding: 914 914 386
Width: 1118
VWidth: 2048
Flags: W
LayerCount: 2
Fore
SplineSet
909 373 m 0,0,1
 870 186 870 186 730 93 c 128,-1,2
 590 0 590 0 367 0 c 2,3,-1
 -49 0 l 1,4,-1
 227 1305 l 1,5,-1
 621 1305 l 2,6,7
 702 1305 702 1305 778 1291.5 c 128,-1,8
 854 1278 854 1278 908.5 1241 c 128,-1,9
 963 1204 963 1204 988.5 1138.5 c 128,-1,10
 1014 1073 1014 1073 991 967 c 0,11,12
 948 764 948 764 729 690 c 1,13,14
 961 614 961 614 909 373 c 0,0,1
854 967 m 0,15,16
 868 1036 868 1036 848.5 1080 c 128,-1,17
 829 1124 829 1124 789.5 1147.5 c 128,-1,18
 750 1171 750 1171 697.5 1179.5 c 128,-1,19
 645 1188 645 1188 596 1188 c 2,20,-1
 340 1188 l 1,21,-1
 246 745 l 1,22,-1
 502 745 l 2,23,24
 557 745 557 745 613.5 753.5 c 128,-1,25
 670 762 670 762 718 786.5 c 128,-1,26
 766 811 766 811 803 854 c 128,-1,27
 840 897 840 897 854 967 c 0,15,16
772 373 m 0,28,29
 801 508 801 508 727 569.5 c 128,-1,30
 653 631 653 631 500 631 c 2,31,-1
 221 631 l 1,32,-1
 113 117 l 1,33,-1
 391 117 l 2,34,35
 545 117 545 117 645 181.5 c 128,-1,36
 745 246 745 246 772 373 c 0,28,29
EndSplineSet
EndChar

StartChar: Gamma
Encoding: 915 915 387
Width: 1118
VWidth: 2048
Flags: W
LayerCount: 2
Fore
SplineSet
227 1305 m 1,0,-1
 1110 1305 l 1,1,-1
 1085 1188 l 1,2,-1
 340 1188 l 1,3,-1
 88 0 l 1,4,-1
 -49 0 l 1,5,-1
 227 1305 l 1,0,-1
EndSplineSet
EndChar

StartChar: uni0394
Encoding: 916 916 388
Width: 1118
VWidth: 2048
Flags: W
LayerCount: 2
Fore
SplineSet
897 0 m 1,0,-1
 -158 0 l 1,1,-1
 553 1305 l 1,2,-1
 739 1305 l 1,3,-1
 897 0 l 1,0,-1
735 117 m 1,4,-1
 614 1165 l 1,5,-1
 51 117 l 1,6,-1
 735 117 l 1,4,-1
EndSplineSet
EndChar

StartChar: Epsilon
Encoding: 917 917 389
Width: 1118
VWidth: 2048
Flags: W
LayerCount: 2
Fore
SplineSet
784 0 m 1,0,-1
 -49 0 l 1,1,-1
 227 1305 l 1,2,-1
 1061 1305 l 1,3,-1
 1036 1188 l 1,4,-1
 340 1188 l 1,5,-1
 240 721 l 1,6,-1
 754 721 l 1,7,-1
 729 604 l 1,8,-1
 215 604 l 1,9,-1
 113 117 l 1,10,-1
 809 117 l 1,11,-1
 784 0 l 1,0,-1
EndSplineSet
EndChar

StartChar: Zeta
Encoding: 918 918 390
Width: 1118
VWidth: 2048
Flags: W
LayerCount: 2
Fore
SplineSet
788 0 m 1,0,-1
 -49 0 l 1,1,-1
 -25 117 l 1,2,-1
 858 1188 l 1,3,-1
 319 1188 l 1,4,-1
 252 868 l 1,5,-1
 135 868 l 1,6,-1
 227 1305 l 1,7,-1
 1044 1305 l 1,8,-1
 1020 1188 l 1,9,-1
 143 117 l 1,10,-1
 696 117 l 1,11,-1
 764 442 l 1,12,-1
 881 442 l 1,13,-1
 788 0 l 1,0,-1
EndSplineSet
EndChar

StartChar: Eta
Encoding: 919 919 391
Width: 1118
VWidth: 2048
Flags: W
LayerCount: 2
Fore
SplineSet
784 0 m 1,0,-1
 647 0 l 1,1,-1
 774 604 l 1,2,-1
 215 604 l 1,3,-1
 88 0 l 1,4,-1
 -49 0 l 1,5,-1
 227 1305 l 1,6,-1
 365 1305 l 1,7,-1
 240 721 l 1,8,-1
 799 721 l 1,9,-1
 924 1305 l 1,10,-1
 1061 1305 l 1,11,-1
 784 0 l 1,0,-1
EndSplineSet
EndChar

StartChar: Theta
Encoding: 920 920 392
Width: 1118
VWidth: 2048
Flags: W
LayerCount: 2
Fore
SplineSet
281 711 m 1,0,-1
 752 711 l 1,1,-1
 727 594 l 1,2,-1
 256 594 l 1,3,-1
 281 711 l 1,0,-1
1006 651 m 0,4,5
 977 520 977 520 924.5 398 c 128,-1,6
 872 276 872 276 793.5 183 c 128,-1,7
 715 90 715 90 607.5 33.5 c 128,-1,8
 500 -23 500 -23 362 -23 c 0,9,10
 225 -23 225 -23 142 33.5 c 128,-1,11
 59 90 59 90 19.5 183 c 128,-1,12
 -20 276 -20 276 -21.5 398 c 128,-1,13
 -23 520 -23 520 6 651 c 256,14,15
 35 782 35 782 87 904 c 128,-1,16
 139 1026 139 1026 220 1120 c 128,-1,17
 301 1214 301 1214 407.5 1270.5 c 128,-1,18
 514 1327 514 1327 649 1327 c 256,19,20
 784 1327 784 1327 868 1270.5 c 128,-1,21
 952 1214 952 1214 991 1120 c 128,-1,22
 1030 1026 1030 1026 1032 904 c 128,-1,23
 1034 782 1034 782 1006 651 c 0,4,5
868 651 m 0,24,25
 895 780 895 780 893 883.5 c 128,-1,26
 891 987 891 987 860 1060 c 128,-1,27
 829 1133 829 1133 770 1171.5 c 128,-1,28
 711 1210 711 1210 625 1210 c 0,29,30
 518 1210 518 1210 438 1160 c 128,-1,31
 358 1110 358 1110 299 1029 c 128,-1,32
 240 948 240 948 202 849 c 128,-1,33
 164 750 164 750 143 651 c 0,34,35
 123 553 123 553 118 453.5 c 128,-1,36
 113 354 113 354 138.5 274.5 c 128,-1,37
 164 195 164 195 222.5 144.5 c 128,-1,38
 281 94 281 94 387 94 c 0,39,40
 494 94 494 94 574.5 144.5 c 128,-1,41
 655 195 655 195 713.5 274.5 c 128,-1,42
 772 354 772 354 810 453.5 c 128,-1,43
 848 553 848 553 868 651 c 0,24,25
EndSplineSet
EndChar

StartChar: Iota
Encoding: 921 921 393
Width: 1118
VWidth: 2048
Flags: W
LayerCount: 2
Fore
SplineSet
647 0 m 1,0,-1
 88 0 l 1,1,-1
 113 117 l 1,2,-1
 324 117 l 1,3,-1
 551 1188 l 1,4,-1
 340 1188 l 1,5,-1
 365 1305 l 1,6,-1
 924 1305 l 1,7,-1
 899 1188 l 1,8,-1
 688 1188 l 1,9,-1
 461 117 l 1,10,-1
 672 117 l 1,11,-1
 647 0 l 1,0,-1
EndSplineSet
EndChar

StartChar: Kappa
Encoding: 922 922 394
Width: 1118
VWidth: 2048
Flags: W
LayerCount: 2
Fore
SplineSet
827 0 m 1,0,-1
 659 0 l 1,1,-1
 360 639 l 1,2,-1
 190 485 l 1,3,-1
 88 0 l 1,4,-1
 -49 0 l 1,5,-1
 227 1305 l 1,6,-1
 365 1305 l 1,7,-1
 229 670 l 1,8,-1
 924 1305 l 1,9,-1
 1104 1305 l 1,10,-1
 471 735 l 1,11,-1
 827 0 l 1,0,-1
EndSplineSet
EndChar

StartChar: Lambda
Encoding: 923 923 395
Width: 1118
VWidth: 2048
Flags: W
LayerCount: 2
Fore
SplineSet
750 0 m 1,0,-1
 614 1165 l 1,1,-1
 -10 0 l 1,2,-1
 -158 0 l 1,3,-1
 553 1305 l 1,4,-1
 739 1305 l 1,5,-1
 897 0 l 1,6,-1
 750 0 l 1,0,-1
EndSplineSet
EndChar

StartChar: Mu
Encoding: 924 924 396
Width: 1118
VWidth: 2048
Flags: W
LayerCount: 2
Fore
SplineSet
784 0 m 1,0,-1
 647 0 l 1,1,-1
 877 1087 l 1,2,-1
 502 414 l 1,3,-1
 403 414 l 1,4,-1
 317 1087 l 1,5,-1
 88 0 l 1,6,-1
 -49 0 l 1,7,-1
 227 1305 l 1,8,-1
 406 1305 l 1,9,-1
 498 623 l 1,10,-1
 883 1305 l 1,11,-1
 1061 1305 l 1,12,-1
 784 0 l 1,0,-1
EndSplineSet
EndChar

StartChar: Nu
Encoding: 925 925 397
Width: 1118
VWidth: 2048
Flags: W
LayerCount: 2
Fore
SplineSet
784 0 m 1,0,-1
 614 0 l 1,1,-1
 322 1104 l 1,2,-1
 88 0 l 1,3,-1
 -49 0 l 1,4,-1
 227 1305 l 1,5,-1
 420 1305 l 1,6,-1
 700 252 l 1,7,-1
 924 1305 l 1,8,-1
 1061 1305 l 1,9,-1
 784 0 l 1,0,-1
EndSplineSet
EndChar

StartChar: Xi
Encoding: 926 926 398
Width: 1118
VWidth: 2048
Flags: W
LayerCount: 2
Fore
SplineSet
-35 301 m 1,0,-1
 86 301 l 1,1,-1
 47 117 l 1,2,-1
 737 117 l 1,3,-1
 776 301 l 1,4,-1
 897 301 l 1,5,-1
 834 0 l 1,6,-1
 -98 0 l 1,7,-1
 -35 301 l 1,0,-1
965 1188 m 1,8,-1
 274 1188 l 1,9,-1
 233 1001 l 1,10,-1
 113 1001 l 1,11,-1
 178 1305 l 1,12,-1
 1110 1305 l 1,13,-1
 1044 1001 l 1,14,-1
 924 1001 l 1,15,-1
 965 1188 l 1,8,-1
281 711 m 1,16,-1
 752 711 l 1,17,-1
 727 594 l 1,18,-1
 256 594 l 1,19,-1
 281 711 l 1,16,-1
EndSplineSet
EndChar

StartChar: Omicron
Encoding: 927 927 399
Width: 1118
VWidth: 2048
Flags: W
LayerCount: 2
Fore
SplineSet
1006 651 m 0,0,1
 977 520 977 520 924.5 398 c 128,-1,2
 872 276 872 276 793.5 183 c 128,-1,3
 715 90 715 90 607.5 33.5 c 128,-1,4
 500 -23 500 -23 362 -23 c 0,5,6
 225 -23 225 -23 142 33.5 c 128,-1,7
 59 90 59 90 19.5 183 c 128,-1,8
 -20 276 -20 276 -21.5 398 c 128,-1,9
 -23 520 -23 520 6 651 c 256,10,11
 35 782 35 782 87 904 c 128,-1,12
 139 1026 139 1026 220 1120 c 128,-1,13
 301 1214 301 1214 407.5 1270.5 c 128,-1,14
 514 1327 514 1327 649 1327 c 256,15,16
 784 1327 784 1327 868 1270.5 c 128,-1,17
 952 1214 952 1214 991 1120 c 128,-1,18
 1030 1026 1030 1026 1032 904 c 128,-1,19
 1034 782 1034 782 1006 651 c 0,0,1
868 651 m 0,20,21
 895 780 895 780 893 883.5 c 128,-1,22
 891 987 891 987 860 1060 c 128,-1,23
 829 1133 829 1133 770 1171.5 c 128,-1,24
 711 1210 711 1210 625 1210 c 0,25,26
 518 1210 518 1210 438 1160 c 128,-1,27
 358 1110 358 1110 299 1029 c 128,-1,28
 240 948 240 948 202 849 c 128,-1,29
 164 750 164 750 143 651 c 0,30,31
 123 553 123 553 118 453.5 c 128,-1,32
 113 354 113 354 138.5 274.5 c 128,-1,33
 164 195 164 195 222.5 144.5 c 128,-1,34
 281 94 281 94 387 94 c 0,35,36
 494 94 494 94 574.5 144.5 c 128,-1,37
 655 195 655 195 713.5 274.5 c 128,-1,38
 772 354 772 354 810 453.5 c 128,-1,39
 848 553 848 553 868 651 c 0,20,21
EndSplineSet
EndChar

StartChar: Pi
Encoding: 928 928 400
Width: 1118
VWidth: 2048
Flags: W
LayerCount: 2
Fore
SplineSet
784 0 m 1,0,-1
 647 0 l 1,1,-1
 899 1188 l 1,2,-1
 340 1188 l 1,3,-1
 88 0 l 1,4,-1
 -49 0 l 1,5,-1
 227 1305 l 1,6,-1
 1061 1305 l 1,7,-1
 784 0 l 1,0,-1
EndSplineSet
EndChar

StartChar: Rho
Encoding: 929 929 401
Width: 1118
VWidth: 2048
Flags: W
LayerCount: 2
Fore
SplineSet
1028 932 m 0,0,1
 989 743 989 743 852 651 c 128,-1,2
 715 559 715 559 502 559 c 2,3,-1
 207 559 l 1,4,-1
 88 0 l 1,5,-1
 -49 0 l 1,6,-1
 227 1305 l 1,7,-1
 657 1305 l 2,8,9
 872 1305 872 1305 970.5 1211.5 c 128,-1,10
 1069 1118 1069 1118 1028 932 c 0,0,1
891 932 m 256,11,12
 920 1067 920 1067 848 1127.5 c 128,-1,13
 776 1188 776 1188 635 1188 c 2,14,-1
 340 1188 l 1,15,-1
 231 676 l 1,16,-1
 526 676 l 2,17,18
 668 676 668 676 765 736.5 c 128,-1,19
 862 797 862 797 891 932 c 256,11,12
EndSplineSet
EndChar

StartChar: Sigma
Encoding: 931 931 402
Width: 1118
VWidth: 2048
Flags: W
LayerCount: 2
Fore
SplineSet
784 0 m 1,0,-1
 -55 0 l 1,1,-1
 -31 117 l 1,2,-1
 410 653 l 1,3,-1
 197 1188 l 1,4,-1
 221 1305 l 1,5,-1
 1061 1305 l 1,6,-1
 967 864 l 1,7,-1
 846 864 l 1,8,-1
 915 1188 l 1,9,-1
 360 1188 l 1,10,-1
 571 653 l 1,11,-1
 133 117 l 1,12,-1
 688 117 l 1,13,-1
 756 442 l 1,14,-1
 877 442 l 1,15,-1
 784 0 l 1,0,-1
EndSplineSet
EndChar

StartChar: Tau
Encoding: 932 932 403
Width: 1118
VWidth: 2048
Flags: W
LayerCount: 2
Fore
SplineSet
1016 864 m 1,0,-1
 899 864 l 1,1,-1
 969 1188 l 1,2,-1
 688 1188 l 1,3,-1
 461 117 l 1,4,-1
 672 117 l 1,5,-1
 647 0 l 1,6,-1
 88 0 l 1,7,-1
 113 117 l 1,8,-1
 324 117 l 1,9,-1
 551 1188 l 1,10,-1
 270 1188 l 1,11,-1
 201 864 l 1,12,-1
 84 864 l 1,13,-1
 178 1305 l 1,14,-1
 1110 1305 l 1,15,-1
 1016 864 l 1,0,-1
EndSplineSet
EndChar

StartChar: Upsilon
Encoding: 933 933 404
Width: 1118
VWidth: 2048
Flags: W
LayerCount: 2
Fore
SplineSet
1106 1188 m 1,0,-1
 999 1188 l 1,1,-1
 555 563 l 1,2,-1
 461 117 l 1,3,-1
 672 117 l 1,4,-1
 647 0 l 1,5,-1
 88 0 l 1,6,-1
 113 117 l 1,7,-1
 324 117 l 1,8,-1
 418 563 l 1,9,-1
 240 1188 l 1,10,-1
 133 1188 l 1,11,-1
 158 1305 l 1,12,-1
 526 1305 l 1,13,-1
 502 1188 l 1,14,-1
 393 1188 l 1,15,-1
 516 696 l 1,16,-1
 846 1188 l 1,17,-1
 737 1188 l 1,18,-1
 762 1305 l 1,19,-1
 1130 1305 l 1,20,-1
 1106 1188 l 1,0,-1
EndSplineSet
EndChar

StartChar: Phi
Encoding: 934 934 405
Width: 1118
VWidth: 2048
Flags: W
LayerCount: 2
Fore
SplineSet
997 655 m 0,0,1
 975 557 975 557 927 473 c 128,-1,2
 879 389 879 389 810 325.5 c 128,-1,3
 741 262 741 262 654 222 c 128,-1,4
 567 182 567 182 471 172 c 1,5,-1
 436 0 l 1,6,-1
 299 0 l 1,7,-1
 336 174 l 1,8,9
 244 184 244 184 175 224 c 128,-1,10
 106 264 106 264 64.5 326.5 c 128,-1,11
 23 389 23 389 10.5 473 c 128,-1,12
 -2 557 -2 557 20 655 c 0,13,14
 41 754 41 754 88 838 c 128,-1,15
 135 922 135 922 204.5 986.5 c 128,-1,16
 274 1051 274 1051 359 1090.5 c 128,-1,17
 444 1130 444 1130 541 1143 c 1,18,-1
 575 1305 l 1,19,-1
 713 1305 l 1,20,-1
 678 1143 l 1,21,22
 770 1133 770 1133 839.5 1092 c 128,-1,23
 909 1051 909 1051 950 987.5 c 128,-1,24
 991 924 991 924 1004.5 839 c 128,-1,25
 1018 754 1018 754 997 655 c 0,0,1
860 655 m 0,26,27
 874 725 874 725 868 787.5 c 128,-1,28
 862 850 862 850 836.5 899 c 128,-1,29
 811 948 811 948 765 980 c 128,-1,30
 719 1012 719 1012 653 1024 c 1,31,-1
 498 293 l 1,32,33
 637 315 637 315 733 414.5 c 128,-1,34
 829 514 829 514 860 655 c 0,26,27
158 655 m 0,35,36
 127 514 127 514 178 414.5 c 128,-1,37
 229 315 229 315 360 293 c 1,38,-1
 516 1024 l 1,39,40
 446 1012 446 1012 387 979 c 128,-1,41
 328 946 328 946 282 898 c 128,-1,42
 236 850 236 850 204 787.5 c 128,-1,43
 172 725 172 725 158 655 c 0,35,36
EndSplineSet
EndChar

StartChar: Chi
Encoding: 935 935 406
Width: 1118
VWidth: 2048
Flags: W
LayerCount: 2
Fore
SplineSet
856 0 m 1,0,-1
 485 0 l 1,1,-1
 510 117 l 1,2,-1
 598 117 l 1,3,-1
 483 545 l 1,4,-1
 186 117 l 1,5,-1
 274 117 l 1,6,-1
 250 0 l 1,7,-1
 -121 0 l 1,8,-1
 -96 117 l 1,9,-1
 31 117 l 1,10,-1
 428 657 l 1,11,-1
 262 1188 l 1,12,-1
 154 1188 l 1,13,-1
 178 1305 l 1,14,-1
 551 1305 l 1,15,-1
 526 1188 l 1,16,-1
 418 1188 l 1,17,-1
 530 770 l 1,18,-1
 817 1188 l 1,19,-1
 713 1188 l 1,20,-1
 737 1305 l 1,21,-1
 1110 1305 l 1,22,-1
 1085 1188 l 1,23,-1
 973 1188 l 1,24,-1
 588 657 l 1,25,-1
 754 117 l 1,26,-1
 881 117 l 1,27,-1
 856 0 l 1,0,-1
EndSplineSet
EndChar

StartChar: Psi
Encoding: 936 936 407
Width: 1118
VWidth: 2048
Flags: W
LayerCount: 2
Fore
SplineSet
954 807 m 2,0,1
 911 602 911 602 799.5 474 c 128,-1,2
 688 346 688 346 504 324 c 1,3,-1
 436 0 l 1,4,-1
 299 0 l 1,5,-1
 367 324 l 1,6,7
 188 346 188 346 133 475 c 128,-1,8
 78 604 78 604 121 809 c 2,9,-1
 227 1305 l 1,10,-1
 365 1305 l 1,11,-1
 258 807 l 2,12,13
 248 754 248 754 244 695.5 c 128,-1,14
 240 637 240 637 251 586 c 128,-1,15
 262 535 262 535 295 496 c 128,-1,16
 328 457 328 457 391 442 c 1,17,-1
 575 1305 l 1,18,-1
 713 1305 l 1,19,-1
 528 442 l 1,20,21
 598 457 598 457 647 496 c 128,-1,22
 696 535 696 535 731 586 c 128,-1,23
 766 637 766 637 786.5 695.5 c 128,-1,24
 807 754 807 754 817 807 c 2,25,-1
 924 1305 l 1,26,-1
 1061 1305 l 1,27,-1
 954 807 l 2,0,1
EndSplineSet
EndChar

StartChar: alpha
Encoding: 945 945 415
Width: 1118
VWidth: 2048
Flags: W
LayerCount: 2
Fore
SplineSet
139 467 m 0,0,1
 125 403 125 403 125 337.5 c 128,-1,2
 125 272 125 272 143.5 218 c 128,-1,3
 162 164 162 164 202 129 c 128,-1,4
 242 94 242 94 309 94 c 0,5,6
 369 94 369 94 423 129 c 128,-1,7
 477 164 477 164 524 217 c 128,-1,8
 571 270 571 270 610 336.5 c 128,-1,9
 649 403 649 403 684 467 c 1,10,11
 678 530 678 530 665.5 596 c 128,-1,12
 653 662 653 662 628.5 715 c 128,-1,13
 604 768 604 768 565 803 c 128,-1,14
 526 838 526 838 467 838 c 0,15,16
 399 838 399 838 344 803 c 128,-1,17
 289 768 289 768 248 715 c 128,-1,18
 207 662 207 662 180.5 596 c 128,-1,19
 154 530 154 530 139 467 c 0,0,1
2 467 m 0,20,21
 23 561 23 561 63.5 649 c 128,-1,22
 104 737 104 737 166.5 804.5 c 128,-1,23
 229 872 229 872 311 913 c 128,-1,24
 393 954 393 954 494 954 c 0,25,26
 616 954 616 954 690 876.5 c 128,-1,27
 764 799 764 799 776 662 c 1,28,-1
 889 932 l 1,29,-1
 1036 932 l 1,30,-1
 807 467 l 1,31,-1
 840 0 l 1,32,-1
 692 0 l 1,33,-1
 694 270 l 1,34,35
 623 133 623 133 515.5 55 c 128,-1,36
 408 -23 408 -23 285 -23 c 0,37,38
 184 -23 184 -23 120.5 18 c 128,-1,39
 57 59 57 59 23.5 128 c 128,-1,40
 -10 197 -10 197 -14 285 c 128,-1,41
 -18 373 -18 373 2 467 c 0,20,21
EndSplineSet
EndChar

StartChar: beta
Encoding: 946 946 416
Width: 1118
VWidth: 2048
Flags: W
LayerCount: 2
Fore
SplineSet
389 -23 m 256,0,1
 291 -23 291 -23 223.5 1 c 128,-1,2
 156 25 156 25 102 74 c 1,3,-1
 8 -373 l 1,4,-1
 -127 -373 l 1,5,-1
 150 938 l 2,6,7
 168 1022 168 1022 215 1093.5 c 128,-1,8
 262 1165 262 1165 329.5 1217.5 c 128,-1,9
 397 1270 397 1270 481 1298.5 c 128,-1,10
 565 1327 565 1327 655 1327 c 0,11,12
 752 1327 752 1327 821.5 1297.5 c 128,-1,13
 891 1268 891 1268 933 1221 c 128,-1,14
 975 1174 975 1174 989.5 1111.5 c 128,-1,15
 1004 1049 1004 1049 991 985 c 0,16,17
 969 881 969 881 893 801 c 128,-1,18
 817 721 817 721 700 684 c 1,19,20
 825 643 825 643 881.5 560 c 128,-1,21
 938 477 938 477 911 354 c 0,22,23
 895 272 895 272 848 203.5 c 128,-1,24
 801 135 801 135 731.5 85 c 128,-1,25
 662 35 662 35 574.5 6 c 128,-1,26
 487 -23 487 -23 389 -23 c 256,0,1
414 94 m 0,27,28
 557 94 557 94 653.5 166 c 128,-1,29
 750 238 750 238 774 354 c 0,30,31
 799 471 799 471 730.5 544.5 c 128,-1,32
 662 618 662 618 496 618 c 2,33,-1
 406 618 l 1,34,-1
 430 735 l 1,35,-1
 520 735 l 2,36,37
 666 735 666 735 747.5 806 c 128,-1,38
 829 877 829 877 854 985 c 0,39,40
 862 1022 862 1022 855 1062 c 128,-1,41
 848 1102 848 1102 823.5 1134.5 c 128,-1,42
 799 1167 799 1167 752 1188.5 c 128,-1,43
 705 1210 705 1210 631 1210 c 0,44,45
 578 1210 578 1210 523.5 1194 c 128,-1,46
 469 1178 469 1178 421 1144 c 128,-1,47
 373 1110 373 1110 337 1059 c 128,-1,48
 301 1008 301 1008 287 938 c 2,49,-1
 133 215 l 1,50,51
 178 150 178 150 245.5 122 c 128,-1,52
 313 94 313 94 414 94 c 0,27,28
EndSplineSet
EndChar

StartChar: gamma
Encoding: 947 947 417
Width: 1118
VWidth: 2048
Flags: W
LayerCount: 2
Fore
SplineSet
989 932 m 1,0,1
 948 813 948 813 893 686 c 128,-1,2
 838 559 838 559 767 433 c 128,-1,3
 696 307 696 307 611 186.5 c 128,-1,4
 526 66 526 66 426 -41 c 1,5,-1
 356 -373 l 1,6,-1
 219 -373 l 1,7,-1
 289 -43 l 1,8,-1
 98 932 l 1,9,-1
 256 932 l 1,10,-1
 395 88 l 1,11,12
 555 287 555 287 670.5 501 c 128,-1,13
 786 715 786 715 850 932 c 1,14,-1
 989 932 l 1,0,1
EndSplineSet
EndChar

StartChar: delta
Encoding: 948 948 418
Width: 1118
VWidth: 2048
Flags: W
LayerCount: 2
Fore
SplineSet
467 1092 m 0,0,1
 459 1051 459 1051 491.5 1013 c 128,-1,2
 524 975 524 975 576.5 934 c 128,-1,3
 629 893 629 893 691.5 844 c 128,-1,4
 754 795 754 795 802 731.5 c 128,-1,5
 850 668 850 668 873.5 588 c 128,-1,6
 897 508 897 508 877 406 c 0,7,8
 856 309 856 309 809 231.5 c 128,-1,9
 762 154 762 154 695.5 96.5 c 128,-1,10
 629 39 629 39 543 8 c 128,-1,11
 457 -23 457 -23 358 -23 c 0,12,13
 262 -23 262 -23 190.5 8 c 128,-1,14
 119 39 119 39 75 96.5 c 128,-1,15
 31 154 31 154 18.5 231.5 c 128,-1,16
 6 309 6 309 27 406 c 0,17,18
 51 524 51 524 159.5 643 c 128,-1,19
 268 762 268 762 455 854 c 1,20,21
 424 879 424 879 397.5 904.5 c 128,-1,22
 371 930 371 930 353.5 957.5 c 128,-1,23
 336 985 336 985 329 1018 c 128,-1,24
 322 1051 322 1051 330 1092 c 0,25,26
 338 1135 338 1135 366.5 1177 c 128,-1,27
 395 1219 395 1219 440 1252.5 c 128,-1,28
 485 1286 485 1286 543.5 1306.5 c 128,-1,29
 602 1327 602 1327 672 1327 c 0,30,31
 756 1327 756 1327 818.5 1310.5 c 128,-1,32
 881 1294 881 1294 934 1253 c 1,33,-1
 850 1155 l 1,34,35
 811 1188 811 1188 760 1199 c 128,-1,36
 709 1210 709 1210 647 1210 c 0,37,38
 580 1210 580 1210 529.5 1180.5 c 128,-1,39
 479 1151 479 1151 467 1092 c 0,0,1
739 406 m 0,40,41
 762 520 762 520 708.5 614.5 c 128,-1,42
 655 709 655 709 537 780 c 1,43,44
 389 709 389 709 287.5 614.5 c 128,-1,45
 186 520 186 520 162 403 c 0,46,47
 150 346 150 346 154 291 c 128,-1,48
 158 236 158 236 182.5 191.5 c 128,-1,49
 207 147 207 147 256 120.5 c 128,-1,50
 305 94 305 94 383 94 c 256,51,52
 461 94 461 94 522.5 122 c 128,-1,53
 584 150 584 150 628 194 c 128,-1,54
 672 238 672 238 699.5 293 c 128,-1,55
 727 348 727 348 739 406 c 0,40,41
EndSplineSet
EndChar

StartChar: epsilon
Encoding: 949 949 419
Width: 1118
VWidth: 2048
Flags: W
LayerCount: 2
Fore
SplineSet
57 676 m 0,0,1
 70 739 70 739 114 791.5 c 128,-1,2
 158 844 158 844 225.5 879.5 c 128,-1,3
 293 915 293 915 378 934.5 c 128,-1,4
 463 954 463 954 559 954 c 0,5,6
 713 954 713 954 802 904 c 128,-1,7
 891 854 891 854 932 754 c 1,8,-1
 813 684 l 1,9,10
 788 754 788 754 719.5 796 c 128,-1,11
 651 838 651 838 532 838 c 0,12,13
 391 838 391 838 300 794 c 128,-1,14
 209 750 209 750 195 676 c 0,15,16
 188 651 188 651 198.5 625.5 c 128,-1,17
 209 600 209 600 236.5 579.5 c 128,-1,18
 264 559 264 559 310 545.5 c 128,-1,19
 356 532 356 532 422 532 c 2,20,-1
 629 532 l 1,21,-1
 604 416 l 1,22,-1
 397 416 l 2,23,24
 330 416 330 416 276.5 402.5 c 128,-1,25
 223 389 223 389 184 367.5 c 128,-1,26
 145 346 145 346 122.5 318.5 c 128,-1,27
 100 291 100 291 94 264 c 0,28,29
 78 184 78 184 159 139 c 128,-1,30
 240 94 240 94 387 94 c 0,31,32
 510 94 510 94 600 132 c 128,-1,33
 690 170 690 170 754 242 c 1,34,-1
 836 176 l 1,35,36
 750 76 750 76 636 26.5 c 128,-1,37
 522 -23 522 -23 362 -23 c 0,38,39
 262 -23 262 -23 181 -3.5 c 128,-1,40
 100 16 100 16 46 53 c 128,-1,41
 -8 90 -8 90 -32.5 143.5 c 128,-1,42
 -57 197 -57 197 -43 264 c 0,43,44
 -29 336 -29 336 41 395.5 c 128,-1,45
 111 455 111 455 207 473 c 1,46,47
 111 489 111 489 77 548.5 c 128,-1,48
 43 608 43 608 57 676 c 0,0,1
EndSplineSet
EndChar

StartChar: zeta
Encoding: 950 950 420
Width: 1118
VWidth: 2048
Flags: W
LayerCount: 2
Fore
SplineSet
647 -115 m 0,0,1
 653 -78 653 -78 642 -56.5 c 128,-1,2
 631 -35 631 -35 603 -22.5 c 128,-1,3
 575 -10 575 -10 533.5 -4 c 128,-1,4
 492 2 492 2 436 6 c 0,5,6
 354 12 354 12 263 29.5 c 128,-1,7
 172 47 172 47 104.5 97 c 128,-1,8
 37 147 37 147 5 241.5 c 128,-1,9
 -27 336 -27 336 8 496 c 0,10,11
 31 600 31 600 102.5 701.5 c 128,-1,12
 174 803 174 803 280.5 893 c 128,-1,13
 387 983 387 983 518 1059 c 128,-1,14
 649 1135 649 1135 793 1188 c 1,15,-1
 340 1188 l 1,16,-1
 365 1305 l 1,17,-1
 1110 1305 l 1,18,-1
 1085 1188 l 1,19,20
 891 1139 891 1139 726 1059 c 128,-1,21
 561 979 561 979 439 885 c 128,-1,22
 317 791 317 791 241.5 689.5 c 128,-1,23
 166 588 166 588 145 496 c 0,24,25
 121 383 121 383 142.5 312.5 c 128,-1,26
 164 242 164 242 212 202 c 128,-1,27
 260 162 260 162 330.5 146.5 c 128,-1,28
 401 131 401 131 473 125 c 256,29,30
 545 119 545 119 608.5 108.5 c 128,-1,31
 672 98 672 98 715 72.5 c 128,-1,32
 758 47 758 47 778.5 3 c 128,-1,33
 799 -41 799 -41 784 -115 c 0,34,35
 766 -201 766 -201 691 -277.5 c 128,-1,36
 616 -354 616 -354 489 -395 c 1,37,-1
 453 -291 l 1,38,39
 549 -258 549 -258 593 -210 c 128,-1,40
 637 -162 637 -162 647 -115 c 0,0,1
EndSplineSet
EndChar

StartChar: eta
Encoding: 951 951 421
Width: 1118
VWidth: 2048
Flags: W
LayerCount: 2
Fore
SplineSet
369 774 m 1,0,1
 416 852 416 852 492.5 903 c 128,-1,2
 569 954 569 954 674 954 c 0,3,4
 827 954 827 954 886.5 862 c 128,-1,5
 946 770 946 770 905 578 c 2,6,-1
 705 -373 l 1,7,-1
 567 -373 l 1,8,-1
 768 578 l 2,9,10
 795 694 795 694 766 766 c 128,-1,11
 737 838 737 838 647 838 c 0,12,13
 543 838 543 838 456 758 c 128,-1,14
 369 678 369 678 338 532 c 2,15,-1
 225 0 l 1,16,-1
 88 0 l 1,17,-1
 246 748 l 2,18,19
 256 791 256 791 237.5 814.5 c 128,-1,20
 219 838 219 838 184 838 c 0,21,22
 150 838 150 838 115 823 c 1,23,-1
 111 930 l 1,24,25
 133 940 133 940 164 947 c 128,-1,26
 195 954 195 954 223 954 c 0,27,28
 295 954 295 954 339 910 c 128,-1,29
 383 866 383 866 369 774 c 1,0,1
EndSplineSet
EndChar

StartChar: theta
Encoding: 952 952 422
Width: 1118
VWidth: 2048
Flags: W
LayerCount: 2
Fore
SplineSet
934 651 m 0,0,1
 903 502 903 502 852 378 c 128,-1,2
 801 254 801 254 730 165 c 128,-1,3
 659 76 659 76 567 26.5 c 128,-1,4
 475 -23 475 -23 362 -23 c 0,5,6
 248 -23 248 -23 178.5 26.5 c 128,-1,7
 109 76 109 76 76 165 c 128,-1,8
 43 254 43 254 46 378 c 128,-1,9
 49 502 49 502 80 651 c 0,10,11
 111 799 111 799 161 923 c 128,-1,12
 211 1047 211 1047 282.5 1137 c 128,-1,13
 354 1227 354 1227 444.5 1277 c 128,-1,14
 535 1327 535 1327 649 1327 c 0,15,16
 764 1327 764 1327 834.5 1277 c 128,-1,17
 905 1227 905 1227 938 1138 c 128,-1,18
 971 1049 971 1049 968 924 c 128,-1,19
 965 799 965 799 934 651 c 0,0,1
387 94 m 256,20,21
 465 94 465 94 527.5 133 c 128,-1,22
 590 172 590 172 639 240.5 c 128,-1,23
 688 309 688 309 723 403.5 c 128,-1,24
 758 498 758 498 784 606 c 1,25,-1
 209 606 l 1,26,27
 188 498 188 498 185 403.5 c 128,-1,28
 182 309 182 309 200.5 240.5 c 128,-1,29
 219 172 219 172 264 133 c 128,-1,30
 309 94 309 94 387 94 c 256,20,21
625 1210 m 0,31,32
 547 1210 547 1210 485.5 1173.5 c 128,-1,33
 424 1137 424 1137 377 1071.5 c 128,-1,34
 330 1006 330 1006 294 916.5 c 128,-1,35
 258 827 258 827 236 723 c 1,36,-1
 811 723 l 1,37,38
 827 827 827 827 830.5 916.5 c 128,-1,39
 834 1006 834 1006 813.5 1071.5 c 128,-1,40
 793 1137 793 1137 747.5 1173.5 c 128,-1,41
 702 1210 702 1210 625 1210 c 0,31,32
EndSplineSet
EndChar

StartChar: iota
Encoding: 953 953 423
Width: 1118
VWidth: 2048
Flags: W
LayerCount: 2
Fore
SplineSet
647 2 m 1,0,1
 621 -10 621 -10 591 -16.5 c 128,-1,2
 561 -23 561 -23 518 -23 c 0,3,4
 473 -23 473 -23 435 -7.5 c 128,-1,5
 397 8 397 8 372.5 37 c 128,-1,6
 348 66 348 66 339 109 c 128,-1,7
 330 152 330 152 342 207 c 2,8,-1
 471 811 l 1,9,-1
 260 811 l 1,10,-1
 285 932 l 1,11,-1
 633 932 l 1,12,-1
 479 207 l 2,13,14
 455 94 455 94 561 94 c 0,15,16
 610 94 610 94 641 111 c 1,17,-1
 647 2 l 1,0,1
EndSplineSet
EndChar

StartChar: kappa
Encoding: 954 954 424
Width: 1118
VWidth: 2048
Flags: W
LayerCount: 2
Fore
SplineSet
831 0 m 1,0,-1
 637 0 l 1,1,-1
 344 418 l 1,2,-1
 143 264 l 1,3,-1
 88 0 l 1,4,-1
 -49 0 l 1,5,-1
 147 932 l 1,6,-1
 285 932 l 1,7,-1
 178 430 l 1,8,-1
 815 932 l 1,9,-1
 1012 932 l 1,10,-1
 455 504 l 1,11,-1
 831 0 l 1,0,-1
EndSplineSet
EndChar

StartChar: lambda
Encoding: 955 955 425
Width: 1118
VWidth: 2048
Flags: W
LayerCount: 2
Fore
SplineSet
698 0 m 1,0,-1
 541 815 l 1,1,-1
 33 0 l 1,2,-1
 -129 0 l 1,3,-1
 489 958 l 1,4,-1
 463 1100 l 2,5,6
 453 1145 453 1145 434.5 1177.5 c 128,-1,7
 416 1210 416 1210 348 1210 c 0,8,9
 319 1210 319 1210 272 1202 c 128,-1,10
 225 1194 225 1194 174 1174 c 1,11,-1
 174 1292 l 1,12,13
 276 1327 276 1327 373 1327 c 0,14,15
 459 1327 459 1327 523.5 1296.5 c 128,-1,16
 588 1266 588 1266 606 1167 c 2,17,-1
 862 0 l 1,18,-1
 698 0 l 1,0,-1
EndSplineSet
EndChar

